G04 #@! TF.FileFunction,Copper,L4,Bot,Signal*
%FSLAX46Y46*%
G04 Gerber Fmt 4.6, Leading zero omitted, Abs format (unit mm)*
G04 Created by KiCad (PCBNEW (2016-04-26 BZR 6712)-product) date Friday, 13 May 2016 'amt' 09:44:12*
%MOMM*%
%LPD*%
G01*
G04 APERTURE LIST*
%ADD10C,0.100000*%
%ADD11R,2.032000X1.727200*%
%ADD12O,2.032000X1.727200*%
%ADD13C,0.685800*%
%ADD14C,2.540000*%
%ADD15C,1.500000*%
%ADD16R,2.800000X3.000000*%
%ADD17C,1.524000*%
%ADD18C,1.016000*%
%ADD19C,0.152400*%
%ADD20C,0.254000*%
G04 APERTURE END LIST*
D10*
D11*
X190000000Y-96380000D03*
D12*
X190000000Y-98920000D03*
X190000000Y-101460000D03*
X190000000Y-104000000D03*
X190000000Y-106540000D03*
X190000000Y-109080000D03*
X190000000Y-111620000D03*
X190000000Y-114160000D03*
D13*
X141000000Y-99000000D03*
X146900000Y-108900000D03*
X152600000Y-108400000D03*
X152900000Y-104600000D03*
X150600000Y-106200000D03*
X146900000Y-103200000D03*
D14*
X147000000Y-140000000D03*
X150469705Y-140929705D03*
X146070295Y-143469705D03*
X143530295Y-139070295D03*
X147929705Y-136530295D03*
X155000000Y-146000000D03*
X158255550Y-144481912D03*
X156518088Y-149255550D03*
X151744450Y-147518088D03*
X153481912Y-142744450D03*
X165000000Y-146000000D03*
X166518088Y-142744450D03*
X168255550Y-147518088D03*
X163481912Y-149255550D03*
X161744450Y-144481912D03*
X173000000Y-140000000D03*
X172070295Y-136530295D03*
X176469705Y-139070295D03*
X173929705Y-143469705D03*
X169530295Y-140929705D03*
D15*
X152040000Y-90000000D03*
X149500000Y-90000000D03*
X154580000Y-90000000D03*
D16*
X157090000Y-86170000D03*
X146990000Y-86170000D03*
D15*
X168000000Y-90000000D03*
X165460000Y-90000000D03*
X170540000Y-90000000D03*
D16*
X173050000Y-86170000D03*
X162950000Y-86170000D03*
D17*
X153500000Y-109500000D03*
D13*
X147100000Y-106100000D03*
D18*
X164000000Y-125000000D03*
X156000000Y-125000000D03*
X158600006Y-106600000D03*
X162800000Y-108000000D03*
X171050000Y-102500000D03*
X145300000Y-100500000D03*
X161700000Y-112500000D03*
X148500000Y-110700000D03*
X171050012Y-108700000D03*
X151000000Y-99500000D03*
X157100000Y-106600000D03*
X162200000Y-106700000D03*
X162700000Y-110400000D03*
X145500000Y-110500000D03*
X156000000Y-127000000D03*
X164000000Y-127000000D03*
X148500000Y-112300000D03*
D13*
X153500000Y-109500000D03*
X166000000Y-109000000D03*
X164499995Y-104676423D03*
X164500000Y-103000008D03*
X163500000Y-103000006D03*
X162500000Y-103000000D03*
X164499988Y-103838212D03*
D19*
X170200000Y-113200000D02*
X166342899Y-109342899D01*
X175250000Y-113200000D02*
X170200000Y-113200000D01*
X166342899Y-109342899D02*
X166000000Y-109000000D01*
X164842894Y-105019322D02*
X164499995Y-104676423D01*
X168701660Y-108878088D02*
X164842894Y-105019322D01*
X168709155Y-108878088D02*
X168701660Y-108878088D01*
X170491066Y-110660000D02*
X168709155Y-108878088D01*
X175250000Y-110660000D02*
X170491066Y-110660000D01*
X175250000Y-105580000D02*
X167079992Y-105580000D01*
X167079992Y-105580000D02*
X164842899Y-103342907D01*
X164842899Y-103342907D02*
X164500000Y-103000008D01*
X164195195Y-102304811D02*
X163842899Y-102657107D01*
X164827059Y-102304811D02*
X164195195Y-102304811D01*
X165562248Y-103040000D02*
X164827059Y-102304811D01*
X175250000Y-103040000D02*
X165562248Y-103040000D01*
X163842899Y-102657107D02*
X163500000Y-103000006D01*
X175250000Y-100500000D02*
X165000000Y-100500000D01*
X165000000Y-100500000D02*
X162842899Y-102657101D01*
X162842899Y-102657101D02*
X162500000Y-103000000D01*
X175250000Y-108120000D02*
X171120000Y-108120000D01*
X171120000Y-108120000D02*
X170000000Y-107000000D01*
X170000000Y-107000000D02*
X167661776Y-107000000D01*
X167661776Y-107000000D02*
X164842887Y-104181111D01*
X164842887Y-104181111D02*
X164499988Y-103838212D01*
D20*
G36*
X176879320Y-94319611D02*
X176321569Y-94876389D01*
X176019345Y-95604226D01*
X176018657Y-96392316D01*
X176319611Y-97120680D01*
X176876389Y-97678431D01*
X177604226Y-97980655D01*
X178392316Y-97981343D01*
X179120680Y-97680389D01*
X179544000Y-97257807D01*
X179544000Y-130742693D01*
X179123611Y-130321569D01*
X178395774Y-130019345D01*
X177607684Y-130018657D01*
X176879320Y-130319611D01*
X176321569Y-130876389D01*
X176019345Y-131604226D01*
X176018657Y-132392316D01*
X176319611Y-133120680D01*
X176876389Y-133678431D01*
X177344964Y-133873000D01*
X142654526Y-133873000D01*
X143120680Y-133680389D01*
X143678431Y-133123611D01*
X143980655Y-132395774D01*
X143981343Y-131607684D01*
X143680389Y-130879320D01*
X143123611Y-130321569D01*
X142395774Y-130019345D01*
X141607684Y-130018657D01*
X140879320Y-130319611D01*
X140456000Y-130742193D01*
X140456000Y-98000000D01*
X143873000Y-98000000D01*
X143873000Y-130000000D01*
X143882667Y-130048601D01*
X143910197Y-130089803D01*
X143951399Y-130117333D01*
X144000000Y-130127000D01*
X176000000Y-130127000D01*
X176048601Y-130117333D01*
X176089803Y-130089803D01*
X176117333Y-130048601D01*
X176127000Y-130000000D01*
X176127000Y-98000000D01*
X176117333Y-97951399D01*
X176089803Y-97910197D01*
X176048601Y-97882667D01*
X176000000Y-97873000D01*
X144000000Y-97873000D01*
X143951399Y-97882667D01*
X143910197Y-97910197D01*
X143882667Y-97951399D01*
X143873000Y-98000000D01*
X140456000Y-98000000D01*
X140456000Y-97257307D01*
X140876389Y-97678431D01*
X141604226Y-97980655D01*
X142392316Y-97981343D01*
X143120680Y-97680389D01*
X143678431Y-97123611D01*
X143980655Y-96395774D01*
X143981343Y-95607684D01*
X143680389Y-94879320D01*
X143123611Y-94321569D01*
X142655036Y-94127000D01*
X177345474Y-94127000D01*
X176879320Y-94319611D01*
X176879320Y-94319611D01*
G37*
X176879320Y-94319611D02*
X176321569Y-94876389D01*
X176019345Y-95604226D01*
X176018657Y-96392316D01*
X176319611Y-97120680D01*
X176876389Y-97678431D01*
X177604226Y-97980655D01*
X178392316Y-97981343D01*
X179120680Y-97680389D01*
X179544000Y-97257807D01*
X179544000Y-130742693D01*
X179123611Y-130321569D01*
X178395774Y-130019345D01*
X177607684Y-130018657D01*
X176879320Y-130319611D01*
X176321569Y-130876389D01*
X176019345Y-131604226D01*
X176018657Y-132392316D01*
X176319611Y-133120680D01*
X176876389Y-133678431D01*
X177344964Y-133873000D01*
X142654526Y-133873000D01*
X143120680Y-133680389D01*
X143678431Y-133123611D01*
X143980655Y-132395774D01*
X143981343Y-131607684D01*
X143680389Y-130879320D01*
X143123611Y-130321569D01*
X142395774Y-130019345D01*
X141607684Y-130018657D01*
X140879320Y-130319611D01*
X140456000Y-130742193D01*
X140456000Y-98000000D01*
X143873000Y-98000000D01*
X143873000Y-130000000D01*
X143882667Y-130048601D01*
X143910197Y-130089803D01*
X143951399Y-130117333D01*
X144000000Y-130127000D01*
X176000000Y-130127000D01*
X176048601Y-130117333D01*
X176089803Y-130089803D01*
X176117333Y-130048601D01*
X176127000Y-130000000D01*
X176127000Y-98000000D01*
X176117333Y-97951399D01*
X176089803Y-97910197D01*
X176048601Y-97882667D01*
X176000000Y-97873000D01*
X144000000Y-97873000D01*
X143951399Y-97882667D01*
X143910197Y-97910197D01*
X143882667Y-97951399D01*
X143873000Y-98000000D01*
X140456000Y-98000000D01*
X140456000Y-97257307D01*
X140876389Y-97678431D01*
X141604226Y-97980655D01*
X142392316Y-97981343D01*
X143120680Y-97680389D01*
X143678431Y-97123611D01*
X143980655Y-96395774D01*
X143981343Y-95607684D01*
X143680389Y-94879320D01*
X143123611Y-94321569D01*
X142655036Y-94127000D01*
X177345474Y-94127000D01*
X176879320Y-94319611D01*
M02*
