G04 #@! TF.FileFunction,Copper,L1,Top,Signal*
%FSLAX46Y46*%
G04 Gerber Fmt 4.6, Leading zero omitted, Abs format (unit mm)*
G04 Created by KiCad (PCBNEW (2016-04-26 BZR 6712)-product) date Friday, 13 May 2016 'amt' 09:44:12*
%MOMM*%
%LPD*%
G01*
G04 APERTURE LIST*
%ADD10C,0.100000*%
%ADD11R,2.032000X1.727200*%
%ADD12O,2.032000X1.727200*%
%ADD13C,0.685800*%
%ADD14R,0.800000X0.750000*%
%ADD15R,0.750000X0.800000*%
%ADD16R,0.797560X0.797560*%
%ADD17R,0.900000X0.500000*%
%ADD18R,0.500000X0.900000*%
%ADD19R,0.650000X1.060000*%
%ADD20R,1.300000X0.250000*%
%ADD21R,0.250000X1.300000*%
%ADD22C,2.540000*%
%ADD23R,2.400000X1.900000*%
%ADD24C,1.500000*%
%ADD25R,2.800000X3.000000*%
%ADD26R,1.140460X2.029460*%
%ADD27C,1.016000*%
%ADD28C,0.304800*%
%ADD29C,0.254000*%
%ADD30C,0.152400*%
%ADD31C,0.203200*%
G04 APERTURE END LIST*
D10*
D11*
X190000000Y-96380000D03*
D12*
X190000000Y-98920000D03*
X190000000Y-101460000D03*
X190000000Y-104000000D03*
X190000000Y-106540000D03*
X190000000Y-109080000D03*
X190000000Y-111620000D03*
X190000000Y-114160000D03*
D13*
X141000000Y-99000000D03*
X146900000Y-108900000D03*
X152600000Y-108400000D03*
X152900000Y-104600000D03*
X150600000Y-106200000D03*
X146900000Y-103200000D03*
D14*
X174000000Y-102500000D03*
X172500000Y-102500000D03*
D15*
X170750000Y-106250000D03*
X170750000Y-104750000D03*
D14*
X172500000Y-108500000D03*
X174000000Y-108500000D03*
X172500000Y-110500000D03*
X174000000Y-110500000D03*
D15*
X166500000Y-106250000D03*
X166500000Y-107750000D03*
D14*
X156750000Y-103000000D03*
X158250000Y-103000000D03*
D15*
X152000000Y-112250000D03*
X152000000Y-110750000D03*
X151500000Y-107300000D03*
X151500000Y-108800000D03*
X151500000Y-105050000D03*
X151500000Y-103550000D03*
D16*
X146776239Y-99500000D03*
X145277639Y-99500000D03*
X146749300Y-101500000D03*
X145250700Y-101500000D03*
D17*
X147000000Y-110750000D03*
X147000000Y-112250000D03*
D18*
X148250000Y-99500000D03*
X149750000Y-99500000D03*
X148250000Y-101500000D03*
X149750000Y-101500000D03*
D19*
X174200000Y-104400000D03*
X173250000Y-104400000D03*
X172300000Y-104400000D03*
X172300000Y-106600000D03*
X174200000Y-106600000D03*
D20*
X155650000Y-106750000D03*
X155650000Y-107250000D03*
X155650000Y-107750000D03*
X155650000Y-108250000D03*
X155650000Y-108750000D03*
X155650000Y-109250000D03*
X155650000Y-109750000D03*
X155650000Y-110250000D03*
X155650000Y-110750000D03*
X155650000Y-111250000D03*
X155650000Y-111750000D03*
X155650000Y-112250000D03*
D21*
X157250000Y-113850000D03*
X157750000Y-113850000D03*
X158250000Y-113850000D03*
X158750000Y-113850000D03*
X159250000Y-113850000D03*
X159750000Y-113850000D03*
X160250000Y-113850000D03*
X160750000Y-113850000D03*
X161250000Y-113850000D03*
X161750000Y-113850000D03*
X162250000Y-113850000D03*
X162750000Y-113850000D03*
D20*
X164350000Y-112250000D03*
X164350000Y-111750000D03*
X164350000Y-111250000D03*
X164350000Y-110750000D03*
X164350000Y-110250000D03*
X164350000Y-109750000D03*
X164350000Y-109250000D03*
X164350000Y-108750000D03*
X164350000Y-108250000D03*
X164350000Y-107750000D03*
X164350000Y-107250000D03*
X164350000Y-106750000D03*
D21*
X162750000Y-105150000D03*
X162250000Y-105150000D03*
X161750000Y-105150000D03*
X161250000Y-105150000D03*
X160750000Y-105150000D03*
X160250000Y-105150000D03*
X159750000Y-105150000D03*
X159250000Y-105150000D03*
X158750000Y-105150000D03*
X158250000Y-105150000D03*
X157750000Y-105150000D03*
X157250000Y-105150000D03*
D22*
X147000000Y-140000000D03*
X150469705Y-140929705D03*
X146070295Y-143469705D03*
X143530295Y-139070295D03*
X147929705Y-136530295D03*
X155000000Y-146000000D03*
X158255550Y-144481912D03*
X156518088Y-149255550D03*
X151744450Y-147518088D03*
X153481912Y-142744450D03*
X165000000Y-146000000D03*
X166518088Y-142744450D03*
X168255550Y-147518088D03*
X163481912Y-149255550D03*
X161744450Y-144481912D03*
X173000000Y-140000000D03*
X172070295Y-136530295D03*
X176469705Y-139070295D03*
X173929705Y-143469705D03*
X169530295Y-140929705D03*
D14*
X151250000Y-129000000D03*
X152750000Y-129000000D03*
X153750000Y-117000000D03*
X155250000Y-117000000D03*
X153750000Y-123000000D03*
X155250000Y-123000000D03*
X159250000Y-129000000D03*
X157750000Y-129000000D03*
X158250000Y-117000000D03*
X156750000Y-117000000D03*
X158250000Y-123000000D03*
X156750000Y-123000000D03*
X160750000Y-129000000D03*
X162250000Y-129000000D03*
X161750000Y-117000000D03*
X163250000Y-117000000D03*
X161750000Y-123000000D03*
X163250000Y-123000000D03*
X168750000Y-129000000D03*
X167250000Y-129000000D03*
X166250000Y-117000000D03*
X164750000Y-117000000D03*
X166250000Y-123000000D03*
X164750000Y-123000000D03*
D18*
X152750000Y-127000000D03*
X151250000Y-127000000D03*
X151250000Y-125000000D03*
X152750000Y-125000000D03*
X155250000Y-119000000D03*
X153750000Y-119000000D03*
X155250000Y-121000000D03*
X153750000Y-121000000D03*
X157750000Y-127000000D03*
X159250000Y-127000000D03*
X159250000Y-125000000D03*
X157750000Y-125000000D03*
X158250000Y-119000000D03*
X156750000Y-119000000D03*
X156750000Y-121000000D03*
X158250000Y-121000000D03*
X162250000Y-127000000D03*
X160750000Y-127000000D03*
X160750000Y-125000000D03*
X162250000Y-125000000D03*
X161750000Y-119000000D03*
X163250000Y-119000000D03*
X163250000Y-121000000D03*
X161750000Y-121000000D03*
X167250000Y-127000000D03*
X168750000Y-127000000D03*
X168750000Y-125000000D03*
X167250000Y-125000000D03*
X166250000Y-119000000D03*
X164750000Y-119000000D03*
X164750000Y-121000000D03*
X166250000Y-121000000D03*
D14*
X164750000Y-99500000D03*
X163250000Y-99500000D03*
X156750000Y-99500000D03*
X155250000Y-99500000D03*
D23*
X148930000Y-108075000D03*
X148930000Y-104075000D03*
D24*
X152040000Y-90000000D03*
X149500000Y-90000000D03*
X154580000Y-90000000D03*
D25*
X157090000Y-86170000D03*
X146990000Y-86170000D03*
D24*
X168000000Y-90000000D03*
X165460000Y-90000000D03*
X170540000Y-90000000D03*
D25*
X173050000Y-86170000D03*
X162950000Y-86170000D03*
D13*
X147100000Y-106100000D03*
D15*
X150000000Y-112250000D03*
X150000000Y-110750000D03*
X164900000Y-114000000D03*
X164900000Y-115500000D03*
D26*
X171346040Y-100300000D03*
X173753960Y-100300000D03*
D27*
X164000000Y-125000000D03*
X156000000Y-125000000D03*
X158600006Y-106600000D03*
X162800000Y-108000000D03*
X171050000Y-102500000D03*
X145300000Y-100500000D03*
X161700000Y-112500000D03*
X148500000Y-110700000D03*
X171050012Y-108700000D03*
X151000000Y-99500000D03*
X157100000Y-106600000D03*
X162200000Y-106700000D03*
X162700000Y-110400000D03*
X145500000Y-110500000D03*
X156000000Y-127000000D03*
X164000000Y-127000000D03*
X148500000Y-112300000D03*
D13*
X153500000Y-109500000D03*
X166000000Y-109000000D03*
X164499995Y-104676423D03*
X164500000Y-103000008D03*
X163500000Y-103000006D03*
X162500000Y-103000000D03*
X164499988Y-103838212D03*
D28*
X164750000Y-123000000D02*
X164750000Y-124250000D01*
X164750000Y-124250000D02*
X164000000Y-125000000D01*
X163250000Y-123000000D02*
X163250000Y-124250000D01*
X163250000Y-124250000D02*
X164000000Y-125000000D01*
X155250000Y-123000000D02*
X155250000Y-124250000D01*
X155250000Y-124250000D02*
X156000000Y-125000000D01*
X156750000Y-123000000D02*
X156750000Y-124250000D01*
X156750000Y-124250000D02*
X156000000Y-125000000D01*
X162250000Y-125000000D02*
X164000000Y-125000000D01*
X167250000Y-125000000D02*
X164000000Y-125000000D01*
X152750000Y-125000000D02*
X156000000Y-125000000D01*
X157750000Y-125000000D02*
X156000000Y-125000000D01*
X164900000Y-115500000D02*
X164220200Y-115500000D01*
X164220200Y-115500000D02*
X163525009Y-114804809D01*
X163525009Y-114804809D02*
X162250000Y-114804800D01*
X162250000Y-114804800D02*
X162250000Y-113850000D01*
X158245200Y-106600000D02*
X158600006Y-106600000D01*
X157750000Y-106104800D02*
X158245200Y-106600000D01*
X157750000Y-105150000D02*
X157750000Y-106104800D01*
X158754800Y-106600000D02*
X158600006Y-106600000D01*
X159250000Y-106104800D02*
X158754800Y-106600000D01*
X159250000Y-105150000D02*
X159250000Y-106104800D01*
X163395200Y-107250000D02*
X162800000Y-107845200D01*
X162800000Y-107845200D02*
X162800000Y-108000000D01*
X164350000Y-107250000D02*
X163395200Y-107250000D01*
X172500000Y-102500000D02*
X171050000Y-102500000D01*
X145250700Y-101500000D02*
X145250700Y-100549300D01*
X145250700Y-100549300D02*
X145300000Y-100500000D01*
X145277639Y-99500000D02*
X145277639Y-100477639D01*
X145277639Y-100477639D02*
X145300000Y-100500000D01*
X162250000Y-113850000D02*
X162250000Y-113050000D01*
X162250000Y-113050000D02*
X161700000Y-112500000D01*
X150000000Y-110750000D02*
X148550000Y-110750000D01*
X148550000Y-110750000D02*
X148500000Y-110700000D01*
X152000000Y-110750000D02*
X152679800Y-110750000D01*
X152679800Y-110750000D02*
X153179800Y-110250000D01*
X153179800Y-110250000D02*
X154695200Y-110250000D01*
X154695200Y-110250000D02*
X155650000Y-110250000D01*
X150000000Y-110750000D02*
X152000000Y-110750000D01*
X163250000Y-99500000D02*
X163250000Y-99250000D01*
X155225000Y-99500000D02*
X155250000Y-99500000D01*
X164750000Y-123000000D02*
X164750000Y-123250000D01*
X163250000Y-123000000D02*
X163250000Y-123250000D01*
X156750000Y-123000000D02*
X156750000Y-123250000D01*
X155250000Y-123000000D02*
X155250000Y-123250000D01*
D29*
X164350000Y-107250000D02*
X166000000Y-107250000D01*
X166000000Y-107250000D02*
X166500000Y-107750000D01*
X158250000Y-103000000D02*
X157750000Y-103500000D01*
X157750000Y-103500000D02*
X157750000Y-105150000D01*
D30*
X151500000Y-103525000D02*
X151500000Y-103550000D01*
D28*
X170750000Y-106250000D02*
X171950000Y-106250000D01*
X171950000Y-106250000D02*
X172300000Y-106600000D01*
X157250000Y-105150000D02*
X157250000Y-103500000D01*
X157250000Y-103500000D02*
X156750000Y-103000000D01*
X164900000Y-114000000D02*
X162900000Y-114000000D01*
X162900000Y-114000000D02*
X162750000Y-113850000D01*
X171250012Y-108500000D02*
X171050012Y-108700000D01*
X172500000Y-108500000D02*
X171250012Y-108500000D01*
X172500000Y-108500000D02*
X172500000Y-110500000D01*
X174200000Y-106600000D02*
X174200000Y-106800000D01*
X174200000Y-106800000D02*
X172500000Y-108500000D01*
X149750000Y-99500000D02*
X151000000Y-99500000D01*
X155650000Y-106750000D02*
X156950000Y-106750000D01*
X156950000Y-106750000D02*
X157100000Y-106600000D01*
X157250000Y-105150000D02*
X157250000Y-106450000D01*
X157250000Y-106450000D02*
X157100000Y-106600000D01*
X164350000Y-106750000D02*
X162250000Y-106750000D01*
X162250000Y-106750000D02*
X162200000Y-106700000D01*
X162750000Y-113850000D02*
X162750000Y-110450000D01*
X162750000Y-110450000D02*
X162700000Y-110400000D01*
X147000000Y-110750000D02*
X145750000Y-110750000D01*
X145750000Y-110750000D02*
X145500000Y-110500000D01*
X164750000Y-99250000D02*
X164750000Y-99500000D01*
X156725000Y-99500000D02*
X156750000Y-99500000D01*
D29*
X164350000Y-106750000D02*
X166000000Y-106750000D01*
X166000000Y-106750000D02*
X166500000Y-106250000D01*
X164725000Y-99500000D02*
X164750000Y-99500000D01*
D31*
X166500000Y-106275000D02*
X166500000Y-106250000D01*
X164775000Y-99500000D02*
X164750000Y-99500000D01*
D28*
X157750000Y-127000000D02*
X156000000Y-127000000D01*
X152750000Y-127000000D02*
X156000000Y-127000000D01*
X162250000Y-127000000D02*
X164000000Y-127000000D01*
X167250000Y-127000000D02*
X164000000Y-127000000D01*
X152000000Y-112250000D02*
X152679800Y-112250000D01*
X152679800Y-112250000D02*
X154179800Y-110750000D01*
X154179800Y-110750000D02*
X154695200Y-110750000D01*
X154695200Y-110750000D02*
X155650000Y-110750000D01*
X150000000Y-112250000D02*
X152000000Y-112250000D01*
X150000000Y-112250000D02*
X148550000Y-112250000D01*
X148550000Y-112250000D02*
X148500000Y-112300000D01*
X147000000Y-112250000D02*
X148450000Y-112250000D01*
X148450000Y-112250000D02*
X148500000Y-112300000D01*
D30*
X151500000Y-107300000D02*
X152800000Y-107300000D01*
X152800000Y-107300000D02*
X154750000Y-109250000D01*
X154750000Y-109250000D02*
X155650000Y-109250000D01*
X151500000Y-107300000D02*
X149705000Y-107300000D01*
X149705000Y-107300000D02*
X148930000Y-108075000D01*
X151500000Y-107325000D02*
X151500000Y-107300000D01*
X151500000Y-105200000D02*
X155050000Y-108750000D01*
X155050000Y-108750000D02*
X155650000Y-108750000D01*
X151500000Y-105050000D02*
X149905000Y-105050000D01*
X149905000Y-105050000D02*
X148930000Y-104075000D01*
X151500000Y-105050000D02*
X151500000Y-105200000D01*
X148250000Y-99500000D02*
X146776239Y-99500000D01*
X148250000Y-101500000D02*
X146749300Y-101500000D01*
X155650000Y-107250000D02*
X154847600Y-107250000D01*
X154847600Y-107250000D02*
X154000000Y-106402400D01*
X154000000Y-106402400D02*
X154000000Y-104000000D01*
X154000000Y-104000000D02*
X151500000Y-101500000D01*
X151500000Y-101500000D02*
X150152400Y-101500000D01*
X150152400Y-101500000D02*
X149750000Y-101500000D01*
X155650000Y-109750000D02*
X153750000Y-109750000D01*
X153750000Y-109750000D02*
X153500000Y-109500000D01*
D28*
X151250000Y-127000000D02*
X151250000Y-129000000D01*
X151250000Y-125000000D02*
X151250000Y-127000000D01*
X155650000Y-111750000D02*
X154695199Y-111750001D01*
X154695199Y-111750001D02*
X151250000Y-115195200D01*
X151250000Y-115195200D02*
X151250000Y-125000000D01*
X155650000Y-112250000D02*
X155200000Y-112250000D01*
X155200000Y-112250000D02*
X153750000Y-113700000D01*
X153750000Y-113700000D02*
X153750000Y-117000000D01*
X153750000Y-117000000D02*
X153750000Y-119000000D01*
X155250000Y-119000000D02*
X155250000Y-121000000D01*
X155250000Y-117000000D02*
X155250000Y-119000000D01*
X157250000Y-113850000D02*
X157250000Y-115025000D01*
X157250000Y-115025000D02*
X155275000Y-117000000D01*
X155275000Y-117000000D02*
X155250000Y-117000000D01*
X156750000Y-119000000D02*
X156750000Y-121000000D01*
X156750000Y-117000000D02*
X156750000Y-119000000D01*
X158250000Y-113850000D02*
X158250000Y-115525000D01*
X158250000Y-115525000D02*
X156775000Y-117000000D01*
X156775000Y-117000000D02*
X156750000Y-117000000D01*
X158250000Y-117000000D02*
X158250000Y-119000000D01*
X158750000Y-113850000D02*
X158750000Y-116500000D01*
X158750000Y-116500000D02*
X158250000Y-117000000D01*
X159250000Y-127000000D02*
X159250000Y-129000000D01*
X159250000Y-125000000D02*
X159250000Y-127000000D01*
X159250000Y-113850000D02*
X159250000Y-125000000D01*
X160750000Y-127000000D02*
X160750000Y-129000000D01*
X160750000Y-125000000D02*
X160750000Y-127000000D01*
X160750000Y-125000000D02*
X160750000Y-117450000D01*
X160750000Y-117450000D02*
X159750000Y-116450000D01*
X159750000Y-116450000D02*
X159750000Y-114804800D01*
X159750000Y-114804800D02*
X159750000Y-113850000D01*
X161750000Y-117000000D02*
X161750000Y-119000000D01*
X160250000Y-113850000D02*
X160250000Y-115525000D01*
X160250000Y-115525000D02*
X161725000Y-117000000D01*
X161725000Y-117000000D02*
X161750000Y-117000000D01*
X163250000Y-119000000D02*
X163250000Y-117000000D01*
X163250000Y-121000000D02*
X163250000Y-119000000D01*
X160750000Y-113850000D02*
X160750000Y-114950000D01*
X160750000Y-114950000D02*
X161600000Y-115800000D01*
X161600000Y-115800000D02*
X162100000Y-115800000D01*
X162100000Y-115800000D02*
X163250000Y-116950000D01*
X163250000Y-116950000D02*
X163250000Y-117000000D01*
X161250000Y-114673642D02*
X161250000Y-113850000D01*
X161838370Y-115262012D02*
X161250000Y-114673642D01*
X162987012Y-115262012D02*
X161838370Y-115262012D01*
X164725000Y-117000000D02*
X162987012Y-115262012D01*
X164750000Y-117000000D02*
X164725000Y-117000000D01*
X164750000Y-119000000D02*
X164750000Y-121000000D01*
X164750000Y-117000000D02*
X164750000Y-119000000D01*
X168750000Y-127000000D02*
X168750000Y-129000000D01*
X168750000Y-125000000D02*
X168750000Y-127000000D01*
X164350000Y-111750000D02*
X165250000Y-111750000D01*
X165250000Y-111750000D02*
X168750000Y-115250000D01*
X168750000Y-115250000D02*
X168750000Y-125000000D01*
X164350000Y-112250000D02*
X164850000Y-112250000D01*
X164850000Y-112250000D02*
X166250000Y-113650000D01*
X166250000Y-113650000D02*
X166250000Y-117000000D01*
X166250000Y-117000000D02*
X166250000Y-119000000D01*
D30*
X166000000Y-108597600D02*
X166000000Y-109000000D01*
X165152400Y-107750000D02*
X166000000Y-108597600D01*
X164350000Y-107750000D02*
X165152400Y-107750000D01*
X162750000Y-105150000D02*
X164026418Y-105150000D01*
X164026418Y-105150000D02*
X164157096Y-105019322D01*
X164157096Y-105019322D02*
X164499995Y-104676423D01*
X163623696Y-103876312D02*
X164157101Y-103342907D01*
X161750000Y-104347600D02*
X162221288Y-103876312D01*
X161750000Y-105150000D02*
X161750000Y-104347600D01*
X164157101Y-103342907D02*
X164500000Y-103000008D01*
X162221288Y-103876312D02*
X163623696Y-103876312D01*
X162928505Y-103571501D02*
X163157101Y-103342905D01*
X162026099Y-103571501D02*
X162928505Y-103571501D01*
X161250000Y-105150000D02*
X161250000Y-104347600D01*
X161250000Y-104347600D02*
X162026099Y-103571501D01*
X163157101Y-103342905D02*
X163500000Y-103000006D01*
X160750000Y-104347600D02*
X162097600Y-103000000D01*
X160750000Y-105150000D02*
X160750000Y-104347600D01*
X162097600Y-103000000D02*
X162500000Y-103000000D01*
X160250000Y-105150000D02*
X160250000Y-102750000D01*
X160250000Y-102750000D02*
X161500000Y-101500000D01*
X161500000Y-101500000D02*
X164040000Y-101500000D01*
X156000000Y-101500000D02*
X158500000Y-101500000D01*
X159750000Y-102750000D02*
X159750000Y-104347600D01*
X158500000Y-101500000D02*
X159750000Y-102750000D01*
X159750000Y-104347600D02*
X159750000Y-105150000D01*
D28*
X153750000Y-121000000D02*
X153750000Y-123000000D01*
X158250000Y-121000000D02*
X158250000Y-123000000D01*
X161750000Y-121000000D02*
X161750000Y-123000000D01*
X166250000Y-121000000D02*
X166250000Y-123000000D01*
D30*
X162371921Y-104225679D02*
X164112521Y-104225679D01*
X162250000Y-105150000D02*
X162250000Y-104347600D01*
X164112521Y-104225679D02*
X164157089Y-104181111D01*
X164157089Y-104181111D02*
X164499988Y-103838212D01*
X162250000Y-104347600D02*
X162371921Y-104225679D01*
D28*
X174000000Y-102500000D02*
X174000000Y-100546040D01*
X174000000Y-100546040D02*
X173753960Y-100300000D01*
X173853960Y-102353960D02*
X174000000Y-102500000D01*
X172300000Y-104400000D02*
X172300001Y-105234801D01*
X172300001Y-105234801D02*
X174200000Y-105234800D01*
X174200000Y-105234800D02*
X174200000Y-104400000D01*
X174200000Y-104400000D02*
X174200000Y-102700000D01*
X174200000Y-102700000D02*
X174000000Y-102500000D01*
D29*
G36*
X153390400Y-104252504D02*
X153390400Y-106228296D01*
X152418849Y-105256745D01*
X152418849Y-104650000D01*
X152377451Y-104441878D01*
X152259559Y-104265441D01*
X152083122Y-104147549D01*
X151875000Y-104106151D01*
X151125000Y-104106151D01*
X150916878Y-104147549D01*
X150740441Y-104265441D01*
X150673849Y-104365102D01*
X150673849Y-103125000D01*
X150632451Y-102916878D01*
X150514559Y-102740441D01*
X150338122Y-102622549D01*
X150130000Y-102581151D01*
X147730000Y-102581151D01*
X147521878Y-102622549D01*
X147345441Y-102740441D01*
X147227549Y-102916878D01*
X147186151Y-103125000D01*
X147186151Y-105025000D01*
X147227549Y-105233122D01*
X147345441Y-105409559D01*
X147521878Y-105527451D01*
X147730000Y-105568849D01*
X149605345Y-105568849D01*
X149671716Y-105613197D01*
X149905000Y-105659600D01*
X150623537Y-105659600D01*
X150740441Y-105834559D01*
X150916878Y-105952451D01*
X151125000Y-105993849D01*
X151431745Y-105993849D01*
X151794047Y-106356151D01*
X151125000Y-106356151D01*
X150916878Y-106397549D01*
X150740441Y-106515441D01*
X150623537Y-106690400D01*
X150439668Y-106690400D01*
X150338122Y-106622549D01*
X150130000Y-106581151D01*
X147730000Y-106581151D01*
X147521878Y-106622549D01*
X147345441Y-106740441D01*
X147227549Y-106916878D01*
X147186151Y-107125000D01*
X147186151Y-109025000D01*
X147227549Y-109233122D01*
X147345441Y-109409559D01*
X147521878Y-109527451D01*
X147730000Y-109568849D01*
X150130000Y-109568849D01*
X150338122Y-109527451D01*
X150514559Y-109409559D01*
X150632451Y-109233122D01*
X150673849Y-109025000D01*
X150673849Y-107984898D01*
X150740441Y-108084559D01*
X150916878Y-108202451D01*
X151125000Y-108243849D01*
X151875000Y-108243849D01*
X152083122Y-108202451D01*
X152259559Y-108084559D01*
X152376463Y-107909600D01*
X152547496Y-107909600D01*
X153280453Y-108642557D01*
X153004264Y-108756676D01*
X152757542Y-109002968D01*
X152623852Y-109324928D01*
X152623636Y-109573000D01*
X147060606Y-109573000D01*
X146627000Y-109139394D01*
X146627000Y-102960606D01*
X147060606Y-102527000D01*
X151664896Y-102527000D01*
X153390400Y-104252504D01*
X153390400Y-104252504D01*
G37*
X153390400Y-104252504D02*
X153390400Y-106228296D01*
X152418849Y-105256745D01*
X152418849Y-104650000D01*
X152377451Y-104441878D01*
X152259559Y-104265441D01*
X152083122Y-104147549D01*
X151875000Y-104106151D01*
X151125000Y-104106151D01*
X150916878Y-104147549D01*
X150740441Y-104265441D01*
X150673849Y-104365102D01*
X150673849Y-103125000D01*
X150632451Y-102916878D01*
X150514559Y-102740441D01*
X150338122Y-102622549D01*
X150130000Y-102581151D01*
X147730000Y-102581151D01*
X147521878Y-102622549D01*
X147345441Y-102740441D01*
X147227549Y-102916878D01*
X147186151Y-103125000D01*
X147186151Y-105025000D01*
X147227549Y-105233122D01*
X147345441Y-105409559D01*
X147521878Y-105527451D01*
X147730000Y-105568849D01*
X149605345Y-105568849D01*
X149671716Y-105613197D01*
X149905000Y-105659600D01*
X150623537Y-105659600D01*
X150740441Y-105834559D01*
X150916878Y-105952451D01*
X151125000Y-105993849D01*
X151431745Y-105993849D01*
X151794047Y-106356151D01*
X151125000Y-106356151D01*
X150916878Y-106397549D01*
X150740441Y-106515441D01*
X150623537Y-106690400D01*
X150439668Y-106690400D01*
X150338122Y-106622549D01*
X150130000Y-106581151D01*
X147730000Y-106581151D01*
X147521878Y-106622549D01*
X147345441Y-106740441D01*
X147227549Y-106916878D01*
X147186151Y-107125000D01*
X147186151Y-109025000D01*
X147227549Y-109233122D01*
X147345441Y-109409559D01*
X147521878Y-109527451D01*
X147730000Y-109568849D01*
X150130000Y-109568849D01*
X150338122Y-109527451D01*
X150514559Y-109409559D01*
X150632451Y-109233122D01*
X150673849Y-109025000D01*
X150673849Y-107984898D01*
X150740441Y-108084559D01*
X150916878Y-108202451D01*
X151125000Y-108243849D01*
X151875000Y-108243849D01*
X152083122Y-108202451D01*
X152259559Y-108084559D01*
X152376463Y-107909600D01*
X152547496Y-107909600D01*
X153280453Y-108642557D01*
X153004264Y-108756676D01*
X152757542Y-109002968D01*
X152623852Y-109324928D01*
X152623636Y-109573000D01*
X147060606Y-109573000D01*
X146627000Y-109139394D01*
X146627000Y-102960606D01*
X147060606Y-102527000D01*
X151664896Y-102527000D01*
X153390400Y-104252504D01*
D31*
G36*
X174898400Y-99300084D02*
X174898400Y-110949916D01*
X174449916Y-111398400D01*
X170300084Y-111398400D01*
X169851600Y-110949916D01*
X169851600Y-108860967D01*
X170237071Y-108860967D01*
X170360552Y-109159813D01*
X170588996Y-109388657D01*
X170887627Y-109512659D01*
X171210979Y-109512941D01*
X171509825Y-109389460D01*
X171738669Y-109161016D01*
X171811319Y-108986055D01*
X171812885Y-108993927D01*
X171880252Y-109094748D01*
X171981073Y-109162115D01*
X172042800Y-109174393D01*
X172042800Y-109825607D01*
X171981073Y-109837885D01*
X171880252Y-109905252D01*
X171812885Y-110006073D01*
X171789229Y-110125000D01*
X171789229Y-110875000D01*
X171812885Y-110993927D01*
X171880252Y-111094748D01*
X171981073Y-111162115D01*
X172100000Y-111185771D01*
X172900000Y-111185771D01*
X173018927Y-111162115D01*
X173119748Y-111094748D01*
X173187115Y-110993927D01*
X173210771Y-110875000D01*
X173210771Y-110728600D01*
X173295200Y-110728600D01*
X173295200Y-110935629D01*
X173341603Y-111047656D01*
X173427345Y-111133397D01*
X173539372Y-111179800D01*
X173771400Y-111179800D01*
X173847600Y-111103600D01*
X173847600Y-110652400D01*
X174152400Y-110652400D01*
X174152400Y-111103600D01*
X174228600Y-111179800D01*
X174460628Y-111179800D01*
X174572655Y-111133397D01*
X174658397Y-111047656D01*
X174704800Y-110935629D01*
X174704800Y-110728600D01*
X174628600Y-110652400D01*
X174152400Y-110652400D01*
X173847600Y-110652400D01*
X173371400Y-110652400D01*
X173295200Y-110728600D01*
X173210771Y-110728600D01*
X173210771Y-110125000D01*
X173198712Y-110064371D01*
X173295200Y-110064371D01*
X173295200Y-110271400D01*
X173371400Y-110347600D01*
X173847600Y-110347600D01*
X173847600Y-109896400D01*
X174152400Y-109896400D01*
X174152400Y-110347600D01*
X174628600Y-110347600D01*
X174704800Y-110271400D01*
X174704800Y-110064371D01*
X174658397Y-109952344D01*
X174572655Y-109866603D01*
X174460628Y-109820200D01*
X174228600Y-109820200D01*
X174152400Y-109896400D01*
X173847600Y-109896400D01*
X173771400Y-109820200D01*
X173539372Y-109820200D01*
X173427345Y-109866603D01*
X173341603Y-109952344D01*
X173295200Y-110064371D01*
X173198712Y-110064371D01*
X173187115Y-110006073D01*
X173119748Y-109905252D01*
X173018927Y-109837885D01*
X172957200Y-109825607D01*
X172957200Y-109174393D01*
X173018927Y-109162115D01*
X173119748Y-109094748D01*
X173187115Y-108993927D01*
X173210771Y-108875000D01*
X173210771Y-108728600D01*
X173295200Y-108728600D01*
X173295200Y-108935629D01*
X173341603Y-109047656D01*
X173427345Y-109133397D01*
X173539372Y-109179800D01*
X173771400Y-109179800D01*
X173847600Y-109103600D01*
X173847600Y-108652400D01*
X174152400Y-108652400D01*
X174152400Y-109103600D01*
X174228600Y-109179800D01*
X174460628Y-109179800D01*
X174572655Y-109133397D01*
X174658397Y-109047656D01*
X174704800Y-108935629D01*
X174704800Y-108728600D01*
X174628600Y-108652400D01*
X174152400Y-108652400D01*
X173847600Y-108652400D01*
X173371400Y-108652400D01*
X173295200Y-108728600D01*
X173210771Y-108728600D01*
X173210771Y-108435807D01*
X173335189Y-108311389D01*
X173371400Y-108347600D01*
X173847600Y-108347600D01*
X173847600Y-107896400D01*
X174152400Y-107896400D01*
X174152400Y-108347600D01*
X174628600Y-108347600D01*
X174704800Y-108271400D01*
X174704800Y-108064371D01*
X174658397Y-107952344D01*
X174572655Y-107866603D01*
X174460628Y-107820200D01*
X174228600Y-107820200D01*
X174152400Y-107896400D01*
X173847600Y-107896400D01*
X173798889Y-107847689D01*
X174205807Y-107440771D01*
X174525000Y-107440771D01*
X174643927Y-107417115D01*
X174744748Y-107349748D01*
X174812115Y-107248927D01*
X174835771Y-107130000D01*
X174835771Y-106070000D01*
X174812115Y-105951073D01*
X174744748Y-105850252D01*
X174643927Y-105782885D01*
X174525000Y-105759229D01*
X173875000Y-105759229D01*
X173756073Y-105782885D01*
X173655252Y-105850252D01*
X173587885Y-105951073D01*
X173564229Y-106070000D01*
X173564229Y-106789193D01*
X172539193Y-107814229D01*
X172100000Y-107814229D01*
X171981073Y-107837885D01*
X171880252Y-107905252D01*
X171812885Y-108006073D01*
X171805580Y-108042800D01*
X171542430Y-108042800D01*
X171511028Y-108011343D01*
X171212397Y-107887341D01*
X170889045Y-107887059D01*
X170590199Y-108010540D01*
X170361355Y-108238984D01*
X170237353Y-108537615D01*
X170237071Y-108860967D01*
X169851600Y-108860967D01*
X169851600Y-105850000D01*
X170064229Y-105850000D01*
X170064229Y-106650000D01*
X170087885Y-106768927D01*
X170155252Y-106869748D01*
X170256073Y-106937115D01*
X170375000Y-106960771D01*
X171125000Y-106960771D01*
X171243927Y-106937115D01*
X171344748Y-106869748D01*
X171412115Y-106768927D01*
X171424393Y-106707200D01*
X171664229Y-106707200D01*
X171664229Y-107130000D01*
X171687885Y-107248927D01*
X171755252Y-107349748D01*
X171856073Y-107417115D01*
X171975000Y-107440771D01*
X172625000Y-107440771D01*
X172743927Y-107417115D01*
X172844748Y-107349748D01*
X172912115Y-107248927D01*
X172935771Y-107130000D01*
X172935771Y-106070000D01*
X172912115Y-105951073D01*
X172844748Y-105850252D01*
X172743927Y-105782885D01*
X172625000Y-105759229D01*
X171975000Y-105759229D01*
X171856073Y-105782885D01*
X171841234Y-105792800D01*
X171424393Y-105792800D01*
X171412115Y-105731073D01*
X171344748Y-105630252D01*
X171243927Y-105562885D01*
X171125000Y-105539229D01*
X170375000Y-105539229D01*
X170256073Y-105562885D01*
X170155252Y-105630252D01*
X170087885Y-105731073D01*
X170064229Y-105850000D01*
X169851600Y-105850000D01*
X169851600Y-104978600D01*
X170070200Y-104978600D01*
X170070200Y-105210628D01*
X170116603Y-105322655D01*
X170202344Y-105408397D01*
X170314371Y-105454800D01*
X170521400Y-105454800D01*
X170597600Y-105378600D01*
X170597600Y-104902400D01*
X170902400Y-104902400D01*
X170902400Y-105378600D01*
X170978600Y-105454800D01*
X171185629Y-105454800D01*
X171297656Y-105408397D01*
X171383397Y-105322655D01*
X171429800Y-105210628D01*
X171429800Y-104978600D01*
X171353600Y-104902400D01*
X170902400Y-104902400D01*
X170597600Y-104902400D01*
X170146400Y-104902400D01*
X170070200Y-104978600D01*
X169851600Y-104978600D01*
X169851600Y-104289372D01*
X170070200Y-104289372D01*
X170070200Y-104521400D01*
X170146400Y-104597600D01*
X170597600Y-104597600D01*
X170597600Y-104121400D01*
X170902400Y-104121400D01*
X170902400Y-104597600D01*
X171353600Y-104597600D01*
X171429800Y-104521400D01*
X171429800Y-104289372D01*
X171383397Y-104177345D01*
X171297656Y-104091603D01*
X171185629Y-104045200D01*
X170978600Y-104045200D01*
X170902400Y-104121400D01*
X170597600Y-104121400D01*
X170521400Y-104045200D01*
X170314371Y-104045200D01*
X170202344Y-104091603D01*
X170116603Y-104177345D01*
X170070200Y-104289372D01*
X169851600Y-104289372D01*
X169851600Y-103870000D01*
X171664229Y-103870000D01*
X171664229Y-104930000D01*
X171687885Y-105048927D01*
X171755252Y-105149748D01*
X171842801Y-105208247D01*
X171842801Y-105234802D01*
X171877603Y-105409765D01*
X171907695Y-105454800D01*
X171976712Y-105558090D01*
X172125038Y-105657199D01*
X172300001Y-105692001D01*
X172300002Y-105692001D01*
X174200000Y-105692000D01*
X174374963Y-105657198D01*
X174523289Y-105558089D01*
X174622398Y-105409763D01*
X174657200Y-105234800D01*
X174657200Y-105208246D01*
X174744748Y-105149748D01*
X174812115Y-105048927D01*
X174835771Y-104930000D01*
X174835771Y-103870000D01*
X174812115Y-103751073D01*
X174744748Y-103650252D01*
X174657200Y-103591754D01*
X174657200Y-103038698D01*
X174687115Y-102993927D01*
X174710771Y-102875000D01*
X174710771Y-102125000D01*
X174687115Y-102006073D01*
X174619748Y-101905252D01*
X174518927Y-101837885D01*
X174457200Y-101825607D01*
X174457200Y-101592435D01*
X174543938Y-101534478D01*
X174611305Y-101433657D01*
X174634961Y-101314730D01*
X174634961Y-99285270D01*
X174611305Y-99166343D01*
X174543938Y-99065522D01*
X174443117Y-98998155D01*
X174324190Y-98974499D01*
X173183730Y-98974499D01*
X173064803Y-98998155D01*
X172963982Y-99065522D01*
X172896615Y-99166343D01*
X172872959Y-99285270D01*
X172872959Y-101314730D01*
X172896615Y-101433657D01*
X172963982Y-101534478D01*
X173064803Y-101601845D01*
X173183730Y-101625501D01*
X173542800Y-101625501D01*
X173542800Y-101825607D01*
X173481073Y-101837885D01*
X173380252Y-101905252D01*
X173312885Y-102006073D01*
X173289229Y-102125000D01*
X173289229Y-102875000D01*
X173312885Y-102993927D01*
X173380252Y-103094748D01*
X173481073Y-103162115D01*
X173600000Y-103185771D01*
X173742800Y-103185771D01*
X173742800Y-103591754D01*
X173726320Y-103602765D01*
X173635629Y-103565200D01*
X173478600Y-103565200D01*
X173402400Y-103641400D01*
X173402400Y-104247600D01*
X173422400Y-104247600D01*
X173422400Y-104552400D01*
X173402400Y-104552400D01*
X173402400Y-104572400D01*
X173097600Y-104572400D01*
X173097600Y-104552400D01*
X173077600Y-104552400D01*
X173077600Y-104247600D01*
X173097600Y-104247600D01*
X173097600Y-103641400D01*
X173021400Y-103565200D01*
X172864371Y-103565200D01*
X172773680Y-103602765D01*
X172743927Y-103582885D01*
X172625000Y-103559229D01*
X171975000Y-103559229D01*
X171856073Y-103582885D01*
X171755252Y-103650252D01*
X171687885Y-103751073D01*
X171664229Y-103870000D01*
X169851600Y-103870000D01*
X169851600Y-102728600D01*
X171795200Y-102728600D01*
X171795200Y-102935629D01*
X171841603Y-103047656D01*
X171927345Y-103133397D01*
X172039372Y-103179800D01*
X172271400Y-103179800D01*
X172347600Y-103103600D01*
X172347600Y-102652400D01*
X172652400Y-102652400D01*
X172652400Y-103103600D01*
X172728600Y-103179800D01*
X172960628Y-103179800D01*
X173072655Y-103133397D01*
X173158397Y-103047656D01*
X173204800Y-102935629D01*
X173204800Y-102728600D01*
X173128600Y-102652400D01*
X172652400Y-102652400D01*
X172347600Y-102652400D01*
X171871400Y-102652400D01*
X171795200Y-102728600D01*
X169851600Y-102728600D01*
X169851600Y-102064371D01*
X171795200Y-102064371D01*
X171795200Y-102271400D01*
X171871400Y-102347600D01*
X172347600Y-102347600D01*
X172347600Y-101896400D01*
X172652400Y-101896400D01*
X172652400Y-102347600D01*
X173128600Y-102347600D01*
X173204800Y-102271400D01*
X173204800Y-102064371D01*
X173158397Y-101952344D01*
X173072655Y-101866603D01*
X172960628Y-101820200D01*
X172728600Y-101820200D01*
X172652400Y-101896400D01*
X172347600Y-101896400D01*
X172271400Y-101820200D01*
X172039372Y-101820200D01*
X171927345Y-101866603D01*
X171841603Y-101952344D01*
X171795200Y-102064371D01*
X169851600Y-102064371D01*
X169851600Y-99300084D01*
X169866414Y-99285270D01*
X170465039Y-99285270D01*
X170465039Y-101314730D01*
X170488695Y-101433657D01*
X170556062Y-101534478D01*
X170656883Y-101601845D01*
X170775810Y-101625501D01*
X171916270Y-101625501D01*
X172035197Y-101601845D01*
X172136018Y-101534478D01*
X172203385Y-101433657D01*
X172227041Y-101314730D01*
X172227041Y-99285270D01*
X172203385Y-99166343D01*
X172136018Y-99065522D01*
X172035197Y-98998155D01*
X171916270Y-98974499D01*
X170775810Y-98974499D01*
X170656883Y-98998155D01*
X170556062Y-99065522D01*
X170488695Y-99166343D01*
X170465039Y-99285270D01*
X169866414Y-99285270D01*
X170300084Y-98851600D01*
X174449916Y-98851600D01*
X174898400Y-99300084D01*
X174898400Y-99300084D01*
G37*
X174898400Y-99300084D02*
X174898400Y-110949916D01*
X174449916Y-111398400D01*
X170300084Y-111398400D01*
X169851600Y-110949916D01*
X169851600Y-108860967D01*
X170237071Y-108860967D01*
X170360552Y-109159813D01*
X170588996Y-109388657D01*
X170887627Y-109512659D01*
X171210979Y-109512941D01*
X171509825Y-109389460D01*
X171738669Y-109161016D01*
X171811319Y-108986055D01*
X171812885Y-108993927D01*
X171880252Y-109094748D01*
X171981073Y-109162115D01*
X172042800Y-109174393D01*
X172042800Y-109825607D01*
X171981073Y-109837885D01*
X171880252Y-109905252D01*
X171812885Y-110006073D01*
X171789229Y-110125000D01*
X171789229Y-110875000D01*
X171812885Y-110993927D01*
X171880252Y-111094748D01*
X171981073Y-111162115D01*
X172100000Y-111185771D01*
X172900000Y-111185771D01*
X173018927Y-111162115D01*
X173119748Y-111094748D01*
X173187115Y-110993927D01*
X173210771Y-110875000D01*
X173210771Y-110728600D01*
X173295200Y-110728600D01*
X173295200Y-110935629D01*
X173341603Y-111047656D01*
X173427345Y-111133397D01*
X173539372Y-111179800D01*
X173771400Y-111179800D01*
X173847600Y-111103600D01*
X173847600Y-110652400D01*
X174152400Y-110652400D01*
X174152400Y-111103600D01*
X174228600Y-111179800D01*
X174460628Y-111179800D01*
X174572655Y-111133397D01*
X174658397Y-111047656D01*
X174704800Y-110935629D01*
X174704800Y-110728600D01*
X174628600Y-110652400D01*
X174152400Y-110652400D01*
X173847600Y-110652400D01*
X173371400Y-110652400D01*
X173295200Y-110728600D01*
X173210771Y-110728600D01*
X173210771Y-110125000D01*
X173198712Y-110064371D01*
X173295200Y-110064371D01*
X173295200Y-110271400D01*
X173371400Y-110347600D01*
X173847600Y-110347600D01*
X173847600Y-109896400D01*
X174152400Y-109896400D01*
X174152400Y-110347600D01*
X174628600Y-110347600D01*
X174704800Y-110271400D01*
X174704800Y-110064371D01*
X174658397Y-109952344D01*
X174572655Y-109866603D01*
X174460628Y-109820200D01*
X174228600Y-109820200D01*
X174152400Y-109896400D01*
X173847600Y-109896400D01*
X173771400Y-109820200D01*
X173539372Y-109820200D01*
X173427345Y-109866603D01*
X173341603Y-109952344D01*
X173295200Y-110064371D01*
X173198712Y-110064371D01*
X173187115Y-110006073D01*
X173119748Y-109905252D01*
X173018927Y-109837885D01*
X172957200Y-109825607D01*
X172957200Y-109174393D01*
X173018927Y-109162115D01*
X173119748Y-109094748D01*
X173187115Y-108993927D01*
X173210771Y-108875000D01*
X173210771Y-108728600D01*
X173295200Y-108728600D01*
X173295200Y-108935629D01*
X173341603Y-109047656D01*
X173427345Y-109133397D01*
X173539372Y-109179800D01*
X173771400Y-109179800D01*
X173847600Y-109103600D01*
X173847600Y-108652400D01*
X174152400Y-108652400D01*
X174152400Y-109103600D01*
X174228600Y-109179800D01*
X174460628Y-109179800D01*
X174572655Y-109133397D01*
X174658397Y-109047656D01*
X174704800Y-108935629D01*
X174704800Y-108728600D01*
X174628600Y-108652400D01*
X174152400Y-108652400D01*
X173847600Y-108652400D01*
X173371400Y-108652400D01*
X173295200Y-108728600D01*
X173210771Y-108728600D01*
X173210771Y-108435807D01*
X173335189Y-108311389D01*
X173371400Y-108347600D01*
X173847600Y-108347600D01*
X173847600Y-107896400D01*
X174152400Y-107896400D01*
X174152400Y-108347600D01*
X174628600Y-108347600D01*
X174704800Y-108271400D01*
X174704800Y-108064371D01*
X174658397Y-107952344D01*
X174572655Y-107866603D01*
X174460628Y-107820200D01*
X174228600Y-107820200D01*
X174152400Y-107896400D01*
X173847600Y-107896400D01*
X173798889Y-107847689D01*
X174205807Y-107440771D01*
X174525000Y-107440771D01*
X174643927Y-107417115D01*
X174744748Y-107349748D01*
X174812115Y-107248927D01*
X174835771Y-107130000D01*
X174835771Y-106070000D01*
X174812115Y-105951073D01*
X174744748Y-105850252D01*
X174643927Y-105782885D01*
X174525000Y-105759229D01*
X173875000Y-105759229D01*
X173756073Y-105782885D01*
X173655252Y-105850252D01*
X173587885Y-105951073D01*
X173564229Y-106070000D01*
X173564229Y-106789193D01*
X172539193Y-107814229D01*
X172100000Y-107814229D01*
X171981073Y-107837885D01*
X171880252Y-107905252D01*
X171812885Y-108006073D01*
X171805580Y-108042800D01*
X171542430Y-108042800D01*
X171511028Y-108011343D01*
X171212397Y-107887341D01*
X170889045Y-107887059D01*
X170590199Y-108010540D01*
X170361355Y-108238984D01*
X170237353Y-108537615D01*
X170237071Y-108860967D01*
X169851600Y-108860967D01*
X169851600Y-105850000D01*
X170064229Y-105850000D01*
X170064229Y-106650000D01*
X170087885Y-106768927D01*
X170155252Y-106869748D01*
X170256073Y-106937115D01*
X170375000Y-106960771D01*
X171125000Y-106960771D01*
X171243927Y-106937115D01*
X171344748Y-106869748D01*
X171412115Y-106768927D01*
X171424393Y-106707200D01*
X171664229Y-106707200D01*
X171664229Y-107130000D01*
X171687885Y-107248927D01*
X171755252Y-107349748D01*
X171856073Y-107417115D01*
X171975000Y-107440771D01*
X172625000Y-107440771D01*
X172743927Y-107417115D01*
X172844748Y-107349748D01*
X172912115Y-107248927D01*
X172935771Y-107130000D01*
X172935771Y-106070000D01*
X172912115Y-105951073D01*
X172844748Y-105850252D01*
X172743927Y-105782885D01*
X172625000Y-105759229D01*
X171975000Y-105759229D01*
X171856073Y-105782885D01*
X171841234Y-105792800D01*
X171424393Y-105792800D01*
X171412115Y-105731073D01*
X171344748Y-105630252D01*
X171243927Y-105562885D01*
X171125000Y-105539229D01*
X170375000Y-105539229D01*
X170256073Y-105562885D01*
X170155252Y-105630252D01*
X170087885Y-105731073D01*
X170064229Y-105850000D01*
X169851600Y-105850000D01*
X169851600Y-104978600D01*
X170070200Y-104978600D01*
X170070200Y-105210628D01*
X170116603Y-105322655D01*
X170202344Y-105408397D01*
X170314371Y-105454800D01*
X170521400Y-105454800D01*
X170597600Y-105378600D01*
X170597600Y-104902400D01*
X170902400Y-104902400D01*
X170902400Y-105378600D01*
X170978600Y-105454800D01*
X171185629Y-105454800D01*
X171297656Y-105408397D01*
X171383397Y-105322655D01*
X171429800Y-105210628D01*
X171429800Y-104978600D01*
X171353600Y-104902400D01*
X170902400Y-104902400D01*
X170597600Y-104902400D01*
X170146400Y-104902400D01*
X170070200Y-104978600D01*
X169851600Y-104978600D01*
X169851600Y-104289372D01*
X170070200Y-104289372D01*
X170070200Y-104521400D01*
X170146400Y-104597600D01*
X170597600Y-104597600D01*
X170597600Y-104121400D01*
X170902400Y-104121400D01*
X170902400Y-104597600D01*
X171353600Y-104597600D01*
X171429800Y-104521400D01*
X171429800Y-104289372D01*
X171383397Y-104177345D01*
X171297656Y-104091603D01*
X171185629Y-104045200D01*
X170978600Y-104045200D01*
X170902400Y-104121400D01*
X170597600Y-104121400D01*
X170521400Y-104045200D01*
X170314371Y-104045200D01*
X170202344Y-104091603D01*
X170116603Y-104177345D01*
X170070200Y-104289372D01*
X169851600Y-104289372D01*
X169851600Y-103870000D01*
X171664229Y-103870000D01*
X171664229Y-104930000D01*
X171687885Y-105048927D01*
X171755252Y-105149748D01*
X171842801Y-105208247D01*
X171842801Y-105234802D01*
X171877603Y-105409765D01*
X171907695Y-105454800D01*
X171976712Y-105558090D01*
X172125038Y-105657199D01*
X172300001Y-105692001D01*
X172300002Y-105692001D01*
X174200000Y-105692000D01*
X174374963Y-105657198D01*
X174523289Y-105558089D01*
X174622398Y-105409763D01*
X174657200Y-105234800D01*
X174657200Y-105208246D01*
X174744748Y-105149748D01*
X174812115Y-105048927D01*
X174835771Y-104930000D01*
X174835771Y-103870000D01*
X174812115Y-103751073D01*
X174744748Y-103650252D01*
X174657200Y-103591754D01*
X174657200Y-103038698D01*
X174687115Y-102993927D01*
X174710771Y-102875000D01*
X174710771Y-102125000D01*
X174687115Y-102006073D01*
X174619748Y-101905252D01*
X174518927Y-101837885D01*
X174457200Y-101825607D01*
X174457200Y-101592435D01*
X174543938Y-101534478D01*
X174611305Y-101433657D01*
X174634961Y-101314730D01*
X174634961Y-99285270D01*
X174611305Y-99166343D01*
X174543938Y-99065522D01*
X174443117Y-98998155D01*
X174324190Y-98974499D01*
X173183730Y-98974499D01*
X173064803Y-98998155D01*
X172963982Y-99065522D01*
X172896615Y-99166343D01*
X172872959Y-99285270D01*
X172872959Y-101314730D01*
X172896615Y-101433657D01*
X172963982Y-101534478D01*
X173064803Y-101601845D01*
X173183730Y-101625501D01*
X173542800Y-101625501D01*
X173542800Y-101825607D01*
X173481073Y-101837885D01*
X173380252Y-101905252D01*
X173312885Y-102006073D01*
X173289229Y-102125000D01*
X173289229Y-102875000D01*
X173312885Y-102993927D01*
X173380252Y-103094748D01*
X173481073Y-103162115D01*
X173600000Y-103185771D01*
X173742800Y-103185771D01*
X173742800Y-103591754D01*
X173726320Y-103602765D01*
X173635629Y-103565200D01*
X173478600Y-103565200D01*
X173402400Y-103641400D01*
X173402400Y-104247600D01*
X173422400Y-104247600D01*
X173422400Y-104552400D01*
X173402400Y-104552400D01*
X173402400Y-104572400D01*
X173097600Y-104572400D01*
X173097600Y-104552400D01*
X173077600Y-104552400D01*
X173077600Y-104247600D01*
X173097600Y-104247600D01*
X173097600Y-103641400D01*
X173021400Y-103565200D01*
X172864371Y-103565200D01*
X172773680Y-103602765D01*
X172743927Y-103582885D01*
X172625000Y-103559229D01*
X171975000Y-103559229D01*
X171856073Y-103582885D01*
X171755252Y-103650252D01*
X171687885Y-103751073D01*
X171664229Y-103870000D01*
X169851600Y-103870000D01*
X169851600Y-102728600D01*
X171795200Y-102728600D01*
X171795200Y-102935629D01*
X171841603Y-103047656D01*
X171927345Y-103133397D01*
X172039372Y-103179800D01*
X172271400Y-103179800D01*
X172347600Y-103103600D01*
X172347600Y-102652400D01*
X172652400Y-102652400D01*
X172652400Y-103103600D01*
X172728600Y-103179800D01*
X172960628Y-103179800D01*
X173072655Y-103133397D01*
X173158397Y-103047656D01*
X173204800Y-102935629D01*
X173204800Y-102728600D01*
X173128600Y-102652400D01*
X172652400Y-102652400D01*
X172347600Y-102652400D01*
X171871400Y-102652400D01*
X171795200Y-102728600D01*
X169851600Y-102728600D01*
X169851600Y-102064371D01*
X171795200Y-102064371D01*
X171795200Y-102271400D01*
X171871400Y-102347600D01*
X172347600Y-102347600D01*
X172347600Y-101896400D01*
X172652400Y-101896400D01*
X172652400Y-102347600D01*
X173128600Y-102347600D01*
X173204800Y-102271400D01*
X173204800Y-102064371D01*
X173158397Y-101952344D01*
X173072655Y-101866603D01*
X172960628Y-101820200D01*
X172728600Y-101820200D01*
X172652400Y-101896400D01*
X172347600Y-101896400D01*
X172271400Y-101820200D01*
X172039372Y-101820200D01*
X171927345Y-101866603D01*
X171841603Y-101952344D01*
X171795200Y-102064371D01*
X169851600Y-102064371D01*
X169851600Y-99300084D01*
X169866414Y-99285270D01*
X170465039Y-99285270D01*
X170465039Y-101314730D01*
X170488695Y-101433657D01*
X170556062Y-101534478D01*
X170656883Y-101601845D01*
X170775810Y-101625501D01*
X171916270Y-101625501D01*
X172035197Y-101601845D01*
X172136018Y-101534478D01*
X172203385Y-101433657D01*
X172227041Y-101314730D01*
X172227041Y-99285270D01*
X172203385Y-99166343D01*
X172136018Y-99065522D01*
X172035197Y-98998155D01*
X171916270Y-98974499D01*
X170775810Y-98974499D01*
X170656883Y-98998155D01*
X170556062Y-99065522D01*
X170488695Y-99166343D01*
X170465039Y-99285270D01*
X169866414Y-99285270D01*
X170300084Y-98851600D01*
X174449916Y-98851600D01*
X174898400Y-99300084D01*
D29*
G36*
X176879320Y-94319611D02*
X176321569Y-94876389D01*
X176019345Y-95604226D01*
X176018657Y-96392316D01*
X176319611Y-97120680D01*
X176876389Y-97678431D01*
X177604226Y-97980655D01*
X178392316Y-97981343D01*
X179120680Y-97680389D01*
X179544000Y-97257807D01*
X179544000Y-130742693D01*
X179123611Y-130321569D01*
X178395774Y-130019345D01*
X177607684Y-130018657D01*
X176879320Y-130319611D01*
X176321569Y-130876389D01*
X176019345Y-131604226D01*
X176018657Y-132392316D01*
X176319611Y-133120680D01*
X176876389Y-133678431D01*
X177344964Y-133873000D01*
X142654526Y-133873000D01*
X143120680Y-133680389D01*
X143678431Y-133123611D01*
X143980655Y-132395774D01*
X143981343Y-131607684D01*
X143680389Y-130879320D01*
X143123611Y-130321569D01*
X142395774Y-130019345D01*
X141607684Y-130018657D01*
X140879320Y-130319611D01*
X140456000Y-130742193D01*
X140456000Y-98000000D01*
X143873000Y-98000000D01*
X143873000Y-130000000D01*
X143882667Y-130048601D01*
X143910197Y-130089803D01*
X143951399Y-130117333D01*
X144000000Y-130127000D01*
X176000000Y-130127000D01*
X176048601Y-130117333D01*
X176089803Y-130089803D01*
X176117333Y-130048601D01*
X176127000Y-130000000D01*
X176127000Y-98000000D01*
X176117333Y-97951399D01*
X176089803Y-97910197D01*
X176048601Y-97882667D01*
X176000000Y-97873000D01*
X144000000Y-97873000D01*
X143951399Y-97882667D01*
X143910197Y-97910197D01*
X143882667Y-97951399D01*
X143873000Y-98000000D01*
X140456000Y-98000000D01*
X140456000Y-97257307D01*
X140876389Y-97678431D01*
X141604226Y-97980655D01*
X142392316Y-97981343D01*
X143120680Y-97680389D01*
X143678431Y-97123611D01*
X143980655Y-96395774D01*
X143981343Y-95607684D01*
X143680389Y-94879320D01*
X143123611Y-94321569D01*
X142655036Y-94127000D01*
X177345474Y-94127000D01*
X176879320Y-94319611D01*
X176879320Y-94319611D01*
G37*
X176879320Y-94319611D02*
X176321569Y-94876389D01*
X176019345Y-95604226D01*
X176018657Y-96392316D01*
X176319611Y-97120680D01*
X176876389Y-97678431D01*
X177604226Y-97980655D01*
X178392316Y-97981343D01*
X179120680Y-97680389D01*
X179544000Y-97257807D01*
X179544000Y-130742693D01*
X179123611Y-130321569D01*
X178395774Y-130019345D01*
X177607684Y-130018657D01*
X176879320Y-130319611D01*
X176321569Y-130876389D01*
X176019345Y-131604226D01*
X176018657Y-132392316D01*
X176319611Y-133120680D01*
X176876389Y-133678431D01*
X177344964Y-133873000D01*
X142654526Y-133873000D01*
X143120680Y-133680389D01*
X143678431Y-133123611D01*
X143980655Y-132395774D01*
X143981343Y-131607684D01*
X143680389Y-130879320D01*
X143123611Y-130321569D01*
X142395774Y-130019345D01*
X141607684Y-130018657D01*
X140879320Y-130319611D01*
X140456000Y-130742193D01*
X140456000Y-98000000D01*
X143873000Y-98000000D01*
X143873000Y-130000000D01*
X143882667Y-130048601D01*
X143910197Y-130089803D01*
X143951399Y-130117333D01*
X144000000Y-130127000D01*
X176000000Y-130127000D01*
X176048601Y-130117333D01*
X176089803Y-130089803D01*
X176117333Y-130048601D01*
X176127000Y-130000000D01*
X176127000Y-98000000D01*
X176117333Y-97951399D01*
X176089803Y-97910197D01*
X176048601Y-97882667D01*
X176000000Y-97873000D01*
X144000000Y-97873000D01*
X143951399Y-97882667D01*
X143910197Y-97910197D01*
X143882667Y-97951399D01*
X143873000Y-98000000D01*
X140456000Y-98000000D01*
X140456000Y-97257307D01*
X140876389Y-97678431D01*
X141604226Y-97980655D01*
X142392316Y-97981343D01*
X143120680Y-97680389D01*
X143678431Y-97123611D01*
X143980655Y-96395774D01*
X143981343Y-95607684D01*
X143680389Y-94879320D01*
X143123611Y-94321569D01*
X142655036Y-94127000D01*
X177345474Y-94127000D01*
X176879320Y-94319611D01*
M02*
