G04 #@! TF.FileFunction,Copper,L3,Inr,Plane*
%FSLAX46Y46*%
G04 Gerber Fmt 4.6, Leading zero omitted, Abs format (unit mm)*
G04 Created by KiCad (PCBNEW (2016-04-26 BZR 6712)-product) date Friday, 13 May 2016 'amt' 09:44:12*
%MOMM*%
%LPD*%
G01*
G04 APERTURE LIST*
%ADD10C,0.100000*%
%ADD11R,2.032000X1.727200*%
%ADD12O,2.032000X1.727200*%
%ADD13C,0.685800*%
%ADD14C,2.540000*%
%ADD15C,1.500000*%
%ADD16R,2.800000X3.000000*%
%ADD17C,1.016000*%
%ADD18C,0.254000*%
G04 APERTURE END LIST*
D10*
D11*
X190000000Y-96380000D03*
D12*
X190000000Y-98920000D03*
X190000000Y-101460000D03*
X190000000Y-104000000D03*
X190000000Y-106540000D03*
X190000000Y-109080000D03*
X190000000Y-111620000D03*
X190000000Y-114160000D03*
D13*
X141000000Y-99000000D03*
X146900000Y-108900000D03*
X152600000Y-108400000D03*
X152900000Y-104600000D03*
X150600000Y-106200000D03*
X146900000Y-103200000D03*
D14*
X147000000Y-140000000D03*
X150469705Y-140929705D03*
X146070295Y-143469705D03*
X143530295Y-139070295D03*
X147929705Y-136530295D03*
X155000000Y-146000000D03*
X158255550Y-144481912D03*
X156518088Y-149255550D03*
X151744450Y-147518088D03*
X153481912Y-142744450D03*
X165000000Y-146000000D03*
X166518088Y-142744450D03*
X168255550Y-147518088D03*
X163481912Y-149255550D03*
X161744450Y-144481912D03*
X173000000Y-140000000D03*
X172070295Y-136530295D03*
X176469705Y-139070295D03*
X173929705Y-143469705D03*
X169530295Y-140929705D03*
D15*
X152040000Y-90000000D03*
X149500000Y-90000000D03*
X154580000Y-90000000D03*
D16*
X157090000Y-86170000D03*
X146990000Y-86170000D03*
D15*
X168000000Y-90000000D03*
X165460000Y-90000000D03*
X170540000Y-90000000D03*
D16*
X173050000Y-86170000D03*
X162950000Y-86170000D03*
D13*
X147100000Y-106100000D03*
D17*
X164000000Y-125000000D03*
X156000000Y-125000000D03*
X158600006Y-106600000D03*
X162800000Y-108000000D03*
X171050000Y-102500000D03*
X145300000Y-100500000D03*
X161700000Y-112500000D03*
X148500000Y-110700000D03*
X171050012Y-108700000D03*
X151000000Y-99500000D03*
X157100000Y-106600000D03*
X162200000Y-106700000D03*
X162700000Y-110400000D03*
X145500000Y-110500000D03*
X156000000Y-127000000D03*
X164000000Y-127000000D03*
X148500000Y-112300000D03*
D13*
X153500000Y-109500000D03*
X166000000Y-109000000D03*
X164499995Y-104676423D03*
X164500000Y-103000008D03*
X163500000Y-103000006D03*
X162500000Y-103000000D03*
X164499988Y-103838212D03*
D18*
G36*
X177352812Y-83734024D02*
X178499669Y-84500331D01*
X179265976Y-85647188D01*
X179544000Y-87044911D01*
X179544000Y-94742693D01*
X179123611Y-94321569D01*
X178395774Y-94019345D01*
X177607684Y-94018657D01*
X176879320Y-94319611D01*
X176321569Y-94876389D01*
X176019345Y-95604226D01*
X176018657Y-96392316D01*
X176319611Y-97120680D01*
X176876389Y-97678431D01*
X177604226Y-97980655D01*
X178392316Y-97981343D01*
X179120680Y-97680389D01*
X179544000Y-97257807D01*
X179544000Y-110873000D01*
X149388850Y-110873000D01*
X149389154Y-110523943D01*
X149254097Y-110197080D01*
X149004236Y-109946782D01*
X148677609Y-109811154D01*
X148323943Y-109810846D01*
X147997080Y-109945903D01*
X147746782Y-110195764D01*
X147611154Y-110522391D01*
X147610849Y-110873000D01*
X140456000Y-110873000D01*
X140456000Y-109043361D01*
X146175975Y-109043361D01*
X146285950Y-109309521D01*
X146489408Y-109513335D01*
X146755376Y-109623774D01*
X147043361Y-109624025D01*
X147309521Y-109514050D01*
X147513335Y-109310592D01*
X147623774Y-109044624D01*
X147624025Y-108756639D01*
X147535901Y-108543361D01*
X151875975Y-108543361D01*
X151985950Y-108809521D01*
X152189408Y-109013335D01*
X152455376Y-109123774D01*
X152743361Y-109124025D01*
X152928703Y-109047443D01*
X152886665Y-109089408D01*
X152776226Y-109355376D01*
X152775975Y-109643361D01*
X152885950Y-109909521D01*
X153089408Y-110113335D01*
X153355376Y-110223774D01*
X153643361Y-110224025D01*
X153909521Y-110114050D01*
X154113335Y-109910592D01*
X154223774Y-109644624D01*
X154224025Y-109356639D01*
X154135901Y-109143361D01*
X165275975Y-109143361D01*
X165385950Y-109409521D01*
X165589408Y-109613335D01*
X165855376Y-109723774D01*
X166143361Y-109724025D01*
X166409521Y-109614050D01*
X166613335Y-109410592D01*
X166723774Y-109144624D01*
X166724025Y-108856639D01*
X166614050Y-108590479D01*
X166410592Y-108386665D01*
X166144624Y-108276226D01*
X165856639Y-108275975D01*
X165590479Y-108385950D01*
X165386665Y-108589408D01*
X165276226Y-108855376D01*
X165275975Y-109143361D01*
X154135901Y-109143361D01*
X154114050Y-109090479D01*
X153910592Y-108886665D01*
X153644624Y-108776226D01*
X153356639Y-108775975D01*
X153171297Y-108852557D01*
X153213335Y-108810592D01*
X153323774Y-108544624D01*
X153324025Y-108256639D01*
X153290730Y-108176057D01*
X161910846Y-108176057D01*
X162045903Y-108502920D01*
X162295764Y-108753218D01*
X162622391Y-108888846D01*
X162976057Y-108889154D01*
X163302920Y-108754097D01*
X163553218Y-108504236D01*
X163688846Y-108177609D01*
X163689154Y-107823943D01*
X163554097Y-107497080D01*
X163304236Y-107246782D01*
X162977609Y-107111154D01*
X162623943Y-107110846D01*
X162297080Y-107245903D01*
X162046782Y-107495764D01*
X161911154Y-107822391D01*
X161910846Y-108176057D01*
X153290730Y-108176057D01*
X153214050Y-107990479D01*
X153010592Y-107786665D01*
X152744624Y-107676226D01*
X152456639Y-107675975D01*
X152190479Y-107785950D01*
X151986665Y-107989408D01*
X151876226Y-108255376D01*
X151875975Y-108543361D01*
X147535901Y-108543361D01*
X147514050Y-108490479D01*
X147310592Y-108286665D01*
X147044624Y-108176226D01*
X146756639Y-108175975D01*
X146490479Y-108285950D01*
X146286665Y-108489408D01*
X146176226Y-108755376D01*
X146175975Y-109043361D01*
X140456000Y-109043361D01*
X140456000Y-106243361D01*
X146375975Y-106243361D01*
X146485950Y-106509521D01*
X146689408Y-106713335D01*
X146955376Y-106823774D01*
X147243361Y-106824025D01*
X147509521Y-106714050D01*
X147713335Y-106510592D01*
X147782775Y-106343361D01*
X149875975Y-106343361D01*
X149985950Y-106609521D01*
X150189408Y-106813335D01*
X150455376Y-106923774D01*
X150743361Y-106924025D01*
X151009521Y-106814050D01*
X151047580Y-106776057D01*
X157710852Y-106776057D01*
X157845909Y-107102920D01*
X158095770Y-107353218D01*
X158422397Y-107488846D01*
X158776063Y-107489154D01*
X159102926Y-107354097D01*
X159353224Y-107104236D01*
X159488852Y-106777609D01*
X159489160Y-106423943D01*
X159354103Y-106097080D01*
X159104242Y-105846782D01*
X158777615Y-105711154D01*
X158423949Y-105710846D01*
X158097086Y-105845903D01*
X157846788Y-106095764D01*
X157711160Y-106422391D01*
X157710852Y-106776057D01*
X151047580Y-106776057D01*
X151213335Y-106610592D01*
X151323774Y-106344624D01*
X151324025Y-106056639D01*
X151214050Y-105790479D01*
X151010592Y-105586665D01*
X150744624Y-105476226D01*
X150456639Y-105475975D01*
X150190479Y-105585950D01*
X149986665Y-105789408D01*
X149876226Y-106055376D01*
X149875975Y-106343361D01*
X147782775Y-106343361D01*
X147823774Y-106244624D01*
X147824025Y-105956639D01*
X147714050Y-105690479D01*
X147510592Y-105486665D01*
X147244624Y-105376226D01*
X146956639Y-105375975D01*
X146690479Y-105485950D01*
X146486665Y-105689408D01*
X146376226Y-105955376D01*
X146375975Y-106243361D01*
X140456000Y-106243361D01*
X140456000Y-104743361D01*
X152175975Y-104743361D01*
X152285950Y-105009521D01*
X152489408Y-105213335D01*
X152755376Y-105323774D01*
X153043361Y-105324025D01*
X153309521Y-105214050D01*
X153513335Y-105010592D01*
X153623774Y-104744624D01*
X153624025Y-104456639D01*
X153514050Y-104190479D01*
X153310592Y-103986665D01*
X153044624Y-103876226D01*
X152756639Y-103875975D01*
X152490479Y-103985950D01*
X152286665Y-104189408D01*
X152176226Y-104455376D01*
X152175975Y-104743361D01*
X140456000Y-104743361D01*
X140456000Y-103343361D01*
X146175975Y-103343361D01*
X146285950Y-103609521D01*
X146489408Y-103813335D01*
X146755376Y-103923774D01*
X147043361Y-103924025D01*
X147309521Y-103814050D01*
X147513335Y-103610592D01*
X147623774Y-103344624D01*
X147623949Y-103143361D01*
X161775975Y-103143361D01*
X161885950Y-103409521D01*
X162089408Y-103613335D01*
X162355376Y-103723774D01*
X162643361Y-103724025D01*
X162909521Y-103614050D01*
X162999976Y-103523753D01*
X163089408Y-103613341D01*
X163355376Y-103723780D01*
X163643361Y-103724031D01*
X163788469Y-103664073D01*
X163776214Y-103693588D01*
X163775963Y-103981573D01*
X163885938Y-104247733D01*
X163895347Y-104257159D01*
X163886660Y-104265831D01*
X163776221Y-104531799D01*
X163775970Y-104819784D01*
X163885945Y-105085944D01*
X164089403Y-105289758D01*
X164355371Y-105400197D01*
X164643356Y-105400448D01*
X164909516Y-105290473D01*
X165113330Y-105087015D01*
X165223769Y-104821047D01*
X165224020Y-104533062D01*
X165114045Y-104266902D01*
X165104636Y-104257476D01*
X165113323Y-104248804D01*
X165223762Y-103982836D01*
X165224013Y-103694851D01*
X165114038Y-103428691D01*
X165104642Y-103419278D01*
X165113335Y-103410600D01*
X165223774Y-103144632D01*
X165224025Y-102856647D01*
X165149407Y-102676057D01*
X170160846Y-102676057D01*
X170295903Y-103002920D01*
X170545764Y-103253218D01*
X170872391Y-103388846D01*
X171226057Y-103389154D01*
X171552920Y-103254097D01*
X171803218Y-103004236D01*
X171938846Y-102677609D01*
X171939154Y-102323943D01*
X171804097Y-101997080D01*
X171554236Y-101746782D01*
X171227609Y-101611154D01*
X170873943Y-101610846D01*
X170547080Y-101745903D01*
X170296782Y-101995764D01*
X170161154Y-102322391D01*
X170160846Y-102676057D01*
X165149407Y-102676057D01*
X165114050Y-102590487D01*
X164910592Y-102386673D01*
X164644624Y-102276234D01*
X164356639Y-102275983D01*
X164090479Y-102385958D01*
X164000022Y-102476257D01*
X163910592Y-102386671D01*
X163644624Y-102276232D01*
X163356639Y-102275981D01*
X163090479Y-102385956D01*
X163000024Y-102476253D01*
X162910592Y-102386665D01*
X162644624Y-102276226D01*
X162356639Y-102275975D01*
X162090479Y-102385950D01*
X161886665Y-102589408D01*
X161776226Y-102855376D01*
X161775975Y-103143361D01*
X147623949Y-103143361D01*
X147624025Y-103056639D01*
X147514050Y-102790479D01*
X147310592Y-102586665D01*
X147044624Y-102476226D01*
X146756639Y-102475975D01*
X146490479Y-102585950D01*
X146286665Y-102789408D01*
X146176226Y-103055376D01*
X146175975Y-103343361D01*
X140456000Y-103343361D01*
X140456000Y-100676057D01*
X144410846Y-100676057D01*
X144545903Y-101002920D01*
X144795764Y-101253218D01*
X145122391Y-101388846D01*
X145476057Y-101389154D01*
X145802920Y-101254097D01*
X146053218Y-101004236D01*
X146188846Y-100677609D01*
X146189154Y-100323943D01*
X146054097Y-99997080D01*
X145804236Y-99746782D01*
X145477609Y-99611154D01*
X145123943Y-99610846D01*
X144797080Y-99745903D01*
X144546782Y-99995764D01*
X144411154Y-100322391D01*
X144410846Y-100676057D01*
X140456000Y-100676057D01*
X140456000Y-99479694D01*
X140589408Y-99613335D01*
X140855376Y-99723774D01*
X141143361Y-99724025D01*
X141409521Y-99614050D01*
X141613335Y-99410592D01*
X141723774Y-99144624D01*
X141724025Y-98856639D01*
X141614050Y-98590479D01*
X141410592Y-98386665D01*
X141144624Y-98276226D01*
X140856639Y-98275975D01*
X140590479Y-98385950D01*
X140456000Y-98520194D01*
X140456000Y-97257307D01*
X140876389Y-97678431D01*
X141604226Y-97980655D01*
X142392316Y-97981343D01*
X143120680Y-97680389D01*
X143678431Y-97123611D01*
X143980655Y-96395774D01*
X143981343Y-95607684D01*
X143680389Y-94879320D01*
X143123611Y-94321569D01*
X142395774Y-94019345D01*
X141607684Y-94018657D01*
X140879320Y-94319611D01*
X140456000Y-94742193D01*
X140456000Y-90223983D01*
X148368804Y-90223983D01*
X148540625Y-90639823D01*
X148858503Y-90958256D01*
X149274043Y-91130804D01*
X149723983Y-91131196D01*
X150139823Y-90959375D01*
X150458256Y-90641497D01*
X150630804Y-90225957D01*
X150630805Y-90223983D01*
X150908804Y-90223983D01*
X151080625Y-90639823D01*
X151398503Y-90958256D01*
X151814043Y-91130804D01*
X152263983Y-91131196D01*
X152679823Y-90959375D01*
X152806973Y-90832446D01*
X153927159Y-90832446D01*
X154009059Y-91001898D01*
X154435930Y-91144123D01*
X154884733Y-91112164D01*
X155150941Y-91001898D01*
X155232841Y-90832446D01*
X154580000Y-90179605D01*
X153927159Y-90832446D01*
X152806973Y-90832446D01*
X152998256Y-90641497D01*
X153170804Y-90225957D01*
X153171126Y-89855930D01*
X153435877Y-89855930D01*
X153467836Y-90304733D01*
X153578102Y-90570941D01*
X153747554Y-90652841D01*
X154400395Y-90000000D01*
X154759605Y-90000000D01*
X155412446Y-90652841D01*
X155581898Y-90570941D01*
X155697497Y-90223983D01*
X164328804Y-90223983D01*
X164500625Y-90639823D01*
X164818503Y-90958256D01*
X165234043Y-91130804D01*
X165683983Y-91131196D01*
X166099823Y-90959375D01*
X166226973Y-90832446D01*
X167347159Y-90832446D01*
X167429059Y-91001898D01*
X167855930Y-91144123D01*
X168304733Y-91112164D01*
X168570941Y-91001898D01*
X168652841Y-90832446D01*
X168000000Y-90179605D01*
X167347159Y-90832446D01*
X166226973Y-90832446D01*
X166418256Y-90641497D01*
X166590804Y-90225957D01*
X166591126Y-89855930D01*
X166855877Y-89855930D01*
X166887836Y-90304733D01*
X166998102Y-90570941D01*
X167167554Y-90652841D01*
X167820395Y-90000000D01*
X168179605Y-90000000D01*
X168832446Y-90652841D01*
X169001898Y-90570941D01*
X169117497Y-90223983D01*
X169408804Y-90223983D01*
X169580625Y-90639823D01*
X169898503Y-90958256D01*
X170314043Y-91130804D01*
X170763983Y-91131196D01*
X171179823Y-90959375D01*
X171498256Y-90641497D01*
X171670804Y-90225957D01*
X171671196Y-89776017D01*
X171499375Y-89360177D01*
X171181497Y-89041744D01*
X170765957Y-88869196D01*
X170316017Y-88868804D01*
X169900177Y-89040625D01*
X169581744Y-89358503D01*
X169409196Y-89774043D01*
X169408804Y-90223983D01*
X169117497Y-90223983D01*
X169144123Y-90144070D01*
X169112164Y-89695267D01*
X169001898Y-89429059D01*
X168832446Y-89347159D01*
X168179605Y-90000000D01*
X167820395Y-90000000D01*
X167167554Y-89347159D01*
X166998102Y-89429059D01*
X166855877Y-89855930D01*
X166591126Y-89855930D01*
X166591196Y-89776017D01*
X166419375Y-89360177D01*
X166227088Y-89167554D01*
X167347159Y-89167554D01*
X168000000Y-89820395D01*
X168652841Y-89167554D01*
X168570941Y-88998102D01*
X168144070Y-88855877D01*
X167695267Y-88887836D01*
X167429059Y-88998102D01*
X167347159Y-89167554D01*
X166227088Y-89167554D01*
X166101497Y-89041744D01*
X165685957Y-88869196D01*
X165236017Y-88868804D01*
X164820177Y-89040625D01*
X164501744Y-89358503D01*
X164329196Y-89774043D01*
X164328804Y-90223983D01*
X155697497Y-90223983D01*
X155724123Y-90144070D01*
X155692164Y-89695267D01*
X155581898Y-89429059D01*
X155412446Y-89347159D01*
X154759605Y-90000000D01*
X154400395Y-90000000D01*
X153747554Y-89347159D01*
X153578102Y-89429059D01*
X153435877Y-89855930D01*
X153171126Y-89855930D01*
X153171196Y-89776017D01*
X152999375Y-89360177D01*
X152807088Y-89167554D01*
X153927159Y-89167554D01*
X154580000Y-89820395D01*
X155232841Y-89167554D01*
X155150941Y-88998102D01*
X154724070Y-88855877D01*
X154275267Y-88887836D01*
X154009059Y-88998102D01*
X153927159Y-89167554D01*
X152807088Y-89167554D01*
X152681497Y-89041744D01*
X152265957Y-88869196D01*
X151816017Y-88868804D01*
X151400177Y-89040625D01*
X151081744Y-89358503D01*
X150909196Y-89774043D01*
X150908804Y-90223983D01*
X150630805Y-90223983D01*
X150631196Y-89776017D01*
X150459375Y-89360177D01*
X150141497Y-89041744D01*
X149725957Y-88869196D01*
X149276017Y-88868804D01*
X148860177Y-89040625D01*
X148541744Y-89358503D01*
X148369196Y-89774043D01*
X148368804Y-90223983D01*
X140456000Y-90223983D01*
X140456000Y-87044911D01*
X140734024Y-85647188D01*
X141386961Y-84670000D01*
X145201536Y-84670000D01*
X145201536Y-87670000D01*
X145231106Y-87818659D01*
X145315314Y-87944686D01*
X145441341Y-88028894D01*
X145590000Y-88058464D01*
X148390000Y-88058464D01*
X148538659Y-88028894D01*
X148664686Y-87944686D01*
X148748894Y-87818659D01*
X148778464Y-87670000D01*
X148778464Y-84670000D01*
X155301536Y-84670000D01*
X155301536Y-87670000D01*
X155331106Y-87818659D01*
X155415314Y-87944686D01*
X155541341Y-88028894D01*
X155690000Y-88058464D01*
X158490000Y-88058464D01*
X158638659Y-88028894D01*
X158764686Y-87944686D01*
X158848894Y-87818659D01*
X158878464Y-87670000D01*
X158878464Y-84670000D01*
X161161536Y-84670000D01*
X161161536Y-87670000D01*
X161191106Y-87818659D01*
X161275314Y-87944686D01*
X161401341Y-88028894D01*
X161550000Y-88058464D01*
X164350000Y-88058464D01*
X164498659Y-88028894D01*
X164624686Y-87944686D01*
X164708894Y-87818659D01*
X164738464Y-87670000D01*
X164738464Y-84670000D01*
X171261536Y-84670000D01*
X171261536Y-87670000D01*
X171291106Y-87818659D01*
X171375314Y-87944686D01*
X171501341Y-88028894D01*
X171650000Y-88058464D01*
X174450000Y-88058464D01*
X174598659Y-88028894D01*
X174724686Y-87944686D01*
X174808894Y-87818659D01*
X174838464Y-87670000D01*
X174838464Y-84670000D01*
X174808894Y-84521341D01*
X174724686Y-84395314D01*
X174598659Y-84311106D01*
X174450000Y-84281536D01*
X171650000Y-84281536D01*
X171501341Y-84311106D01*
X171375314Y-84395314D01*
X171291106Y-84521341D01*
X171261536Y-84670000D01*
X164738464Y-84670000D01*
X164708894Y-84521341D01*
X164624686Y-84395314D01*
X164498659Y-84311106D01*
X164350000Y-84281536D01*
X161550000Y-84281536D01*
X161401341Y-84311106D01*
X161275314Y-84395314D01*
X161191106Y-84521341D01*
X161161536Y-84670000D01*
X158878464Y-84670000D01*
X158848894Y-84521341D01*
X158764686Y-84395314D01*
X158638659Y-84311106D01*
X158490000Y-84281536D01*
X155690000Y-84281536D01*
X155541341Y-84311106D01*
X155415314Y-84395314D01*
X155331106Y-84521341D01*
X155301536Y-84670000D01*
X148778464Y-84670000D01*
X148748894Y-84521341D01*
X148664686Y-84395314D01*
X148538659Y-84311106D01*
X148390000Y-84281536D01*
X145590000Y-84281536D01*
X145441341Y-84311106D01*
X145315314Y-84395314D01*
X145231106Y-84521341D01*
X145201536Y-84670000D01*
X141386961Y-84670000D01*
X141500331Y-84500331D01*
X142647188Y-83734024D01*
X144044911Y-83456000D01*
X175955089Y-83456000D01*
X177352812Y-83734024D01*
X177352812Y-83734024D01*
G37*
X177352812Y-83734024D02*
X178499669Y-84500331D01*
X179265976Y-85647188D01*
X179544000Y-87044911D01*
X179544000Y-94742693D01*
X179123611Y-94321569D01*
X178395774Y-94019345D01*
X177607684Y-94018657D01*
X176879320Y-94319611D01*
X176321569Y-94876389D01*
X176019345Y-95604226D01*
X176018657Y-96392316D01*
X176319611Y-97120680D01*
X176876389Y-97678431D01*
X177604226Y-97980655D01*
X178392316Y-97981343D01*
X179120680Y-97680389D01*
X179544000Y-97257807D01*
X179544000Y-110873000D01*
X149388850Y-110873000D01*
X149389154Y-110523943D01*
X149254097Y-110197080D01*
X149004236Y-109946782D01*
X148677609Y-109811154D01*
X148323943Y-109810846D01*
X147997080Y-109945903D01*
X147746782Y-110195764D01*
X147611154Y-110522391D01*
X147610849Y-110873000D01*
X140456000Y-110873000D01*
X140456000Y-109043361D01*
X146175975Y-109043361D01*
X146285950Y-109309521D01*
X146489408Y-109513335D01*
X146755376Y-109623774D01*
X147043361Y-109624025D01*
X147309521Y-109514050D01*
X147513335Y-109310592D01*
X147623774Y-109044624D01*
X147624025Y-108756639D01*
X147535901Y-108543361D01*
X151875975Y-108543361D01*
X151985950Y-108809521D01*
X152189408Y-109013335D01*
X152455376Y-109123774D01*
X152743361Y-109124025D01*
X152928703Y-109047443D01*
X152886665Y-109089408D01*
X152776226Y-109355376D01*
X152775975Y-109643361D01*
X152885950Y-109909521D01*
X153089408Y-110113335D01*
X153355376Y-110223774D01*
X153643361Y-110224025D01*
X153909521Y-110114050D01*
X154113335Y-109910592D01*
X154223774Y-109644624D01*
X154224025Y-109356639D01*
X154135901Y-109143361D01*
X165275975Y-109143361D01*
X165385950Y-109409521D01*
X165589408Y-109613335D01*
X165855376Y-109723774D01*
X166143361Y-109724025D01*
X166409521Y-109614050D01*
X166613335Y-109410592D01*
X166723774Y-109144624D01*
X166724025Y-108856639D01*
X166614050Y-108590479D01*
X166410592Y-108386665D01*
X166144624Y-108276226D01*
X165856639Y-108275975D01*
X165590479Y-108385950D01*
X165386665Y-108589408D01*
X165276226Y-108855376D01*
X165275975Y-109143361D01*
X154135901Y-109143361D01*
X154114050Y-109090479D01*
X153910592Y-108886665D01*
X153644624Y-108776226D01*
X153356639Y-108775975D01*
X153171297Y-108852557D01*
X153213335Y-108810592D01*
X153323774Y-108544624D01*
X153324025Y-108256639D01*
X153290730Y-108176057D01*
X161910846Y-108176057D01*
X162045903Y-108502920D01*
X162295764Y-108753218D01*
X162622391Y-108888846D01*
X162976057Y-108889154D01*
X163302920Y-108754097D01*
X163553218Y-108504236D01*
X163688846Y-108177609D01*
X163689154Y-107823943D01*
X163554097Y-107497080D01*
X163304236Y-107246782D01*
X162977609Y-107111154D01*
X162623943Y-107110846D01*
X162297080Y-107245903D01*
X162046782Y-107495764D01*
X161911154Y-107822391D01*
X161910846Y-108176057D01*
X153290730Y-108176057D01*
X153214050Y-107990479D01*
X153010592Y-107786665D01*
X152744624Y-107676226D01*
X152456639Y-107675975D01*
X152190479Y-107785950D01*
X151986665Y-107989408D01*
X151876226Y-108255376D01*
X151875975Y-108543361D01*
X147535901Y-108543361D01*
X147514050Y-108490479D01*
X147310592Y-108286665D01*
X147044624Y-108176226D01*
X146756639Y-108175975D01*
X146490479Y-108285950D01*
X146286665Y-108489408D01*
X146176226Y-108755376D01*
X146175975Y-109043361D01*
X140456000Y-109043361D01*
X140456000Y-106243361D01*
X146375975Y-106243361D01*
X146485950Y-106509521D01*
X146689408Y-106713335D01*
X146955376Y-106823774D01*
X147243361Y-106824025D01*
X147509521Y-106714050D01*
X147713335Y-106510592D01*
X147782775Y-106343361D01*
X149875975Y-106343361D01*
X149985950Y-106609521D01*
X150189408Y-106813335D01*
X150455376Y-106923774D01*
X150743361Y-106924025D01*
X151009521Y-106814050D01*
X151047580Y-106776057D01*
X157710852Y-106776057D01*
X157845909Y-107102920D01*
X158095770Y-107353218D01*
X158422397Y-107488846D01*
X158776063Y-107489154D01*
X159102926Y-107354097D01*
X159353224Y-107104236D01*
X159488852Y-106777609D01*
X159489160Y-106423943D01*
X159354103Y-106097080D01*
X159104242Y-105846782D01*
X158777615Y-105711154D01*
X158423949Y-105710846D01*
X158097086Y-105845903D01*
X157846788Y-106095764D01*
X157711160Y-106422391D01*
X157710852Y-106776057D01*
X151047580Y-106776057D01*
X151213335Y-106610592D01*
X151323774Y-106344624D01*
X151324025Y-106056639D01*
X151214050Y-105790479D01*
X151010592Y-105586665D01*
X150744624Y-105476226D01*
X150456639Y-105475975D01*
X150190479Y-105585950D01*
X149986665Y-105789408D01*
X149876226Y-106055376D01*
X149875975Y-106343361D01*
X147782775Y-106343361D01*
X147823774Y-106244624D01*
X147824025Y-105956639D01*
X147714050Y-105690479D01*
X147510592Y-105486665D01*
X147244624Y-105376226D01*
X146956639Y-105375975D01*
X146690479Y-105485950D01*
X146486665Y-105689408D01*
X146376226Y-105955376D01*
X146375975Y-106243361D01*
X140456000Y-106243361D01*
X140456000Y-104743361D01*
X152175975Y-104743361D01*
X152285950Y-105009521D01*
X152489408Y-105213335D01*
X152755376Y-105323774D01*
X153043361Y-105324025D01*
X153309521Y-105214050D01*
X153513335Y-105010592D01*
X153623774Y-104744624D01*
X153624025Y-104456639D01*
X153514050Y-104190479D01*
X153310592Y-103986665D01*
X153044624Y-103876226D01*
X152756639Y-103875975D01*
X152490479Y-103985950D01*
X152286665Y-104189408D01*
X152176226Y-104455376D01*
X152175975Y-104743361D01*
X140456000Y-104743361D01*
X140456000Y-103343361D01*
X146175975Y-103343361D01*
X146285950Y-103609521D01*
X146489408Y-103813335D01*
X146755376Y-103923774D01*
X147043361Y-103924025D01*
X147309521Y-103814050D01*
X147513335Y-103610592D01*
X147623774Y-103344624D01*
X147623949Y-103143361D01*
X161775975Y-103143361D01*
X161885950Y-103409521D01*
X162089408Y-103613335D01*
X162355376Y-103723774D01*
X162643361Y-103724025D01*
X162909521Y-103614050D01*
X162999976Y-103523753D01*
X163089408Y-103613341D01*
X163355376Y-103723780D01*
X163643361Y-103724031D01*
X163788469Y-103664073D01*
X163776214Y-103693588D01*
X163775963Y-103981573D01*
X163885938Y-104247733D01*
X163895347Y-104257159D01*
X163886660Y-104265831D01*
X163776221Y-104531799D01*
X163775970Y-104819784D01*
X163885945Y-105085944D01*
X164089403Y-105289758D01*
X164355371Y-105400197D01*
X164643356Y-105400448D01*
X164909516Y-105290473D01*
X165113330Y-105087015D01*
X165223769Y-104821047D01*
X165224020Y-104533062D01*
X165114045Y-104266902D01*
X165104636Y-104257476D01*
X165113323Y-104248804D01*
X165223762Y-103982836D01*
X165224013Y-103694851D01*
X165114038Y-103428691D01*
X165104642Y-103419278D01*
X165113335Y-103410600D01*
X165223774Y-103144632D01*
X165224025Y-102856647D01*
X165149407Y-102676057D01*
X170160846Y-102676057D01*
X170295903Y-103002920D01*
X170545764Y-103253218D01*
X170872391Y-103388846D01*
X171226057Y-103389154D01*
X171552920Y-103254097D01*
X171803218Y-103004236D01*
X171938846Y-102677609D01*
X171939154Y-102323943D01*
X171804097Y-101997080D01*
X171554236Y-101746782D01*
X171227609Y-101611154D01*
X170873943Y-101610846D01*
X170547080Y-101745903D01*
X170296782Y-101995764D01*
X170161154Y-102322391D01*
X170160846Y-102676057D01*
X165149407Y-102676057D01*
X165114050Y-102590487D01*
X164910592Y-102386673D01*
X164644624Y-102276234D01*
X164356639Y-102275983D01*
X164090479Y-102385958D01*
X164000022Y-102476257D01*
X163910592Y-102386671D01*
X163644624Y-102276232D01*
X163356639Y-102275981D01*
X163090479Y-102385956D01*
X163000024Y-102476253D01*
X162910592Y-102386665D01*
X162644624Y-102276226D01*
X162356639Y-102275975D01*
X162090479Y-102385950D01*
X161886665Y-102589408D01*
X161776226Y-102855376D01*
X161775975Y-103143361D01*
X147623949Y-103143361D01*
X147624025Y-103056639D01*
X147514050Y-102790479D01*
X147310592Y-102586665D01*
X147044624Y-102476226D01*
X146756639Y-102475975D01*
X146490479Y-102585950D01*
X146286665Y-102789408D01*
X146176226Y-103055376D01*
X146175975Y-103343361D01*
X140456000Y-103343361D01*
X140456000Y-100676057D01*
X144410846Y-100676057D01*
X144545903Y-101002920D01*
X144795764Y-101253218D01*
X145122391Y-101388846D01*
X145476057Y-101389154D01*
X145802920Y-101254097D01*
X146053218Y-101004236D01*
X146188846Y-100677609D01*
X146189154Y-100323943D01*
X146054097Y-99997080D01*
X145804236Y-99746782D01*
X145477609Y-99611154D01*
X145123943Y-99610846D01*
X144797080Y-99745903D01*
X144546782Y-99995764D01*
X144411154Y-100322391D01*
X144410846Y-100676057D01*
X140456000Y-100676057D01*
X140456000Y-99479694D01*
X140589408Y-99613335D01*
X140855376Y-99723774D01*
X141143361Y-99724025D01*
X141409521Y-99614050D01*
X141613335Y-99410592D01*
X141723774Y-99144624D01*
X141724025Y-98856639D01*
X141614050Y-98590479D01*
X141410592Y-98386665D01*
X141144624Y-98276226D01*
X140856639Y-98275975D01*
X140590479Y-98385950D01*
X140456000Y-98520194D01*
X140456000Y-97257307D01*
X140876389Y-97678431D01*
X141604226Y-97980655D01*
X142392316Y-97981343D01*
X143120680Y-97680389D01*
X143678431Y-97123611D01*
X143980655Y-96395774D01*
X143981343Y-95607684D01*
X143680389Y-94879320D01*
X143123611Y-94321569D01*
X142395774Y-94019345D01*
X141607684Y-94018657D01*
X140879320Y-94319611D01*
X140456000Y-94742193D01*
X140456000Y-90223983D01*
X148368804Y-90223983D01*
X148540625Y-90639823D01*
X148858503Y-90958256D01*
X149274043Y-91130804D01*
X149723983Y-91131196D01*
X150139823Y-90959375D01*
X150458256Y-90641497D01*
X150630804Y-90225957D01*
X150630805Y-90223983D01*
X150908804Y-90223983D01*
X151080625Y-90639823D01*
X151398503Y-90958256D01*
X151814043Y-91130804D01*
X152263983Y-91131196D01*
X152679823Y-90959375D01*
X152806973Y-90832446D01*
X153927159Y-90832446D01*
X154009059Y-91001898D01*
X154435930Y-91144123D01*
X154884733Y-91112164D01*
X155150941Y-91001898D01*
X155232841Y-90832446D01*
X154580000Y-90179605D01*
X153927159Y-90832446D01*
X152806973Y-90832446D01*
X152998256Y-90641497D01*
X153170804Y-90225957D01*
X153171126Y-89855930D01*
X153435877Y-89855930D01*
X153467836Y-90304733D01*
X153578102Y-90570941D01*
X153747554Y-90652841D01*
X154400395Y-90000000D01*
X154759605Y-90000000D01*
X155412446Y-90652841D01*
X155581898Y-90570941D01*
X155697497Y-90223983D01*
X164328804Y-90223983D01*
X164500625Y-90639823D01*
X164818503Y-90958256D01*
X165234043Y-91130804D01*
X165683983Y-91131196D01*
X166099823Y-90959375D01*
X166226973Y-90832446D01*
X167347159Y-90832446D01*
X167429059Y-91001898D01*
X167855930Y-91144123D01*
X168304733Y-91112164D01*
X168570941Y-91001898D01*
X168652841Y-90832446D01*
X168000000Y-90179605D01*
X167347159Y-90832446D01*
X166226973Y-90832446D01*
X166418256Y-90641497D01*
X166590804Y-90225957D01*
X166591126Y-89855930D01*
X166855877Y-89855930D01*
X166887836Y-90304733D01*
X166998102Y-90570941D01*
X167167554Y-90652841D01*
X167820395Y-90000000D01*
X168179605Y-90000000D01*
X168832446Y-90652841D01*
X169001898Y-90570941D01*
X169117497Y-90223983D01*
X169408804Y-90223983D01*
X169580625Y-90639823D01*
X169898503Y-90958256D01*
X170314043Y-91130804D01*
X170763983Y-91131196D01*
X171179823Y-90959375D01*
X171498256Y-90641497D01*
X171670804Y-90225957D01*
X171671196Y-89776017D01*
X171499375Y-89360177D01*
X171181497Y-89041744D01*
X170765957Y-88869196D01*
X170316017Y-88868804D01*
X169900177Y-89040625D01*
X169581744Y-89358503D01*
X169409196Y-89774043D01*
X169408804Y-90223983D01*
X169117497Y-90223983D01*
X169144123Y-90144070D01*
X169112164Y-89695267D01*
X169001898Y-89429059D01*
X168832446Y-89347159D01*
X168179605Y-90000000D01*
X167820395Y-90000000D01*
X167167554Y-89347159D01*
X166998102Y-89429059D01*
X166855877Y-89855930D01*
X166591126Y-89855930D01*
X166591196Y-89776017D01*
X166419375Y-89360177D01*
X166227088Y-89167554D01*
X167347159Y-89167554D01*
X168000000Y-89820395D01*
X168652841Y-89167554D01*
X168570941Y-88998102D01*
X168144070Y-88855877D01*
X167695267Y-88887836D01*
X167429059Y-88998102D01*
X167347159Y-89167554D01*
X166227088Y-89167554D01*
X166101497Y-89041744D01*
X165685957Y-88869196D01*
X165236017Y-88868804D01*
X164820177Y-89040625D01*
X164501744Y-89358503D01*
X164329196Y-89774043D01*
X164328804Y-90223983D01*
X155697497Y-90223983D01*
X155724123Y-90144070D01*
X155692164Y-89695267D01*
X155581898Y-89429059D01*
X155412446Y-89347159D01*
X154759605Y-90000000D01*
X154400395Y-90000000D01*
X153747554Y-89347159D01*
X153578102Y-89429059D01*
X153435877Y-89855930D01*
X153171126Y-89855930D01*
X153171196Y-89776017D01*
X152999375Y-89360177D01*
X152807088Y-89167554D01*
X153927159Y-89167554D01*
X154580000Y-89820395D01*
X155232841Y-89167554D01*
X155150941Y-88998102D01*
X154724070Y-88855877D01*
X154275267Y-88887836D01*
X154009059Y-88998102D01*
X153927159Y-89167554D01*
X152807088Y-89167554D01*
X152681497Y-89041744D01*
X152265957Y-88869196D01*
X151816017Y-88868804D01*
X151400177Y-89040625D01*
X151081744Y-89358503D01*
X150909196Y-89774043D01*
X150908804Y-90223983D01*
X150630805Y-90223983D01*
X150631196Y-89776017D01*
X150459375Y-89360177D01*
X150141497Y-89041744D01*
X149725957Y-88869196D01*
X149276017Y-88868804D01*
X148860177Y-89040625D01*
X148541744Y-89358503D01*
X148369196Y-89774043D01*
X148368804Y-90223983D01*
X140456000Y-90223983D01*
X140456000Y-87044911D01*
X140734024Y-85647188D01*
X141386961Y-84670000D01*
X145201536Y-84670000D01*
X145201536Y-87670000D01*
X145231106Y-87818659D01*
X145315314Y-87944686D01*
X145441341Y-88028894D01*
X145590000Y-88058464D01*
X148390000Y-88058464D01*
X148538659Y-88028894D01*
X148664686Y-87944686D01*
X148748894Y-87818659D01*
X148778464Y-87670000D01*
X148778464Y-84670000D01*
X155301536Y-84670000D01*
X155301536Y-87670000D01*
X155331106Y-87818659D01*
X155415314Y-87944686D01*
X155541341Y-88028894D01*
X155690000Y-88058464D01*
X158490000Y-88058464D01*
X158638659Y-88028894D01*
X158764686Y-87944686D01*
X158848894Y-87818659D01*
X158878464Y-87670000D01*
X158878464Y-84670000D01*
X161161536Y-84670000D01*
X161161536Y-87670000D01*
X161191106Y-87818659D01*
X161275314Y-87944686D01*
X161401341Y-88028894D01*
X161550000Y-88058464D01*
X164350000Y-88058464D01*
X164498659Y-88028894D01*
X164624686Y-87944686D01*
X164708894Y-87818659D01*
X164738464Y-87670000D01*
X164738464Y-84670000D01*
X171261536Y-84670000D01*
X171261536Y-87670000D01*
X171291106Y-87818659D01*
X171375314Y-87944686D01*
X171501341Y-88028894D01*
X171650000Y-88058464D01*
X174450000Y-88058464D01*
X174598659Y-88028894D01*
X174724686Y-87944686D01*
X174808894Y-87818659D01*
X174838464Y-87670000D01*
X174838464Y-84670000D01*
X174808894Y-84521341D01*
X174724686Y-84395314D01*
X174598659Y-84311106D01*
X174450000Y-84281536D01*
X171650000Y-84281536D01*
X171501341Y-84311106D01*
X171375314Y-84395314D01*
X171291106Y-84521341D01*
X171261536Y-84670000D01*
X164738464Y-84670000D01*
X164708894Y-84521341D01*
X164624686Y-84395314D01*
X164498659Y-84311106D01*
X164350000Y-84281536D01*
X161550000Y-84281536D01*
X161401341Y-84311106D01*
X161275314Y-84395314D01*
X161191106Y-84521341D01*
X161161536Y-84670000D01*
X158878464Y-84670000D01*
X158848894Y-84521341D01*
X158764686Y-84395314D01*
X158638659Y-84311106D01*
X158490000Y-84281536D01*
X155690000Y-84281536D01*
X155541341Y-84311106D01*
X155415314Y-84395314D01*
X155331106Y-84521341D01*
X155301536Y-84670000D01*
X148778464Y-84670000D01*
X148748894Y-84521341D01*
X148664686Y-84395314D01*
X148538659Y-84311106D01*
X148390000Y-84281536D01*
X145590000Y-84281536D01*
X145441341Y-84311106D01*
X145315314Y-84395314D01*
X145231106Y-84521341D01*
X145201536Y-84670000D01*
X141386961Y-84670000D01*
X141500331Y-84500331D01*
X142647188Y-83734024D01*
X144044911Y-83456000D01*
X175955089Y-83456000D01*
X177352812Y-83734024D01*
G36*
X145394230Y-111387017D02*
X145568533Y-111390668D01*
X145623363Y-111381000D01*
X147922066Y-111381000D01*
X148064194Y-111479782D01*
X148223955Y-111549580D01*
X148394230Y-111587017D01*
X148568533Y-111590668D01*
X148740226Y-111560394D01*
X148902769Y-111497348D01*
X149049971Y-111403931D01*
X149074051Y-111381000D01*
X179544000Y-111381000D01*
X179544000Y-130744010D01*
X179542593Y-130741892D01*
X179268847Y-130466228D01*
X178946770Y-130248985D01*
X178588632Y-130098437D01*
X178208073Y-130020320D01*
X177819588Y-130017607D01*
X177437975Y-130090404D01*
X177077770Y-130235936D01*
X176752692Y-130448662D01*
X176475123Y-130720477D01*
X176255637Y-131041028D01*
X176102593Y-131398107D01*
X176021820Y-131778112D01*
X176016396Y-132166568D01*
X176086527Y-132548680D01*
X176229541Y-132909892D01*
X176439992Y-133236447D01*
X176709862Y-133515907D01*
X177028874Y-133737626D01*
X177384875Y-133893159D01*
X177764307Y-133976582D01*
X178152716Y-133984718D01*
X178535308Y-133917257D01*
X178897510Y-133776768D01*
X179225526Y-133568602D01*
X179404744Y-133397935D01*
X179169642Y-135795692D01*
X178107724Y-139312936D01*
X178115611Y-139278221D01*
X178120775Y-138908406D01*
X178057887Y-138590795D01*
X177934504Y-138291447D01*
X177755329Y-138021766D01*
X177527184Y-137792023D01*
X177258760Y-137610969D01*
X176960281Y-137485500D01*
X176643116Y-137420395D01*
X176319347Y-137418135D01*
X176001304Y-137478805D01*
X175701102Y-137600094D01*
X175430177Y-137777383D01*
X175198846Y-138003918D01*
X175015923Y-138271071D01*
X174888373Y-138568667D01*
X174821056Y-138885369D01*
X174816535Y-139209116D01*
X174874983Y-139527574D01*
X174994174Y-139828615D01*
X175169567Y-140100772D01*
X175394482Y-140333678D01*
X175660352Y-140518462D01*
X175957050Y-140648086D01*
X176273274Y-140717613D01*
X176596981Y-140724394D01*
X176915840Y-140668170D01*
X177217705Y-140551084D01*
X177491080Y-140377595D01*
X177655803Y-140220732D01*
X176276793Y-142814271D01*
X175575663Y-143673943D01*
X175580775Y-143307816D01*
X175517887Y-142990205D01*
X175394504Y-142690857D01*
X175215329Y-142421176D01*
X174987184Y-142191433D01*
X174718760Y-142010379D01*
X174420281Y-141884910D01*
X174103116Y-141819805D01*
X173779347Y-141817545D01*
X173461304Y-141878215D01*
X173161102Y-141999504D01*
X172890177Y-142176793D01*
X172658846Y-142403328D01*
X172475923Y-142670481D01*
X172348373Y-142968077D01*
X172281056Y-143284779D01*
X172276535Y-143608526D01*
X172334983Y-143926984D01*
X172454174Y-144228025D01*
X172629567Y-144500182D01*
X172854482Y-144733088D01*
X173120352Y-144917872D01*
X173417050Y-145047496D01*
X173733274Y-145117023D01*
X174056981Y-145123804D01*
X174375840Y-145067580D01*
X174468284Y-145031723D01*
X173866298Y-145769831D01*
X170927646Y-148200895D01*
X167572756Y-150014878D01*
X163929426Y-151142677D01*
X160136425Y-151541338D01*
X156338229Y-151195674D01*
X152679509Y-150118854D01*
X151293702Y-149394371D01*
X154864918Y-149394371D01*
X154923366Y-149712829D01*
X155042557Y-150013870D01*
X155217950Y-150286027D01*
X155442865Y-150518933D01*
X155708735Y-150703717D01*
X156005433Y-150833341D01*
X156321657Y-150902868D01*
X156645364Y-150909649D01*
X156964223Y-150853425D01*
X157266088Y-150736339D01*
X157539463Y-150562850D01*
X157773934Y-150339567D01*
X157960570Y-150074994D01*
X158092262Y-149779208D01*
X158163994Y-149463476D01*
X158164958Y-149394371D01*
X161828742Y-149394371D01*
X161887190Y-149712829D01*
X162006381Y-150013870D01*
X162181774Y-150286027D01*
X162406689Y-150518933D01*
X162672559Y-150703717D01*
X162969257Y-150833341D01*
X163285481Y-150902868D01*
X163609188Y-150909649D01*
X163928047Y-150853425D01*
X164229912Y-150736339D01*
X164503287Y-150562850D01*
X164737758Y-150339567D01*
X164924394Y-150074994D01*
X165056086Y-149779208D01*
X165127818Y-149463476D01*
X165132982Y-149093661D01*
X165070094Y-148776050D01*
X164946711Y-148476702D01*
X164767536Y-148207021D01*
X164539391Y-147977278D01*
X164270967Y-147796224D01*
X163972488Y-147670755D01*
X163905036Y-147656909D01*
X166602380Y-147656909D01*
X166660828Y-147975367D01*
X166780019Y-148276408D01*
X166955412Y-148548565D01*
X167180327Y-148781471D01*
X167446197Y-148966255D01*
X167742895Y-149095879D01*
X168059119Y-149165406D01*
X168382826Y-149172187D01*
X168701685Y-149115963D01*
X169003550Y-148998877D01*
X169276925Y-148825388D01*
X169511396Y-148602105D01*
X169698032Y-148337532D01*
X169829724Y-148041746D01*
X169901456Y-147726014D01*
X169906620Y-147356199D01*
X169843732Y-147038588D01*
X169720349Y-146739240D01*
X169541174Y-146469559D01*
X169313029Y-146239816D01*
X169044605Y-146058762D01*
X168746126Y-145933293D01*
X168428961Y-145868188D01*
X168105192Y-145865928D01*
X167787149Y-145926598D01*
X167486947Y-146047887D01*
X167216022Y-146225176D01*
X166984691Y-146451711D01*
X166801768Y-146718864D01*
X166674218Y-147016460D01*
X166606901Y-147333162D01*
X166602380Y-147656909D01*
X163905036Y-147656909D01*
X163655323Y-147605650D01*
X163331554Y-147603390D01*
X163013511Y-147664060D01*
X162713309Y-147785349D01*
X162442384Y-147962638D01*
X162211053Y-148189173D01*
X162028130Y-148456326D01*
X161900580Y-148753922D01*
X161833263Y-149070624D01*
X161828742Y-149394371D01*
X158164958Y-149394371D01*
X158169158Y-149093661D01*
X158106270Y-148776050D01*
X157982887Y-148476702D01*
X157803712Y-148207021D01*
X157575567Y-147977278D01*
X157307143Y-147796224D01*
X157008664Y-147670755D01*
X156691499Y-147605650D01*
X156367730Y-147603390D01*
X156049687Y-147664060D01*
X155749485Y-147785349D01*
X155478560Y-147962638D01*
X155247229Y-148189173D01*
X155064306Y-148456326D01*
X154936756Y-148753922D01*
X154869439Y-149070624D01*
X154864918Y-149394371D01*
X151293702Y-149394371D01*
X149299620Y-148351890D01*
X148435238Y-147656909D01*
X150091280Y-147656909D01*
X150149728Y-147975367D01*
X150268919Y-148276408D01*
X150444312Y-148548565D01*
X150669227Y-148781471D01*
X150935097Y-148966255D01*
X151231795Y-149095879D01*
X151548019Y-149165406D01*
X151871726Y-149172187D01*
X152190585Y-149115963D01*
X152492450Y-148998877D01*
X152765825Y-148825388D01*
X153000296Y-148602105D01*
X153186932Y-148337532D01*
X153318624Y-148041746D01*
X153390356Y-147726014D01*
X153395520Y-147356199D01*
X153332632Y-147038588D01*
X153209249Y-146739240D01*
X153030074Y-146469559D01*
X152801929Y-146239816D01*
X152652198Y-146138821D01*
X153346830Y-146138821D01*
X153405278Y-146457279D01*
X153524469Y-146758320D01*
X153699862Y-147030477D01*
X153924777Y-147263383D01*
X154190647Y-147448167D01*
X154487345Y-147577791D01*
X154803569Y-147647318D01*
X155127276Y-147654099D01*
X155446135Y-147597875D01*
X155748000Y-147480789D01*
X156021375Y-147307300D01*
X156255846Y-147084017D01*
X156442482Y-146819444D01*
X156574174Y-146523658D01*
X156645906Y-146207926D01*
X156646870Y-146138821D01*
X163346830Y-146138821D01*
X163405278Y-146457279D01*
X163524469Y-146758320D01*
X163699862Y-147030477D01*
X163924777Y-147263383D01*
X164190647Y-147448167D01*
X164487345Y-147577791D01*
X164803569Y-147647318D01*
X165127276Y-147654099D01*
X165446135Y-147597875D01*
X165748000Y-147480789D01*
X166021375Y-147307300D01*
X166255846Y-147084017D01*
X166442482Y-146819444D01*
X166574174Y-146523658D01*
X166645906Y-146207926D01*
X166651070Y-145838111D01*
X166588182Y-145520500D01*
X166464799Y-145221152D01*
X166285624Y-144951471D01*
X166057479Y-144721728D01*
X165789055Y-144540674D01*
X165490576Y-144415205D01*
X165173411Y-144350100D01*
X164849642Y-144347840D01*
X164531599Y-144408510D01*
X164231397Y-144529799D01*
X163960472Y-144707088D01*
X163729141Y-144933623D01*
X163546218Y-145200776D01*
X163418668Y-145498372D01*
X163351351Y-145815074D01*
X163346830Y-146138821D01*
X156646870Y-146138821D01*
X156651070Y-145838111D01*
X156588182Y-145520500D01*
X156464799Y-145221152D01*
X156285624Y-144951471D01*
X156057479Y-144721728D01*
X155907748Y-144620733D01*
X156602380Y-144620733D01*
X156660828Y-144939191D01*
X156780019Y-145240232D01*
X156955412Y-145512389D01*
X157180327Y-145745295D01*
X157446197Y-145930079D01*
X157742895Y-146059703D01*
X158059119Y-146129230D01*
X158382826Y-146136011D01*
X158701685Y-146079787D01*
X159003550Y-145962701D01*
X159276925Y-145789212D01*
X159511396Y-145565929D01*
X159698032Y-145301356D01*
X159829724Y-145005570D01*
X159901456Y-144689838D01*
X159902420Y-144620733D01*
X160091280Y-144620733D01*
X160149728Y-144939191D01*
X160268919Y-145240232D01*
X160444312Y-145512389D01*
X160669227Y-145745295D01*
X160935097Y-145930079D01*
X161231795Y-146059703D01*
X161548019Y-146129230D01*
X161871726Y-146136011D01*
X162190585Y-146079787D01*
X162492450Y-145962701D01*
X162765825Y-145789212D01*
X163000296Y-145565929D01*
X163186932Y-145301356D01*
X163318624Y-145005570D01*
X163390356Y-144689838D01*
X163395520Y-144320023D01*
X163332632Y-144002412D01*
X163209249Y-143703064D01*
X163030074Y-143433383D01*
X162801929Y-143203640D01*
X162533505Y-143022586D01*
X162235026Y-142897117D01*
X162167574Y-142883271D01*
X164864918Y-142883271D01*
X164923366Y-143201729D01*
X165042557Y-143502770D01*
X165217950Y-143774927D01*
X165442865Y-144007833D01*
X165708735Y-144192617D01*
X166005433Y-144322241D01*
X166321657Y-144391768D01*
X166645364Y-144398549D01*
X166964223Y-144342325D01*
X167266088Y-144225239D01*
X167539463Y-144051750D01*
X167773934Y-143828467D01*
X167960570Y-143563894D01*
X168092262Y-143268108D01*
X168163994Y-142952376D01*
X168169158Y-142582561D01*
X168106270Y-142264950D01*
X167982887Y-141965602D01*
X167803712Y-141695921D01*
X167575567Y-141466178D01*
X167307143Y-141285124D01*
X167008664Y-141159655D01*
X166691499Y-141094550D01*
X166367730Y-141092290D01*
X166049687Y-141152960D01*
X165749485Y-141274249D01*
X165478560Y-141451538D01*
X165247229Y-141678073D01*
X165064306Y-141945226D01*
X164936756Y-142242822D01*
X164869439Y-142559524D01*
X164864918Y-142883271D01*
X162167574Y-142883271D01*
X161917861Y-142832012D01*
X161594092Y-142829752D01*
X161276049Y-142890422D01*
X160975847Y-143011711D01*
X160704922Y-143189000D01*
X160473591Y-143415535D01*
X160290668Y-143682688D01*
X160163118Y-143980284D01*
X160095801Y-144296986D01*
X160091280Y-144620733D01*
X159902420Y-144620733D01*
X159906620Y-144320023D01*
X159843732Y-144002412D01*
X159720349Y-143703064D01*
X159541174Y-143433383D01*
X159313029Y-143203640D01*
X159044605Y-143022586D01*
X158746126Y-142897117D01*
X158428961Y-142832012D01*
X158105192Y-142829752D01*
X157787149Y-142890422D01*
X157486947Y-143011711D01*
X157216022Y-143189000D01*
X156984691Y-143415535D01*
X156801768Y-143682688D01*
X156674218Y-143980284D01*
X156606901Y-144296986D01*
X156602380Y-144620733D01*
X155907748Y-144620733D01*
X155789055Y-144540674D01*
X155490576Y-144415205D01*
X155173411Y-144350100D01*
X154849642Y-144347840D01*
X154531599Y-144408510D01*
X154231397Y-144529799D01*
X153960472Y-144707088D01*
X153729141Y-144933623D01*
X153546218Y-145200776D01*
X153418668Y-145498372D01*
X153351351Y-145815074D01*
X153346830Y-146138821D01*
X152652198Y-146138821D01*
X152533505Y-146058762D01*
X152235026Y-145933293D01*
X151917861Y-145868188D01*
X151594092Y-145865928D01*
X151276049Y-145926598D01*
X150975847Y-146047887D01*
X150704922Y-146225176D01*
X150473591Y-146451711D01*
X150290668Y-146718864D01*
X150163118Y-147016460D01*
X150095801Y-147333162D01*
X150091280Y-147656909D01*
X148435238Y-147656909D01*
X146327309Y-145962092D01*
X145560377Y-145048098D01*
X145873864Y-145117023D01*
X146197571Y-145123804D01*
X146516430Y-145067580D01*
X146818295Y-144950494D01*
X147091670Y-144777005D01*
X147326141Y-144553722D01*
X147512777Y-144289149D01*
X147644469Y-143993363D01*
X147716201Y-143677631D01*
X147721365Y-143307816D01*
X147658477Y-142990205D01*
X147614402Y-142883271D01*
X151828742Y-142883271D01*
X151887190Y-143201729D01*
X152006381Y-143502770D01*
X152181774Y-143774927D01*
X152406689Y-144007833D01*
X152672559Y-144192617D01*
X152969257Y-144322241D01*
X153285481Y-144391768D01*
X153609188Y-144398549D01*
X153928047Y-144342325D01*
X154229912Y-144225239D01*
X154503287Y-144051750D01*
X154737758Y-143828467D01*
X154924394Y-143563894D01*
X155056086Y-143268108D01*
X155127818Y-142952376D01*
X155132982Y-142582561D01*
X155070094Y-142264950D01*
X154946711Y-141965602D01*
X154767536Y-141695921D01*
X154539391Y-141466178D01*
X154270967Y-141285124D01*
X153972488Y-141159655D01*
X153655323Y-141094550D01*
X153331554Y-141092290D01*
X153013511Y-141152960D01*
X152713309Y-141274249D01*
X152442384Y-141451538D01*
X152211053Y-141678073D01*
X152028130Y-141945226D01*
X151900580Y-142242822D01*
X151833263Y-142559524D01*
X151828742Y-142883271D01*
X147614402Y-142883271D01*
X147535094Y-142690857D01*
X147355919Y-142421176D01*
X147127774Y-142191433D01*
X146859350Y-142010379D01*
X146560871Y-141884910D01*
X146243706Y-141819805D01*
X145919937Y-141817545D01*
X145601894Y-141878215D01*
X145301692Y-141999504D01*
X145030767Y-142176793D01*
X144799436Y-142403328D01*
X144616513Y-142670481D01*
X144488963Y-142968077D01*
X144421646Y-143284779D01*
X144417125Y-143608526D01*
X144435236Y-143707207D01*
X143875788Y-143040482D01*
X142298674Y-140171724D01*
X142455072Y-140333678D01*
X142720942Y-140518462D01*
X143017640Y-140648086D01*
X143333864Y-140717613D01*
X143657571Y-140724394D01*
X143976430Y-140668170D01*
X144278295Y-140551084D01*
X144551670Y-140377595D01*
X144786141Y-140154312D01*
X144797068Y-140138821D01*
X145346830Y-140138821D01*
X145405278Y-140457279D01*
X145524469Y-140758320D01*
X145699862Y-141030477D01*
X145924777Y-141263383D01*
X146190647Y-141448167D01*
X146487345Y-141577791D01*
X146803569Y-141647318D01*
X147127276Y-141654099D01*
X147446135Y-141597875D01*
X147748000Y-141480789D01*
X148021375Y-141307300D01*
X148255846Y-141084017D01*
X148266773Y-141068526D01*
X148816535Y-141068526D01*
X148874983Y-141386984D01*
X148994174Y-141688025D01*
X149169567Y-141960182D01*
X149394482Y-142193088D01*
X149660352Y-142377872D01*
X149957050Y-142507496D01*
X150273274Y-142577023D01*
X150596981Y-142583804D01*
X150915840Y-142527580D01*
X151217705Y-142410494D01*
X151491080Y-142237005D01*
X151725551Y-142013722D01*
X151912187Y-141749149D01*
X152043879Y-141453363D01*
X152115611Y-141137631D01*
X152116575Y-141068526D01*
X167877125Y-141068526D01*
X167935573Y-141386984D01*
X168054764Y-141688025D01*
X168230157Y-141960182D01*
X168455072Y-142193088D01*
X168720942Y-142377872D01*
X169017640Y-142507496D01*
X169333864Y-142577023D01*
X169657571Y-142583804D01*
X169976430Y-142527580D01*
X170278295Y-142410494D01*
X170551670Y-142237005D01*
X170786141Y-142013722D01*
X170972777Y-141749149D01*
X171104469Y-141453363D01*
X171176201Y-141137631D01*
X171181365Y-140767816D01*
X171118477Y-140450205D01*
X170995094Y-140150857D01*
X170987098Y-140138821D01*
X171346830Y-140138821D01*
X171405278Y-140457279D01*
X171524469Y-140758320D01*
X171699862Y-141030477D01*
X171924777Y-141263383D01*
X172190647Y-141448167D01*
X172487345Y-141577791D01*
X172803569Y-141647318D01*
X173127276Y-141654099D01*
X173446135Y-141597875D01*
X173748000Y-141480789D01*
X174021375Y-141307300D01*
X174255846Y-141084017D01*
X174442482Y-140819444D01*
X174574174Y-140523658D01*
X174645906Y-140207926D01*
X174651070Y-139838111D01*
X174588182Y-139520500D01*
X174464799Y-139221152D01*
X174285624Y-138951471D01*
X174057479Y-138721728D01*
X173789055Y-138540674D01*
X173490576Y-138415205D01*
X173173411Y-138350100D01*
X172849642Y-138347840D01*
X172531599Y-138408510D01*
X172231397Y-138529799D01*
X171960472Y-138707088D01*
X171729141Y-138933623D01*
X171546218Y-139200776D01*
X171418668Y-139498372D01*
X171351351Y-139815074D01*
X171346830Y-140138821D01*
X170987098Y-140138821D01*
X170815919Y-139881176D01*
X170587774Y-139651433D01*
X170319350Y-139470379D01*
X170020871Y-139344910D01*
X169703706Y-139279805D01*
X169379937Y-139277545D01*
X169061894Y-139338215D01*
X168761692Y-139459504D01*
X168490767Y-139636793D01*
X168259436Y-139863328D01*
X168076513Y-140130481D01*
X167948963Y-140428077D01*
X167881646Y-140744779D01*
X167877125Y-141068526D01*
X152116575Y-141068526D01*
X152120775Y-140767816D01*
X152057887Y-140450205D01*
X151934504Y-140150857D01*
X151755329Y-139881176D01*
X151527184Y-139651433D01*
X151258760Y-139470379D01*
X150960281Y-139344910D01*
X150643116Y-139279805D01*
X150319347Y-139277545D01*
X150001304Y-139338215D01*
X149701102Y-139459504D01*
X149430177Y-139636793D01*
X149198846Y-139863328D01*
X149015923Y-140130481D01*
X148888373Y-140428077D01*
X148821056Y-140744779D01*
X148816535Y-141068526D01*
X148266773Y-141068526D01*
X148442482Y-140819444D01*
X148574174Y-140523658D01*
X148645906Y-140207926D01*
X148651070Y-139838111D01*
X148588182Y-139520500D01*
X148464799Y-139221152D01*
X148285624Y-138951471D01*
X148057479Y-138721728D01*
X147789055Y-138540674D01*
X147490576Y-138415205D01*
X147173411Y-138350100D01*
X146849642Y-138347840D01*
X146531599Y-138408510D01*
X146231397Y-138529799D01*
X145960472Y-138707088D01*
X145729141Y-138933623D01*
X145546218Y-139200776D01*
X145418668Y-139498372D01*
X145351351Y-139815074D01*
X145346830Y-140138821D01*
X144797068Y-140138821D01*
X144972777Y-139889739D01*
X145104469Y-139593953D01*
X145176201Y-139278221D01*
X145181365Y-138908406D01*
X145118477Y-138590795D01*
X144995094Y-138291447D01*
X144815919Y-138021766D01*
X144587774Y-137792023D01*
X144319350Y-137610969D01*
X144020871Y-137485500D01*
X143703706Y-137420395D01*
X143379937Y-137418135D01*
X143061894Y-137478805D01*
X142761692Y-137600094D01*
X142490767Y-137777383D01*
X142259436Y-138003918D01*
X142076513Y-138271071D01*
X141948963Y-138568667D01*
X141881646Y-138885369D01*
X141877383Y-139190658D01*
X141077503Y-136669116D01*
X146276535Y-136669116D01*
X146334983Y-136987574D01*
X146454174Y-137288615D01*
X146629567Y-137560772D01*
X146854482Y-137793678D01*
X147120352Y-137978462D01*
X147417050Y-138108086D01*
X147733274Y-138177613D01*
X148056981Y-138184394D01*
X148375840Y-138128170D01*
X148677705Y-138011084D01*
X148951080Y-137837595D01*
X149185551Y-137614312D01*
X149372187Y-137349739D01*
X149503879Y-137053953D01*
X149575611Y-136738221D01*
X149576575Y-136669116D01*
X170417125Y-136669116D01*
X170475573Y-136987574D01*
X170594764Y-137288615D01*
X170770157Y-137560772D01*
X170995072Y-137793678D01*
X171260942Y-137978462D01*
X171557640Y-138108086D01*
X171873864Y-138177613D01*
X172197571Y-138184394D01*
X172516430Y-138128170D01*
X172818295Y-138011084D01*
X173091670Y-137837595D01*
X173326141Y-137614312D01*
X173512777Y-137349739D01*
X173644469Y-137053953D01*
X173716201Y-136738221D01*
X173721365Y-136368406D01*
X173658477Y-136050795D01*
X173535094Y-135751447D01*
X173355919Y-135481766D01*
X173127774Y-135252023D01*
X172859350Y-135070969D01*
X172560871Y-134945500D01*
X172243706Y-134880395D01*
X171919937Y-134878135D01*
X171601894Y-134938805D01*
X171301692Y-135060094D01*
X171030767Y-135237383D01*
X170799436Y-135463918D01*
X170616513Y-135731071D01*
X170488963Y-136028667D01*
X170421646Y-136345369D01*
X170417125Y-136669116D01*
X149576575Y-136669116D01*
X149580775Y-136368406D01*
X149517887Y-136050795D01*
X149394504Y-135751447D01*
X149215329Y-135481766D01*
X148987184Y-135252023D01*
X148718760Y-135070969D01*
X148420281Y-134945500D01*
X148103116Y-134880395D01*
X147779347Y-134878135D01*
X147461304Y-134938805D01*
X147161102Y-135060094D01*
X146890177Y-135237383D01*
X146658846Y-135463918D01*
X146475923Y-135731071D01*
X146348373Y-136028667D01*
X146281056Y-136345369D01*
X146276535Y-136669116D01*
X141077503Y-136669116D01*
X140885222Y-136062970D01*
X140585023Y-133386632D01*
X140709862Y-133515907D01*
X141028874Y-133737626D01*
X141384875Y-133893159D01*
X141764307Y-133976582D01*
X142152716Y-133984718D01*
X142535308Y-133917257D01*
X142897510Y-133776768D01*
X143225526Y-133568602D01*
X143506863Y-133300689D01*
X143730804Y-132983233D01*
X143888818Y-132628326D01*
X143974889Y-132249486D01*
X143981085Y-131805753D01*
X143905626Y-131424658D01*
X143757582Y-131065477D01*
X143542593Y-130741892D01*
X143268847Y-130466228D01*
X142946770Y-130248985D01*
X142588632Y-130098437D01*
X142208073Y-130020320D01*
X141819588Y-130017607D01*
X141437975Y-130090404D01*
X141077770Y-130235936D01*
X140752692Y-130448662D01*
X140475123Y-130720477D01*
X140456000Y-130748405D01*
X140456000Y-125074750D01*
X155109832Y-125074750D01*
X155141304Y-125246227D01*
X155205483Y-125408326D01*
X155299926Y-125554872D01*
X155421034Y-125680283D01*
X155564194Y-125779782D01*
X155723955Y-125849580D01*
X155894230Y-125887017D01*
X156068533Y-125890668D01*
X156240226Y-125860394D01*
X156402769Y-125797348D01*
X156549971Y-125703931D01*
X156676224Y-125583701D01*
X156776721Y-125441239D01*
X156847632Y-125281970D01*
X156886257Y-125111960D01*
X156886776Y-125074750D01*
X163109832Y-125074750D01*
X163141304Y-125246227D01*
X163205483Y-125408326D01*
X163299926Y-125554872D01*
X163421034Y-125680283D01*
X163564194Y-125779782D01*
X163723955Y-125849580D01*
X163894230Y-125887017D01*
X164068533Y-125890668D01*
X164240226Y-125860394D01*
X164402769Y-125797348D01*
X164549971Y-125703931D01*
X164676224Y-125583701D01*
X164776721Y-125441239D01*
X164847632Y-125281970D01*
X164886257Y-125111960D01*
X164889038Y-124912829D01*
X164855174Y-124741808D01*
X164788738Y-124580621D01*
X164692259Y-124435408D01*
X164569411Y-124311700D01*
X164424876Y-124214209D01*
X164264156Y-124146649D01*
X164093375Y-124111593D01*
X163919038Y-124110375D01*
X163747784Y-124143044D01*
X163586137Y-124208353D01*
X163440254Y-124303817D01*
X163315692Y-124425797D01*
X163217194Y-124569649D01*
X163148514Y-124729893D01*
X163112266Y-124900425D01*
X163109832Y-125074750D01*
X156886776Y-125074750D01*
X156889038Y-124912829D01*
X156855174Y-124741808D01*
X156788738Y-124580621D01*
X156692259Y-124435408D01*
X156569411Y-124311700D01*
X156424876Y-124214209D01*
X156264156Y-124146649D01*
X156093375Y-124111593D01*
X155919038Y-124110375D01*
X155747784Y-124143044D01*
X155586137Y-124208353D01*
X155440254Y-124303817D01*
X155315692Y-124425797D01*
X155217194Y-124569649D01*
X155148514Y-124729893D01*
X155112266Y-124900425D01*
X155109832Y-125074750D01*
X140456000Y-125074750D01*
X140456000Y-112574750D01*
X160809832Y-112574750D01*
X160841304Y-112746227D01*
X160905483Y-112908326D01*
X160999926Y-113054872D01*
X161121034Y-113180283D01*
X161264194Y-113279782D01*
X161423955Y-113349580D01*
X161594230Y-113387017D01*
X161768533Y-113390668D01*
X161940226Y-113360394D01*
X162102769Y-113297348D01*
X162249971Y-113203931D01*
X162376224Y-113083701D01*
X162476721Y-112941239D01*
X162547632Y-112781970D01*
X162586257Y-112611960D01*
X162589038Y-112412829D01*
X162555174Y-112241808D01*
X162488738Y-112080621D01*
X162392259Y-111935408D01*
X162269411Y-111811700D01*
X162124876Y-111714209D01*
X161964156Y-111646649D01*
X161793375Y-111611593D01*
X161619038Y-111610375D01*
X161447784Y-111643044D01*
X161286137Y-111708353D01*
X161140254Y-111803817D01*
X161015692Y-111925797D01*
X160917194Y-112069649D01*
X160848514Y-112229893D01*
X160812266Y-112400425D01*
X160809832Y-112574750D01*
X140456000Y-112574750D01*
X140456000Y-111381000D01*
X145366863Y-111381000D01*
X145394230Y-111387017D01*
X145394230Y-111387017D01*
G37*
X145394230Y-111387017D02*
X145568533Y-111390668D01*
X145623363Y-111381000D01*
X147922066Y-111381000D01*
X148064194Y-111479782D01*
X148223955Y-111549580D01*
X148394230Y-111587017D01*
X148568533Y-111590668D01*
X148740226Y-111560394D01*
X148902769Y-111497348D01*
X149049971Y-111403931D01*
X149074051Y-111381000D01*
X179544000Y-111381000D01*
X179544000Y-130744010D01*
X179542593Y-130741892D01*
X179268847Y-130466228D01*
X178946770Y-130248985D01*
X178588632Y-130098437D01*
X178208073Y-130020320D01*
X177819588Y-130017607D01*
X177437975Y-130090404D01*
X177077770Y-130235936D01*
X176752692Y-130448662D01*
X176475123Y-130720477D01*
X176255637Y-131041028D01*
X176102593Y-131398107D01*
X176021820Y-131778112D01*
X176016396Y-132166568D01*
X176086527Y-132548680D01*
X176229541Y-132909892D01*
X176439992Y-133236447D01*
X176709862Y-133515907D01*
X177028874Y-133737626D01*
X177384875Y-133893159D01*
X177764307Y-133976582D01*
X178152716Y-133984718D01*
X178535308Y-133917257D01*
X178897510Y-133776768D01*
X179225526Y-133568602D01*
X179404744Y-133397935D01*
X179169642Y-135795692D01*
X178107724Y-139312936D01*
X178115611Y-139278221D01*
X178120775Y-138908406D01*
X178057887Y-138590795D01*
X177934504Y-138291447D01*
X177755329Y-138021766D01*
X177527184Y-137792023D01*
X177258760Y-137610969D01*
X176960281Y-137485500D01*
X176643116Y-137420395D01*
X176319347Y-137418135D01*
X176001304Y-137478805D01*
X175701102Y-137600094D01*
X175430177Y-137777383D01*
X175198846Y-138003918D01*
X175015923Y-138271071D01*
X174888373Y-138568667D01*
X174821056Y-138885369D01*
X174816535Y-139209116D01*
X174874983Y-139527574D01*
X174994174Y-139828615D01*
X175169567Y-140100772D01*
X175394482Y-140333678D01*
X175660352Y-140518462D01*
X175957050Y-140648086D01*
X176273274Y-140717613D01*
X176596981Y-140724394D01*
X176915840Y-140668170D01*
X177217705Y-140551084D01*
X177491080Y-140377595D01*
X177655803Y-140220732D01*
X176276793Y-142814271D01*
X175575663Y-143673943D01*
X175580775Y-143307816D01*
X175517887Y-142990205D01*
X175394504Y-142690857D01*
X175215329Y-142421176D01*
X174987184Y-142191433D01*
X174718760Y-142010379D01*
X174420281Y-141884910D01*
X174103116Y-141819805D01*
X173779347Y-141817545D01*
X173461304Y-141878215D01*
X173161102Y-141999504D01*
X172890177Y-142176793D01*
X172658846Y-142403328D01*
X172475923Y-142670481D01*
X172348373Y-142968077D01*
X172281056Y-143284779D01*
X172276535Y-143608526D01*
X172334983Y-143926984D01*
X172454174Y-144228025D01*
X172629567Y-144500182D01*
X172854482Y-144733088D01*
X173120352Y-144917872D01*
X173417050Y-145047496D01*
X173733274Y-145117023D01*
X174056981Y-145123804D01*
X174375840Y-145067580D01*
X174468284Y-145031723D01*
X173866298Y-145769831D01*
X170927646Y-148200895D01*
X167572756Y-150014878D01*
X163929426Y-151142677D01*
X160136425Y-151541338D01*
X156338229Y-151195674D01*
X152679509Y-150118854D01*
X151293702Y-149394371D01*
X154864918Y-149394371D01*
X154923366Y-149712829D01*
X155042557Y-150013870D01*
X155217950Y-150286027D01*
X155442865Y-150518933D01*
X155708735Y-150703717D01*
X156005433Y-150833341D01*
X156321657Y-150902868D01*
X156645364Y-150909649D01*
X156964223Y-150853425D01*
X157266088Y-150736339D01*
X157539463Y-150562850D01*
X157773934Y-150339567D01*
X157960570Y-150074994D01*
X158092262Y-149779208D01*
X158163994Y-149463476D01*
X158164958Y-149394371D01*
X161828742Y-149394371D01*
X161887190Y-149712829D01*
X162006381Y-150013870D01*
X162181774Y-150286027D01*
X162406689Y-150518933D01*
X162672559Y-150703717D01*
X162969257Y-150833341D01*
X163285481Y-150902868D01*
X163609188Y-150909649D01*
X163928047Y-150853425D01*
X164229912Y-150736339D01*
X164503287Y-150562850D01*
X164737758Y-150339567D01*
X164924394Y-150074994D01*
X165056086Y-149779208D01*
X165127818Y-149463476D01*
X165132982Y-149093661D01*
X165070094Y-148776050D01*
X164946711Y-148476702D01*
X164767536Y-148207021D01*
X164539391Y-147977278D01*
X164270967Y-147796224D01*
X163972488Y-147670755D01*
X163905036Y-147656909D01*
X166602380Y-147656909D01*
X166660828Y-147975367D01*
X166780019Y-148276408D01*
X166955412Y-148548565D01*
X167180327Y-148781471D01*
X167446197Y-148966255D01*
X167742895Y-149095879D01*
X168059119Y-149165406D01*
X168382826Y-149172187D01*
X168701685Y-149115963D01*
X169003550Y-148998877D01*
X169276925Y-148825388D01*
X169511396Y-148602105D01*
X169698032Y-148337532D01*
X169829724Y-148041746D01*
X169901456Y-147726014D01*
X169906620Y-147356199D01*
X169843732Y-147038588D01*
X169720349Y-146739240D01*
X169541174Y-146469559D01*
X169313029Y-146239816D01*
X169044605Y-146058762D01*
X168746126Y-145933293D01*
X168428961Y-145868188D01*
X168105192Y-145865928D01*
X167787149Y-145926598D01*
X167486947Y-146047887D01*
X167216022Y-146225176D01*
X166984691Y-146451711D01*
X166801768Y-146718864D01*
X166674218Y-147016460D01*
X166606901Y-147333162D01*
X166602380Y-147656909D01*
X163905036Y-147656909D01*
X163655323Y-147605650D01*
X163331554Y-147603390D01*
X163013511Y-147664060D01*
X162713309Y-147785349D01*
X162442384Y-147962638D01*
X162211053Y-148189173D01*
X162028130Y-148456326D01*
X161900580Y-148753922D01*
X161833263Y-149070624D01*
X161828742Y-149394371D01*
X158164958Y-149394371D01*
X158169158Y-149093661D01*
X158106270Y-148776050D01*
X157982887Y-148476702D01*
X157803712Y-148207021D01*
X157575567Y-147977278D01*
X157307143Y-147796224D01*
X157008664Y-147670755D01*
X156691499Y-147605650D01*
X156367730Y-147603390D01*
X156049687Y-147664060D01*
X155749485Y-147785349D01*
X155478560Y-147962638D01*
X155247229Y-148189173D01*
X155064306Y-148456326D01*
X154936756Y-148753922D01*
X154869439Y-149070624D01*
X154864918Y-149394371D01*
X151293702Y-149394371D01*
X149299620Y-148351890D01*
X148435238Y-147656909D01*
X150091280Y-147656909D01*
X150149728Y-147975367D01*
X150268919Y-148276408D01*
X150444312Y-148548565D01*
X150669227Y-148781471D01*
X150935097Y-148966255D01*
X151231795Y-149095879D01*
X151548019Y-149165406D01*
X151871726Y-149172187D01*
X152190585Y-149115963D01*
X152492450Y-148998877D01*
X152765825Y-148825388D01*
X153000296Y-148602105D01*
X153186932Y-148337532D01*
X153318624Y-148041746D01*
X153390356Y-147726014D01*
X153395520Y-147356199D01*
X153332632Y-147038588D01*
X153209249Y-146739240D01*
X153030074Y-146469559D01*
X152801929Y-146239816D01*
X152652198Y-146138821D01*
X153346830Y-146138821D01*
X153405278Y-146457279D01*
X153524469Y-146758320D01*
X153699862Y-147030477D01*
X153924777Y-147263383D01*
X154190647Y-147448167D01*
X154487345Y-147577791D01*
X154803569Y-147647318D01*
X155127276Y-147654099D01*
X155446135Y-147597875D01*
X155748000Y-147480789D01*
X156021375Y-147307300D01*
X156255846Y-147084017D01*
X156442482Y-146819444D01*
X156574174Y-146523658D01*
X156645906Y-146207926D01*
X156646870Y-146138821D01*
X163346830Y-146138821D01*
X163405278Y-146457279D01*
X163524469Y-146758320D01*
X163699862Y-147030477D01*
X163924777Y-147263383D01*
X164190647Y-147448167D01*
X164487345Y-147577791D01*
X164803569Y-147647318D01*
X165127276Y-147654099D01*
X165446135Y-147597875D01*
X165748000Y-147480789D01*
X166021375Y-147307300D01*
X166255846Y-147084017D01*
X166442482Y-146819444D01*
X166574174Y-146523658D01*
X166645906Y-146207926D01*
X166651070Y-145838111D01*
X166588182Y-145520500D01*
X166464799Y-145221152D01*
X166285624Y-144951471D01*
X166057479Y-144721728D01*
X165789055Y-144540674D01*
X165490576Y-144415205D01*
X165173411Y-144350100D01*
X164849642Y-144347840D01*
X164531599Y-144408510D01*
X164231397Y-144529799D01*
X163960472Y-144707088D01*
X163729141Y-144933623D01*
X163546218Y-145200776D01*
X163418668Y-145498372D01*
X163351351Y-145815074D01*
X163346830Y-146138821D01*
X156646870Y-146138821D01*
X156651070Y-145838111D01*
X156588182Y-145520500D01*
X156464799Y-145221152D01*
X156285624Y-144951471D01*
X156057479Y-144721728D01*
X155907748Y-144620733D01*
X156602380Y-144620733D01*
X156660828Y-144939191D01*
X156780019Y-145240232D01*
X156955412Y-145512389D01*
X157180327Y-145745295D01*
X157446197Y-145930079D01*
X157742895Y-146059703D01*
X158059119Y-146129230D01*
X158382826Y-146136011D01*
X158701685Y-146079787D01*
X159003550Y-145962701D01*
X159276925Y-145789212D01*
X159511396Y-145565929D01*
X159698032Y-145301356D01*
X159829724Y-145005570D01*
X159901456Y-144689838D01*
X159902420Y-144620733D01*
X160091280Y-144620733D01*
X160149728Y-144939191D01*
X160268919Y-145240232D01*
X160444312Y-145512389D01*
X160669227Y-145745295D01*
X160935097Y-145930079D01*
X161231795Y-146059703D01*
X161548019Y-146129230D01*
X161871726Y-146136011D01*
X162190585Y-146079787D01*
X162492450Y-145962701D01*
X162765825Y-145789212D01*
X163000296Y-145565929D01*
X163186932Y-145301356D01*
X163318624Y-145005570D01*
X163390356Y-144689838D01*
X163395520Y-144320023D01*
X163332632Y-144002412D01*
X163209249Y-143703064D01*
X163030074Y-143433383D01*
X162801929Y-143203640D01*
X162533505Y-143022586D01*
X162235026Y-142897117D01*
X162167574Y-142883271D01*
X164864918Y-142883271D01*
X164923366Y-143201729D01*
X165042557Y-143502770D01*
X165217950Y-143774927D01*
X165442865Y-144007833D01*
X165708735Y-144192617D01*
X166005433Y-144322241D01*
X166321657Y-144391768D01*
X166645364Y-144398549D01*
X166964223Y-144342325D01*
X167266088Y-144225239D01*
X167539463Y-144051750D01*
X167773934Y-143828467D01*
X167960570Y-143563894D01*
X168092262Y-143268108D01*
X168163994Y-142952376D01*
X168169158Y-142582561D01*
X168106270Y-142264950D01*
X167982887Y-141965602D01*
X167803712Y-141695921D01*
X167575567Y-141466178D01*
X167307143Y-141285124D01*
X167008664Y-141159655D01*
X166691499Y-141094550D01*
X166367730Y-141092290D01*
X166049687Y-141152960D01*
X165749485Y-141274249D01*
X165478560Y-141451538D01*
X165247229Y-141678073D01*
X165064306Y-141945226D01*
X164936756Y-142242822D01*
X164869439Y-142559524D01*
X164864918Y-142883271D01*
X162167574Y-142883271D01*
X161917861Y-142832012D01*
X161594092Y-142829752D01*
X161276049Y-142890422D01*
X160975847Y-143011711D01*
X160704922Y-143189000D01*
X160473591Y-143415535D01*
X160290668Y-143682688D01*
X160163118Y-143980284D01*
X160095801Y-144296986D01*
X160091280Y-144620733D01*
X159902420Y-144620733D01*
X159906620Y-144320023D01*
X159843732Y-144002412D01*
X159720349Y-143703064D01*
X159541174Y-143433383D01*
X159313029Y-143203640D01*
X159044605Y-143022586D01*
X158746126Y-142897117D01*
X158428961Y-142832012D01*
X158105192Y-142829752D01*
X157787149Y-142890422D01*
X157486947Y-143011711D01*
X157216022Y-143189000D01*
X156984691Y-143415535D01*
X156801768Y-143682688D01*
X156674218Y-143980284D01*
X156606901Y-144296986D01*
X156602380Y-144620733D01*
X155907748Y-144620733D01*
X155789055Y-144540674D01*
X155490576Y-144415205D01*
X155173411Y-144350100D01*
X154849642Y-144347840D01*
X154531599Y-144408510D01*
X154231397Y-144529799D01*
X153960472Y-144707088D01*
X153729141Y-144933623D01*
X153546218Y-145200776D01*
X153418668Y-145498372D01*
X153351351Y-145815074D01*
X153346830Y-146138821D01*
X152652198Y-146138821D01*
X152533505Y-146058762D01*
X152235026Y-145933293D01*
X151917861Y-145868188D01*
X151594092Y-145865928D01*
X151276049Y-145926598D01*
X150975847Y-146047887D01*
X150704922Y-146225176D01*
X150473591Y-146451711D01*
X150290668Y-146718864D01*
X150163118Y-147016460D01*
X150095801Y-147333162D01*
X150091280Y-147656909D01*
X148435238Y-147656909D01*
X146327309Y-145962092D01*
X145560377Y-145048098D01*
X145873864Y-145117023D01*
X146197571Y-145123804D01*
X146516430Y-145067580D01*
X146818295Y-144950494D01*
X147091670Y-144777005D01*
X147326141Y-144553722D01*
X147512777Y-144289149D01*
X147644469Y-143993363D01*
X147716201Y-143677631D01*
X147721365Y-143307816D01*
X147658477Y-142990205D01*
X147614402Y-142883271D01*
X151828742Y-142883271D01*
X151887190Y-143201729D01*
X152006381Y-143502770D01*
X152181774Y-143774927D01*
X152406689Y-144007833D01*
X152672559Y-144192617D01*
X152969257Y-144322241D01*
X153285481Y-144391768D01*
X153609188Y-144398549D01*
X153928047Y-144342325D01*
X154229912Y-144225239D01*
X154503287Y-144051750D01*
X154737758Y-143828467D01*
X154924394Y-143563894D01*
X155056086Y-143268108D01*
X155127818Y-142952376D01*
X155132982Y-142582561D01*
X155070094Y-142264950D01*
X154946711Y-141965602D01*
X154767536Y-141695921D01*
X154539391Y-141466178D01*
X154270967Y-141285124D01*
X153972488Y-141159655D01*
X153655323Y-141094550D01*
X153331554Y-141092290D01*
X153013511Y-141152960D01*
X152713309Y-141274249D01*
X152442384Y-141451538D01*
X152211053Y-141678073D01*
X152028130Y-141945226D01*
X151900580Y-142242822D01*
X151833263Y-142559524D01*
X151828742Y-142883271D01*
X147614402Y-142883271D01*
X147535094Y-142690857D01*
X147355919Y-142421176D01*
X147127774Y-142191433D01*
X146859350Y-142010379D01*
X146560871Y-141884910D01*
X146243706Y-141819805D01*
X145919937Y-141817545D01*
X145601894Y-141878215D01*
X145301692Y-141999504D01*
X145030767Y-142176793D01*
X144799436Y-142403328D01*
X144616513Y-142670481D01*
X144488963Y-142968077D01*
X144421646Y-143284779D01*
X144417125Y-143608526D01*
X144435236Y-143707207D01*
X143875788Y-143040482D01*
X142298674Y-140171724D01*
X142455072Y-140333678D01*
X142720942Y-140518462D01*
X143017640Y-140648086D01*
X143333864Y-140717613D01*
X143657571Y-140724394D01*
X143976430Y-140668170D01*
X144278295Y-140551084D01*
X144551670Y-140377595D01*
X144786141Y-140154312D01*
X144797068Y-140138821D01*
X145346830Y-140138821D01*
X145405278Y-140457279D01*
X145524469Y-140758320D01*
X145699862Y-141030477D01*
X145924777Y-141263383D01*
X146190647Y-141448167D01*
X146487345Y-141577791D01*
X146803569Y-141647318D01*
X147127276Y-141654099D01*
X147446135Y-141597875D01*
X147748000Y-141480789D01*
X148021375Y-141307300D01*
X148255846Y-141084017D01*
X148266773Y-141068526D01*
X148816535Y-141068526D01*
X148874983Y-141386984D01*
X148994174Y-141688025D01*
X149169567Y-141960182D01*
X149394482Y-142193088D01*
X149660352Y-142377872D01*
X149957050Y-142507496D01*
X150273274Y-142577023D01*
X150596981Y-142583804D01*
X150915840Y-142527580D01*
X151217705Y-142410494D01*
X151491080Y-142237005D01*
X151725551Y-142013722D01*
X151912187Y-141749149D01*
X152043879Y-141453363D01*
X152115611Y-141137631D01*
X152116575Y-141068526D01*
X167877125Y-141068526D01*
X167935573Y-141386984D01*
X168054764Y-141688025D01*
X168230157Y-141960182D01*
X168455072Y-142193088D01*
X168720942Y-142377872D01*
X169017640Y-142507496D01*
X169333864Y-142577023D01*
X169657571Y-142583804D01*
X169976430Y-142527580D01*
X170278295Y-142410494D01*
X170551670Y-142237005D01*
X170786141Y-142013722D01*
X170972777Y-141749149D01*
X171104469Y-141453363D01*
X171176201Y-141137631D01*
X171181365Y-140767816D01*
X171118477Y-140450205D01*
X170995094Y-140150857D01*
X170987098Y-140138821D01*
X171346830Y-140138821D01*
X171405278Y-140457279D01*
X171524469Y-140758320D01*
X171699862Y-141030477D01*
X171924777Y-141263383D01*
X172190647Y-141448167D01*
X172487345Y-141577791D01*
X172803569Y-141647318D01*
X173127276Y-141654099D01*
X173446135Y-141597875D01*
X173748000Y-141480789D01*
X174021375Y-141307300D01*
X174255846Y-141084017D01*
X174442482Y-140819444D01*
X174574174Y-140523658D01*
X174645906Y-140207926D01*
X174651070Y-139838111D01*
X174588182Y-139520500D01*
X174464799Y-139221152D01*
X174285624Y-138951471D01*
X174057479Y-138721728D01*
X173789055Y-138540674D01*
X173490576Y-138415205D01*
X173173411Y-138350100D01*
X172849642Y-138347840D01*
X172531599Y-138408510D01*
X172231397Y-138529799D01*
X171960472Y-138707088D01*
X171729141Y-138933623D01*
X171546218Y-139200776D01*
X171418668Y-139498372D01*
X171351351Y-139815074D01*
X171346830Y-140138821D01*
X170987098Y-140138821D01*
X170815919Y-139881176D01*
X170587774Y-139651433D01*
X170319350Y-139470379D01*
X170020871Y-139344910D01*
X169703706Y-139279805D01*
X169379937Y-139277545D01*
X169061894Y-139338215D01*
X168761692Y-139459504D01*
X168490767Y-139636793D01*
X168259436Y-139863328D01*
X168076513Y-140130481D01*
X167948963Y-140428077D01*
X167881646Y-140744779D01*
X167877125Y-141068526D01*
X152116575Y-141068526D01*
X152120775Y-140767816D01*
X152057887Y-140450205D01*
X151934504Y-140150857D01*
X151755329Y-139881176D01*
X151527184Y-139651433D01*
X151258760Y-139470379D01*
X150960281Y-139344910D01*
X150643116Y-139279805D01*
X150319347Y-139277545D01*
X150001304Y-139338215D01*
X149701102Y-139459504D01*
X149430177Y-139636793D01*
X149198846Y-139863328D01*
X149015923Y-140130481D01*
X148888373Y-140428077D01*
X148821056Y-140744779D01*
X148816535Y-141068526D01*
X148266773Y-141068526D01*
X148442482Y-140819444D01*
X148574174Y-140523658D01*
X148645906Y-140207926D01*
X148651070Y-139838111D01*
X148588182Y-139520500D01*
X148464799Y-139221152D01*
X148285624Y-138951471D01*
X148057479Y-138721728D01*
X147789055Y-138540674D01*
X147490576Y-138415205D01*
X147173411Y-138350100D01*
X146849642Y-138347840D01*
X146531599Y-138408510D01*
X146231397Y-138529799D01*
X145960472Y-138707088D01*
X145729141Y-138933623D01*
X145546218Y-139200776D01*
X145418668Y-139498372D01*
X145351351Y-139815074D01*
X145346830Y-140138821D01*
X144797068Y-140138821D01*
X144972777Y-139889739D01*
X145104469Y-139593953D01*
X145176201Y-139278221D01*
X145181365Y-138908406D01*
X145118477Y-138590795D01*
X144995094Y-138291447D01*
X144815919Y-138021766D01*
X144587774Y-137792023D01*
X144319350Y-137610969D01*
X144020871Y-137485500D01*
X143703706Y-137420395D01*
X143379937Y-137418135D01*
X143061894Y-137478805D01*
X142761692Y-137600094D01*
X142490767Y-137777383D01*
X142259436Y-138003918D01*
X142076513Y-138271071D01*
X141948963Y-138568667D01*
X141881646Y-138885369D01*
X141877383Y-139190658D01*
X141077503Y-136669116D01*
X146276535Y-136669116D01*
X146334983Y-136987574D01*
X146454174Y-137288615D01*
X146629567Y-137560772D01*
X146854482Y-137793678D01*
X147120352Y-137978462D01*
X147417050Y-138108086D01*
X147733274Y-138177613D01*
X148056981Y-138184394D01*
X148375840Y-138128170D01*
X148677705Y-138011084D01*
X148951080Y-137837595D01*
X149185551Y-137614312D01*
X149372187Y-137349739D01*
X149503879Y-137053953D01*
X149575611Y-136738221D01*
X149576575Y-136669116D01*
X170417125Y-136669116D01*
X170475573Y-136987574D01*
X170594764Y-137288615D01*
X170770157Y-137560772D01*
X170995072Y-137793678D01*
X171260942Y-137978462D01*
X171557640Y-138108086D01*
X171873864Y-138177613D01*
X172197571Y-138184394D01*
X172516430Y-138128170D01*
X172818295Y-138011084D01*
X173091670Y-137837595D01*
X173326141Y-137614312D01*
X173512777Y-137349739D01*
X173644469Y-137053953D01*
X173716201Y-136738221D01*
X173721365Y-136368406D01*
X173658477Y-136050795D01*
X173535094Y-135751447D01*
X173355919Y-135481766D01*
X173127774Y-135252023D01*
X172859350Y-135070969D01*
X172560871Y-134945500D01*
X172243706Y-134880395D01*
X171919937Y-134878135D01*
X171601894Y-134938805D01*
X171301692Y-135060094D01*
X171030767Y-135237383D01*
X170799436Y-135463918D01*
X170616513Y-135731071D01*
X170488963Y-136028667D01*
X170421646Y-136345369D01*
X170417125Y-136669116D01*
X149576575Y-136669116D01*
X149580775Y-136368406D01*
X149517887Y-136050795D01*
X149394504Y-135751447D01*
X149215329Y-135481766D01*
X148987184Y-135252023D01*
X148718760Y-135070969D01*
X148420281Y-134945500D01*
X148103116Y-134880395D01*
X147779347Y-134878135D01*
X147461304Y-134938805D01*
X147161102Y-135060094D01*
X146890177Y-135237383D01*
X146658846Y-135463918D01*
X146475923Y-135731071D01*
X146348373Y-136028667D01*
X146281056Y-136345369D01*
X146276535Y-136669116D01*
X141077503Y-136669116D01*
X140885222Y-136062970D01*
X140585023Y-133386632D01*
X140709862Y-133515907D01*
X141028874Y-133737626D01*
X141384875Y-133893159D01*
X141764307Y-133976582D01*
X142152716Y-133984718D01*
X142535308Y-133917257D01*
X142897510Y-133776768D01*
X143225526Y-133568602D01*
X143506863Y-133300689D01*
X143730804Y-132983233D01*
X143888818Y-132628326D01*
X143974889Y-132249486D01*
X143981085Y-131805753D01*
X143905626Y-131424658D01*
X143757582Y-131065477D01*
X143542593Y-130741892D01*
X143268847Y-130466228D01*
X142946770Y-130248985D01*
X142588632Y-130098437D01*
X142208073Y-130020320D01*
X141819588Y-130017607D01*
X141437975Y-130090404D01*
X141077770Y-130235936D01*
X140752692Y-130448662D01*
X140475123Y-130720477D01*
X140456000Y-130748405D01*
X140456000Y-125074750D01*
X155109832Y-125074750D01*
X155141304Y-125246227D01*
X155205483Y-125408326D01*
X155299926Y-125554872D01*
X155421034Y-125680283D01*
X155564194Y-125779782D01*
X155723955Y-125849580D01*
X155894230Y-125887017D01*
X156068533Y-125890668D01*
X156240226Y-125860394D01*
X156402769Y-125797348D01*
X156549971Y-125703931D01*
X156676224Y-125583701D01*
X156776721Y-125441239D01*
X156847632Y-125281970D01*
X156886257Y-125111960D01*
X156886776Y-125074750D01*
X163109832Y-125074750D01*
X163141304Y-125246227D01*
X163205483Y-125408326D01*
X163299926Y-125554872D01*
X163421034Y-125680283D01*
X163564194Y-125779782D01*
X163723955Y-125849580D01*
X163894230Y-125887017D01*
X164068533Y-125890668D01*
X164240226Y-125860394D01*
X164402769Y-125797348D01*
X164549971Y-125703931D01*
X164676224Y-125583701D01*
X164776721Y-125441239D01*
X164847632Y-125281970D01*
X164886257Y-125111960D01*
X164889038Y-124912829D01*
X164855174Y-124741808D01*
X164788738Y-124580621D01*
X164692259Y-124435408D01*
X164569411Y-124311700D01*
X164424876Y-124214209D01*
X164264156Y-124146649D01*
X164093375Y-124111593D01*
X163919038Y-124110375D01*
X163747784Y-124143044D01*
X163586137Y-124208353D01*
X163440254Y-124303817D01*
X163315692Y-124425797D01*
X163217194Y-124569649D01*
X163148514Y-124729893D01*
X163112266Y-124900425D01*
X163109832Y-125074750D01*
X156886776Y-125074750D01*
X156889038Y-124912829D01*
X156855174Y-124741808D01*
X156788738Y-124580621D01*
X156692259Y-124435408D01*
X156569411Y-124311700D01*
X156424876Y-124214209D01*
X156264156Y-124146649D01*
X156093375Y-124111593D01*
X155919038Y-124110375D01*
X155747784Y-124143044D01*
X155586137Y-124208353D01*
X155440254Y-124303817D01*
X155315692Y-124425797D01*
X155217194Y-124569649D01*
X155148514Y-124729893D01*
X155112266Y-124900425D01*
X155109832Y-125074750D01*
X140456000Y-125074750D01*
X140456000Y-112574750D01*
X160809832Y-112574750D01*
X160841304Y-112746227D01*
X160905483Y-112908326D01*
X160999926Y-113054872D01*
X161121034Y-113180283D01*
X161264194Y-113279782D01*
X161423955Y-113349580D01*
X161594230Y-113387017D01*
X161768533Y-113390668D01*
X161940226Y-113360394D01*
X162102769Y-113297348D01*
X162249971Y-113203931D01*
X162376224Y-113083701D01*
X162476721Y-112941239D01*
X162547632Y-112781970D01*
X162586257Y-112611960D01*
X162589038Y-112412829D01*
X162555174Y-112241808D01*
X162488738Y-112080621D01*
X162392259Y-111935408D01*
X162269411Y-111811700D01*
X162124876Y-111714209D01*
X161964156Y-111646649D01*
X161793375Y-111611593D01*
X161619038Y-111610375D01*
X161447784Y-111643044D01*
X161286137Y-111708353D01*
X161140254Y-111803817D01*
X161015692Y-111925797D01*
X160917194Y-112069649D01*
X160848514Y-112229893D01*
X160812266Y-112400425D01*
X160809832Y-112574750D01*
X140456000Y-112574750D01*
X140456000Y-111381000D01*
X145366863Y-111381000D01*
X145394230Y-111387017D01*
M02*
