G04 #@! TF.FileFunction,Copper,L2,Inr,Plane*
%FSLAX46Y46*%
G04 Gerber Fmt 4.6, Leading zero omitted, Abs format (unit mm)*
G04 Created by KiCad (PCBNEW (2016-04-26 BZR 6712)-product) date Friday, 13 May 2016 'amt' 09:44:12*
%MOMM*%
%LPD*%
G01*
G04 APERTURE LIST*
%ADD10C,0.100000*%
%ADD11R,2.032000X1.727200*%
%ADD12O,2.032000X1.727200*%
%ADD13C,0.685800*%
%ADD14C,2.540000*%
%ADD15C,1.500000*%
%ADD16R,2.800000X3.000000*%
%ADD17C,1.016000*%
%ADD18C,0.254000*%
G04 APERTURE END LIST*
D10*
D11*
X190000000Y-96380000D03*
D12*
X190000000Y-98920000D03*
X190000000Y-101460000D03*
X190000000Y-104000000D03*
X190000000Y-106540000D03*
X190000000Y-109080000D03*
X190000000Y-111620000D03*
X190000000Y-114160000D03*
D13*
X141000000Y-99000000D03*
X146900000Y-108900000D03*
X152600000Y-108400000D03*
X152900000Y-104600000D03*
X150600000Y-106200000D03*
X146900000Y-103200000D03*
D14*
X147000000Y-140000000D03*
X150469705Y-140929705D03*
X146070295Y-143469705D03*
X143530295Y-139070295D03*
X147929705Y-136530295D03*
X155000000Y-146000000D03*
X158255550Y-144481912D03*
X156518088Y-149255550D03*
X151744450Y-147518088D03*
X153481912Y-142744450D03*
X165000000Y-146000000D03*
X166518088Y-142744450D03*
X168255550Y-147518088D03*
X163481912Y-149255550D03*
X161744450Y-144481912D03*
X173000000Y-140000000D03*
X172070295Y-136530295D03*
X176469705Y-139070295D03*
X173929705Y-143469705D03*
X169530295Y-140929705D03*
D15*
X152040000Y-90000000D03*
X149500000Y-90000000D03*
X154580000Y-90000000D03*
D16*
X157090000Y-86170000D03*
X146990000Y-86170000D03*
D15*
X168000000Y-90000000D03*
X165460000Y-90000000D03*
X170540000Y-90000000D03*
D16*
X173050000Y-86170000D03*
X162950000Y-86170000D03*
D13*
X147100000Y-106100000D03*
D17*
X164000000Y-125000000D03*
X156000000Y-125000000D03*
X158600006Y-106600000D03*
X162800000Y-108000000D03*
X171050000Y-102500000D03*
X145300000Y-100500000D03*
X161700000Y-112500000D03*
X148500000Y-110700000D03*
X171050012Y-108700000D03*
X151000000Y-99500000D03*
X157100000Y-106600000D03*
X162200000Y-106700000D03*
X162700000Y-110400000D03*
X145500000Y-110500000D03*
X156000000Y-127000000D03*
X164000000Y-127000000D03*
X148500000Y-112300000D03*
D13*
X153500000Y-109500000D03*
X166000000Y-109000000D03*
X164499995Y-104676423D03*
X164500000Y-103000008D03*
X163500000Y-103000006D03*
X162500000Y-103000000D03*
X164499988Y-103838212D03*
D18*
G36*
X176687940Y-83525640D02*
X177349683Y-83725432D01*
X177960009Y-84049948D01*
X178495683Y-84486833D01*
X178936296Y-85019443D01*
X179265068Y-85627494D01*
X179469473Y-86287818D01*
X179543986Y-86996766D01*
X179544000Y-87000720D01*
X179544000Y-94744010D01*
X179542593Y-94741892D01*
X179268847Y-94466228D01*
X178946770Y-94248985D01*
X178588632Y-94098437D01*
X178208073Y-94020320D01*
X177819588Y-94017607D01*
X177437975Y-94090404D01*
X177077770Y-94235936D01*
X176752692Y-94448662D01*
X176475123Y-94720477D01*
X176255637Y-95041028D01*
X176102593Y-95398107D01*
X176021820Y-95778112D01*
X176016396Y-96166568D01*
X176086527Y-96548680D01*
X176229541Y-96909892D01*
X176439992Y-97236447D01*
X176709862Y-97515907D01*
X177028874Y-97737626D01*
X177384875Y-97893159D01*
X177764307Y-97976582D01*
X178152716Y-97984718D01*
X178535308Y-97917257D01*
X178897510Y-97776768D01*
X179225526Y-97568602D01*
X179506863Y-97300689D01*
X179544000Y-97248044D01*
X179544000Y-130744010D01*
X179542593Y-130741892D01*
X179268847Y-130466228D01*
X178946770Y-130248985D01*
X178588632Y-130098437D01*
X178208073Y-130020320D01*
X177819588Y-130017607D01*
X177437975Y-130090404D01*
X177077770Y-130235936D01*
X176752692Y-130448662D01*
X176475123Y-130720477D01*
X176255637Y-131041028D01*
X176102593Y-131398107D01*
X176021820Y-131778112D01*
X176016396Y-132166568D01*
X176086527Y-132548680D01*
X176229541Y-132909892D01*
X176439992Y-133236447D01*
X176709862Y-133515907D01*
X177028874Y-133737626D01*
X177384875Y-133893159D01*
X177764307Y-133976582D01*
X178152716Y-133984718D01*
X178535308Y-133917257D01*
X178897510Y-133776768D01*
X179225526Y-133568602D01*
X179404744Y-133397935D01*
X179169642Y-135795692D01*
X178098476Y-139343566D01*
X178121441Y-139225253D01*
X178128039Y-139023697D01*
X178008040Y-138789579D01*
X176625248Y-139160098D01*
X176995766Y-140542890D01*
X177258517Y-140529753D01*
X177528086Y-140347820D01*
X177657888Y-140216811D01*
X176276793Y-142814271D01*
X175570693Y-143680036D01*
X175581441Y-143624663D01*
X175588039Y-143423107D01*
X175468040Y-143188989D01*
X174175053Y-143535445D01*
X174123454Y-143483846D01*
X173943846Y-143663454D01*
X174175052Y-143894659D01*
X174455766Y-144942300D01*
X174544848Y-144937846D01*
X173866298Y-145769831D01*
X170927646Y-148200895D01*
X167572756Y-150014878D01*
X163929426Y-151142677D01*
X160136425Y-151541338D01*
X156338229Y-151195674D01*
X152679509Y-150118854D01*
X152508270Y-150029332D01*
X155159215Y-150029332D01*
X155217778Y-150285810D01*
X155443757Y-150519692D01*
X155711021Y-150704994D01*
X156009301Y-150834594D01*
X156327134Y-150903512D01*
X156652305Y-150909100D01*
X156851945Y-150880598D01*
X157061668Y-150721768D01*
X162938332Y-150721768D01*
X163148055Y-150880598D01*
X163471502Y-150914506D01*
X163795348Y-150884661D01*
X164107148Y-150792209D01*
X164394922Y-150640705D01*
X164556525Y-150509770D01*
X164564756Y-150518001D01*
X164643273Y-150439484D01*
X164647610Y-150435970D01*
X164654735Y-150428022D01*
X164744363Y-150338394D01*
X164739470Y-150333501D01*
X164782222Y-150285810D01*
X164840785Y-150029332D01*
X164081015Y-149675046D01*
X163675661Y-149269691D01*
X163496053Y-149449299D01*
X163520360Y-149473606D01*
X162938332Y-150721768D01*
X157061668Y-150721768D01*
X156456659Y-149424324D01*
X155159215Y-150029332D01*
X152508270Y-150029332D01*
X151284895Y-149389767D01*
X154864538Y-149389767D01*
X154893040Y-149589407D01*
X155051870Y-149799130D01*
X156085844Y-149316979D01*
X156686862Y-149316979D01*
X157291870Y-150614423D01*
X157548348Y-150555860D01*
X157782230Y-150329881D01*
X157967532Y-150062617D01*
X158097132Y-149764337D01*
X158166050Y-149446504D01*
X158169510Y-149245140D01*
X161822956Y-149245140D01*
X161852801Y-149568986D01*
X161945253Y-149880786D01*
X162096757Y-150168560D01*
X162227692Y-150330163D01*
X162219461Y-150338394D01*
X162297978Y-150416911D01*
X162301492Y-150421248D01*
X162309440Y-150428373D01*
X162399068Y-150518001D01*
X162403961Y-150513108D01*
X162451652Y-150555860D01*
X162708130Y-150614423D01*
X163062416Y-149854653D01*
X163467771Y-149449299D01*
X163288163Y-149269691D01*
X163263856Y-149293998D01*
X162015694Y-148711970D01*
X161856864Y-148921693D01*
X161822956Y-149245140D01*
X158169510Y-149245140D01*
X158171638Y-149121333D01*
X158143136Y-148921693D01*
X157984306Y-148711970D01*
X156686862Y-149316979D01*
X156085844Y-149316979D01*
X156349314Y-149194121D01*
X155744306Y-147896677D01*
X155487828Y-147955240D01*
X155253946Y-148181219D01*
X155068644Y-148448483D01*
X154939044Y-148746763D01*
X154870126Y-149064596D01*
X154864538Y-149389767D01*
X151284895Y-149389767D01*
X149299620Y-148351890D01*
X149224971Y-148291870D01*
X150385577Y-148291870D01*
X150444140Y-148548348D01*
X150670119Y-148782230D01*
X150937383Y-148967532D01*
X151235663Y-149097132D01*
X151553496Y-149166050D01*
X151878667Y-149171638D01*
X152078307Y-149143136D01*
X152288030Y-148984306D01*
X151683021Y-147686862D01*
X150385577Y-148291870D01*
X149224971Y-148291870D01*
X148429512Y-147652305D01*
X150090900Y-147652305D01*
X150119402Y-147851945D01*
X150278232Y-148061668D01*
X151312206Y-147579517D01*
X151913224Y-147579517D01*
X152518232Y-148876961D01*
X152774710Y-148818398D01*
X153008592Y-148592419D01*
X153193894Y-148325155D01*
X153323494Y-148026875D01*
X153375002Y-147789332D01*
X155974508Y-147789332D01*
X156579517Y-149086776D01*
X157876961Y-148481768D01*
X162123039Y-148481768D01*
X162882809Y-148836054D01*
X163288163Y-149241409D01*
X163467771Y-149061801D01*
X163496053Y-149061801D01*
X163675661Y-149241409D01*
X163699968Y-149217102D01*
X164948130Y-149799130D01*
X165106960Y-149589407D01*
X165140868Y-149265960D01*
X165114912Y-148984306D01*
X167711970Y-148984306D01*
X167921693Y-149143136D01*
X168245140Y-149177044D01*
X168568986Y-149147199D01*
X168880786Y-149054747D01*
X169168560Y-148903243D01*
X169330163Y-148772308D01*
X169338394Y-148780539D01*
X169416911Y-148702022D01*
X169421248Y-148698508D01*
X169428373Y-148690560D01*
X169518001Y-148600932D01*
X169513108Y-148596039D01*
X169555860Y-148548348D01*
X169614423Y-148291870D01*
X168854653Y-147937584D01*
X168449299Y-147532229D01*
X168269691Y-147711837D01*
X168293998Y-147736144D01*
X167711970Y-148984306D01*
X165114912Y-148984306D01*
X165111023Y-148942114D01*
X165018571Y-148630314D01*
X164867067Y-148342540D01*
X164736132Y-148180937D01*
X164744363Y-148172706D01*
X164665846Y-148094189D01*
X164662332Y-148089852D01*
X164654384Y-148082727D01*
X164564756Y-147993099D01*
X164559863Y-147997992D01*
X164512172Y-147955240D01*
X164255694Y-147896677D01*
X163901408Y-148656447D01*
X163496053Y-149061801D01*
X163467771Y-149061801D01*
X163443464Y-149037494D01*
X164025492Y-147789332D01*
X163815769Y-147630502D01*
X163492322Y-147596594D01*
X163168476Y-147626439D01*
X162856676Y-147718891D01*
X162568902Y-147870395D01*
X162407299Y-148001330D01*
X162399068Y-147993099D01*
X162320551Y-148071616D01*
X162316214Y-148075130D01*
X162309089Y-148083078D01*
X162219461Y-148172706D01*
X162224354Y-148177599D01*
X162181602Y-148225290D01*
X162123039Y-148481768D01*
X157876961Y-148481768D01*
X157818398Y-148225290D01*
X157592419Y-147991408D01*
X157325155Y-147806106D01*
X157026875Y-147676506D01*
X156709042Y-147607588D01*
X156383871Y-147602000D01*
X156184231Y-147630502D01*
X155974508Y-147789332D01*
X153375002Y-147789332D01*
X153392412Y-147709042D01*
X153398000Y-147383871D01*
X153369498Y-147184231D01*
X153210668Y-146974508D01*
X151913224Y-147579517D01*
X151312206Y-147579517D01*
X151575676Y-147456659D01*
X150970668Y-146159215D01*
X150714190Y-146217778D01*
X150480308Y-146443757D01*
X150295006Y-146711021D01*
X150165406Y-147009301D01*
X150096488Y-147327134D01*
X150090900Y-147652305D01*
X148429512Y-147652305D01*
X146438971Y-146051870D01*
X151200870Y-146051870D01*
X151805879Y-147349314D01*
X153103323Y-146744306D01*
X153044760Y-146487828D01*
X152818781Y-146253946D01*
X152652735Y-146138821D01*
X153346830Y-146138821D01*
X153405278Y-146457279D01*
X153524469Y-146758320D01*
X153699862Y-147030477D01*
X153924777Y-147263383D01*
X154190647Y-147448167D01*
X154487345Y-147577791D01*
X154803569Y-147647318D01*
X155127276Y-147654099D01*
X155446135Y-147597875D01*
X155748000Y-147480789D01*
X156021375Y-147307300D01*
X156255846Y-147084017D01*
X156442482Y-146819444D01*
X156574174Y-146523658D01*
X156645906Y-146207926D01*
X156651070Y-145838111D01*
X156588182Y-145520500D01*
X156479037Y-145255694D01*
X156896677Y-145255694D01*
X156955240Y-145512172D01*
X157181219Y-145746054D01*
X157448483Y-145931356D01*
X157746763Y-146060956D01*
X158064596Y-146129874D01*
X158389767Y-146135462D01*
X158589407Y-146106960D01*
X158799130Y-145948130D01*
X161200870Y-145948130D01*
X161410593Y-146106960D01*
X161734040Y-146140868D01*
X161756251Y-146138821D01*
X163346830Y-146138821D01*
X163405278Y-146457279D01*
X163524469Y-146758320D01*
X163699862Y-147030477D01*
X163924777Y-147263383D01*
X164190647Y-147448167D01*
X164487345Y-147577791D01*
X164803569Y-147647318D01*
X165127276Y-147654099D01*
X165446135Y-147597875D01*
X165678676Y-147507678D01*
X166596594Y-147507678D01*
X166626439Y-147831524D01*
X166718891Y-148143324D01*
X166870395Y-148431098D01*
X167001330Y-148592701D01*
X166993099Y-148600932D01*
X167071616Y-148679449D01*
X167075130Y-148683786D01*
X167083078Y-148690911D01*
X167172706Y-148780539D01*
X167177599Y-148775646D01*
X167225290Y-148818398D01*
X167481768Y-148876961D01*
X167836054Y-148117191D01*
X168241409Y-147711837D01*
X168061801Y-147532229D01*
X168037494Y-147556536D01*
X166789332Y-146974508D01*
X166630502Y-147184231D01*
X166596594Y-147507678D01*
X165678676Y-147507678D01*
X165748000Y-147480789D01*
X166021375Y-147307300D01*
X166255846Y-147084017D01*
X166442482Y-146819444D01*
X166475935Y-146744306D01*
X166896677Y-146744306D01*
X167656447Y-147098592D01*
X168061801Y-147503947D01*
X168241409Y-147324339D01*
X168269691Y-147324339D01*
X168449299Y-147503947D01*
X168473606Y-147479640D01*
X169721768Y-148061668D01*
X169880598Y-147851945D01*
X169914506Y-147528498D01*
X169884661Y-147204652D01*
X169792209Y-146892852D01*
X169640705Y-146605078D01*
X169509770Y-146443475D01*
X169518001Y-146435244D01*
X169439484Y-146356727D01*
X169435970Y-146352390D01*
X169428022Y-146345265D01*
X169338394Y-146255637D01*
X169333501Y-146260530D01*
X169285810Y-146217778D01*
X169029332Y-146159215D01*
X168675046Y-146918985D01*
X168269691Y-147324339D01*
X168241409Y-147324339D01*
X168217102Y-147300032D01*
X168799130Y-146051870D01*
X168589407Y-145893040D01*
X168265960Y-145859132D01*
X167942114Y-145888977D01*
X167630314Y-145981429D01*
X167342540Y-146132933D01*
X167180937Y-146263868D01*
X167172706Y-146255637D01*
X167094189Y-146334154D01*
X167089852Y-146337668D01*
X167082727Y-146345616D01*
X166993099Y-146435244D01*
X166997992Y-146440137D01*
X166955240Y-146487828D01*
X166896677Y-146744306D01*
X166475935Y-146744306D01*
X166574174Y-146523658D01*
X166645906Y-146207926D01*
X166651070Y-145838111D01*
X166588182Y-145520500D01*
X166464799Y-145221152D01*
X166285624Y-144951471D01*
X166057479Y-144721728D01*
X165789055Y-144540674D01*
X165490576Y-144415205D01*
X165173411Y-144350100D01*
X164849642Y-144347840D01*
X164531599Y-144408510D01*
X164231397Y-144529799D01*
X163960472Y-144707088D01*
X163729141Y-144933623D01*
X163546218Y-145200776D01*
X163418668Y-145498372D01*
X163351351Y-145815074D01*
X163346830Y-146138821D01*
X161756251Y-146138821D01*
X162057886Y-146111023D01*
X162369686Y-146018571D01*
X162657460Y-145867067D01*
X162819063Y-145736132D01*
X162827294Y-145744363D01*
X162905811Y-145665846D01*
X162910148Y-145662332D01*
X162917273Y-145654384D01*
X163006901Y-145564756D01*
X163002008Y-145559863D01*
X163044760Y-145512172D01*
X163103323Y-145255694D01*
X162343553Y-144901408D01*
X161938199Y-144496053D01*
X161758591Y-144675661D01*
X161782898Y-144699968D01*
X161200870Y-145948130D01*
X158799130Y-145948130D01*
X158194121Y-144650686D01*
X156896677Y-145255694D01*
X156479037Y-145255694D01*
X156464799Y-145221152D01*
X156285624Y-144951471D01*
X156057479Y-144721728D01*
X155900922Y-144616129D01*
X156602000Y-144616129D01*
X156630502Y-144815769D01*
X156789332Y-145025492D01*
X157823306Y-144543341D01*
X158424324Y-144543341D01*
X159029332Y-145840785D01*
X159285810Y-145782222D01*
X159519692Y-145556243D01*
X159704994Y-145288979D01*
X159834594Y-144990699D01*
X159903512Y-144672866D01*
X159906972Y-144471502D01*
X160085494Y-144471502D01*
X160115339Y-144795348D01*
X160207791Y-145107148D01*
X160359295Y-145394922D01*
X160490230Y-145556525D01*
X160481999Y-145564756D01*
X160560516Y-145643273D01*
X160564030Y-145647610D01*
X160571978Y-145654735D01*
X160661606Y-145744363D01*
X160666499Y-145739470D01*
X160714190Y-145782222D01*
X160970668Y-145840785D01*
X161324954Y-145081015D01*
X161730309Y-144675661D01*
X161550701Y-144496053D01*
X161526394Y-144520360D01*
X160278232Y-143938332D01*
X160119402Y-144148055D01*
X160085494Y-144471502D01*
X159906972Y-144471502D01*
X159909100Y-144347695D01*
X159880598Y-144148055D01*
X159721768Y-143938332D01*
X158424324Y-144543341D01*
X157823306Y-144543341D01*
X158086776Y-144420483D01*
X157481768Y-143123039D01*
X157225290Y-143181602D01*
X156991408Y-143407581D01*
X156806106Y-143674845D01*
X156676506Y-143973125D01*
X156607588Y-144290958D01*
X156602000Y-144616129D01*
X155900922Y-144616129D01*
X155789055Y-144540674D01*
X155490576Y-144415205D01*
X155173411Y-144350100D01*
X154849642Y-144347840D01*
X154531599Y-144408510D01*
X154231397Y-144529799D01*
X153960472Y-144707088D01*
X153729141Y-144933623D01*
X153546218Y-145200776D01*
X153418668Y-145498372D01*
X153351351Y-145815074D01*
X153346830Y-146138821D01*
X152652735Y-146138821D01*
X152551517Y-146068644D01*
X152253237Y-145939044D01*
X151935404Y-145870126D01*
X151610233Y-145864538D01*
X151410593Y-145893040D01*
X151200870Y-146051870D01*
X146438971Y-146051870D01*
X146327309Y-145962092D01*
X145526765Y-145008040D01*
X145789579Y-145008040D01*
X146023697Y-145128039D01*
X146348117Y-145105265D01*
X146661861Y-145019638D01*
X146952871Y-144874448D01*
X147209964Y-144675274D01*
X147423261Y-144429771D01*
X147529753Y-144258517D01*
X147542890Y-143995766D01*
X146160098Y-143625248D01*
X145789579Y-145008040D01*
X145526765Y-145008040D01*
X145468422Y-144938510D01*
X145544234Y-144942300D01*
X145824948Y-143894659D01*
X146056154Y-143663454D01*
X145876546Y-143483846D01*
X145824947Y-143535445D01*
X145244455Y-143379902D01*
X146225838Y-143379902D01*
X147608630Y-143750421D01*
X147727640Y-143518232D01*
X152123039Y-143518232D01*
X152181602Y-143774710D01*
X152407581Y-144008592D01*
X152674845Y-144193894D01*
X152973125Y-144323494D01*
X153290958Y-144392412D01*
X153616129Y-144398000D01*
X153815769Y-144369498D01*
X154025492Y-144210668D01*
X153420483Y-142913224D01*
X152123039Y-143518232D01*
X147727640Y-143518232D01*
X147728629Y-143516303D01*
X147705855Y-143191883D01*
X147620373Y-142878667D01*
X151828362Y-142878667D01*
X151856864Y-143078307D01*
X152015694Y-143288030D01*
X153049668Y-142805879D01*
X153650686Y-142805879D01*
X154255694Y-144103323D01*
X154512172Y-144044760D01*
X154746054Y-143818781D01*
X154931356Y-143551517D01*
X155060956Y-143253237D01*
X155112464Y-143015694D01*
X157711970Y-143015694D01*
X158316979Y-144313138D01*
X159614423Y-143708130D01*
X160385577Y-143708130D01*
X161145347Y-144062416D01*
X161550701Y-144467771D01*
X161730309Y-144288163D01*
X161758591Y-144288163D01*
X161938199Y-144467771D01*
X161962506Y-144443464D01*
X163210668Y-145025492D01*
X163369498Y-144815769D01*
X163403406Y-144492322D01*
X163377450Y-144210668D01*
X165974508Y-144210668D01*
X166184231Y-144369498D01*
X166507678Y-144403406D01*
X166831524Y-144373561D01*
X167143324Y-144281109D01*
X167431098Y-144129605D01*
X167592701Y-143998670D01*
X167600932Y-144006901D01*
X167612067Y-143995766D01*
X172457110Y-143995766D01*
X172470247Y-144258517D01*
X172652180Y-144528086D01*
X172883206Y-144756983D01*
X173154450Y-144936410D01*
X173455486Y-145059472D01*
X173774747Y-145121441D01*
X173976303Y-145128039D01*
X174210421Y-145008040D01*
X173839902Y-143625248D01*
X172457110Y-143995766D01*
X167612067Y-143995766D01*
X167679449Y-143928384D01*
X167683786Y-143924870D01*
X167690911Y-143916922D01*
X167780539Y-143827294D01*
X167775646Y-143822401D01*
X167818398Y-143774710D01*
X167876961Y-143518232D01*
X167872825Y-143516303D01*
X172271371Y-143516303D01*
X172391370Y-143750421D01*
X173774162Y-143379902D01*
X173403644Y-141997110D01*
X173140893Y-142010247D01*
X172871324Y-142192180D01*
X172642427Y-142423206D01*
X172463000Y-142694450D01*
X172339938Y-142995486D01*
X172277969Y-143314747D01*
X172271371Y-143516303D01*
X167872825Y-143516303D01*
X167117191Y-143163946D01*
X166711837Y-142758591D01*
X166532229Y-142938199D01*
X166556536Y-142962506D01*
X165974508Y-144210668D01*
X163377450Y-144210668D01*
X163373561Y-144168476D01*
X163281109Y-143856676D01*
X163129605Y-143568902D01*
X162998670Y-143407299D01*
X163006901Y-143399068D01*
X162928384Y-143320551D01*
X162924870Y-143316214D01*
X162916922Y-143309089D01*
X162827294Y-143219461D01*
X162822401Y-143224354D01*
X162774710Y-143181602D01*
X162518232Y-143123039D01*
X162163946Y-143882809D01*
X161758591Y-144288163D01*
X161730309Y-144288163D01*
X161706002Y-144263856D01*
X162288030Y-143015694D01*
X162078307Y-142856864D01*
X161754860Y-142822956D01*
X161431014Y-142852801D01*
X161119214Y-142945253D01*
X160831440Y-143096757D01*
X160669837Y-143227692D01*
X160661606Y-143219461D01*
X160583089Y-143297978D01*
X160578752Y-143301492D01*
X160571627Y-143309440D01*
X160481999Y-143399068D01*
X160486892Y-143403961D01*
X160444140Y-143451652D01*
X160385577Y-143708130D01*
X159614423Y-143708130D01*
X159555860Y-143451652D01*
X159329881Y-143217770D01*
X159062617Y-143032468D01*
X158764337Y-142902868D01*
X158446504Y-142833950D01*
X158121333Y-142828362D01*
X157921693Y-142856864D01*
X157711970Y-143015694D01*
X155112464Y-143015694D01*
X155129874Y-142935404D01*
X155133334Y-142734040D01*
X164859132Y-142734040D01*
X164888977Y-143057886D01*
X164981429Y-143369686D01*
X165132933Y-143657460D01*
X165263868Y-143819063D01*
X165255637Y-143827294D01*
X165334154Y-143905811D01*
X165337668Y-143910148D01*
X165345616Y-143917273D01*
X165435244Y-144006901D01*
X165440137Y-144002008D01*
X165487828Y-144044760D01*
X165744306Y-144103323D01*
X166098592Y-143343553D01*
X166503947Y-142938199D01*
X166324339Y-142758591D01*
X166300032Y-142782898D01*
X165051870Y-142200870D01*
X164893040Y-142410593D01*
X164859132Y-142734040D01*
X155133334Y-142734040D01*
X155135462Y-142610233D01*
X155106960Y-142410593D01*
X154948130Y-142200870D01*
X153650686Y-142805879D01*
X153049668Y-142805879D01*
X153313138Y-142683021D01*
X152708130Y-141385577D01*
X152451652Y-141444140D01*
X152217770Y-141670119D01*
X152032468Y-141937383D01*
X151902868Y-142235663D01*
X151833950Y-142553496D01*
X151828362Y-142878667D01*
X147620373Y-142878667D01*
X147620228Y-142878139D01*
X147475038Y-142587129D01*
X147382778Y-142468040D01*
X150188989Y-142468040D01*
X150423107Y-142588039D01*
X150747527Y-142565265D01*
X151061271Y-142479638D01*
X151352281Y-142334448D01*
X151609374Y-142135274D01*
X151822671Y-141889771D01*
X151929163Y-141718517D01*
X151942300Y-141455766D01*
X151279735Y-141278232D01*
X152938332Y-141278232D01*
X153543341Y-142575676D01*
X154840785Y-141970668D01*
X165159215Y-141970668D01*
X165918985Y-142324954D01*
X166324339Y-142730309D01*
X166503947Y-142550701D01*
X166532229Y-142550701D01*
X166711837Y-142730309D01*
X166736144Y-142706002D01*
X167984306Y-143288030D01*
X168143136Y-143078307D01*
X168177044Y-142754860D01*
X168147199Y-142431014D01*
X168054747Y-142119214D01*
X167903243Y-141831440D01*
X167772308Y-141669837D01*
X167780539Y-141661606D01*
X167702022Y-141583089D01*
X167698508Y-141578752D01*
X167690560Y-141571627D01*
X167600932Y-141481999D01*
X167596039Y-141486892D01*
X167561318Y-141455766D01*
X168057700Y-141455766D01*
X168070837Y-141718517D01*
X168252770Y-141988086D01*
X168483796Y-142216983D01*
X168755040Y-142396410D01*
X169056076Y-142519472D01*
X169375337Y-142581441D01*
X169576893Y-142588039D01*
X169811011Y-142468040D01*
X169440492Y-141085248D01*
X168057700Y-141455766D01*
X167561318Y-141455766D01*
X167548348Y-141444140D01*
X167291870Y-141385577D01*
X166937584Y-142145347D01*
X166532229Y-142550701D01*
X166503947Y-142550701D01*
X166479640Y-142526394D01*
X167061668Y-141278232D01*
X166851945Y-141119402D01*
X166528498Y-141085494D01*
X166204652Y-141115339D01*
X165892852Y-141207791D01*
X165605078Y-141359295D01*
X165443475Y-141490230D01*
X165435244Y-141481999D01*
X165356727Y-141560516D01*
X165352390Y-141564030D01*
X165345265Y-141571978D01*
X165255637Y-141661606D01*
X165260530Y-141666499D01*
X165217778Y-141714190D01*
X165159215Y-141970668D01*
X154840785Y-141970668D01*
X154782222Y-141714190D01*
X154556243Y-141480308D01*
X154288979Y-141295006D01*
X153990699Y-141165406D01*
X153672866Y-141096488D01*
X153347695Y-141090900D01*
X153148055Y-141119402D01*
X152938332Y-141278232D01*
X151279735Y-141278232D01*
X150559508Y-141085248D01*
X150188989Y-142468040D01*
X147382778Y-142468040D01*
X147275864Y-142330036D01*
X147030361Y-142116739D01*
X146859107Y-142010247D01*
X146596356Y-141997110D01*
X146225838Y-143379902D01*
X145244455Y-143379902D01*
X144531960Y-143188989D01*
X144411961Y-143423107D01*
X144431600Y-143702874D01*
X143875788Y-143040482D01*
X143822551Y-142943644D01*
X144597700Y-142943644D01*
X145980492Y-143314162D01*
X146351011Y-141931370D01*
X146116893Y-141811371D01*
X145792473Y-141834145D01*
X145478729Y-141919772D01*
X145187719Y-142064962D01*
X144930626Y-142264136D01*
X144717329Y-142509639D01*
X144610837Y-142680893D01*
X144597700Y-142943644D01*
X143822551Y-142943644D01*
X142538866Y-140608630D01*
X143249579Y-140608630D01*
X143483697Y-140728629D01*
X143808117Y-140705855D01*
X144121861Y-140620228D01*
X144412871Y-140475038D01*
X144669964Y-140275864D01*
X144789029Y-140138821D01*
X145346830Y-140138821D01*
X145405278Y-140457279D01*
X145524469Y-140758320D01*
X145699862Y-141030477D01*
X145924777Y-141263383D01*
X146190647Y-141448167D01*
X146487345Y-141577791D01*
X146803569Y-141647318D01*
X147127276Y-141654099D01*
X147446135Y-141597875D01*
X147748000Y-141480789D01*
X148021375Y-141307300D01*
X148255846Y-141084017D01*
X148397572Y-140883107D01*
X148811371Y-140883107D01*
X148834145Y-141207527D01*
X148919772Y-141521271D01*
X149064962Y-141812281D01*
X149264136Y-142069374D01*
X149509639Y-142282671D01*
X149680893Y-142389163D01*
X149943644Y-142402300D01*
X150314162Y-141019508D01*
X149643866Y-140839902D01*
X150625248Y-140839902D01*
X152008040Y-141210421D01*
X152128039Y-140976303D01*
X167871961Y-140976303D01*
X167991960Y-141210421D01*
X168704455Y-141019508D01*
X169685838Y-141019508D01*
X170056356Y-142402300D01*
X170319107Y-142389163D01*
X170588676Y-142207230D01*
X170817573Y-141976204D01*
X170847230Y-141931370D01*
X173648989Y-141931370D01*
X174019508Y-143314162D01*
X175402300Y-142943644D01*
X175389163Y-142680893D01*
X175207230Y-142411324D01*
X174976204Y-142182427D01*
X174704960Y-142003000D01*
X174403924Y-141879938D01*
X174084663Y-141817969D01*
X173883107Y-141811371D01*
X173648989Y-141931370D01*
X170847230Y-141931370D01*
X170997000Y-141704960D01*
X171120062Y-141403924D01*
X171182031Y-141084663D01*
X171188629Y-140883107D01*
X171068630Y-140648989D01*
X169685838Y-141019508D01*
X168704455Y-141019508D01*
X169374752Y-140839902D01*
X169004234Y-139457110D01*
X168741483Y-139470247D01*
X168471914Y-139652180D01*
X168243017Y-139883206D01*
X168063590Y-140154450D01*
X167940528Y-140455486D01*
X167878559Y-140774747D01*
X167871961Y-140976303D01*
X152128039Y-140976303D01*
X152105265Y-140651883D01*
X152019638Y-140338139D01*
X151874448Y-140047129D01*
X151675274Y-139790036D01*
X151429771Y-139576739D01*
X151258517Y-139470247D01*
X150995766Y-139457110D01*
X150625248Y-140839902D01*
X149643866Y-140839902D01*
X148931370Y-140648989D01*
X148811371Y-140883107D01*
X148397572Y-140883107D01*
X148442482Y-140819444D01*
X148574174Y-140523658D01*
X148601440Y-140403644D01*
X148997110Y-140403644D01*
X150379902Y-140774162D01*
X150750421Y-139391370D01*
X169249579Y-139391370D01*
X169620098Y-140774162D01*
X171002890Y-140403644D01*
X170989753Y-140140893D01*
X170988355Y-140138821D01*
X171346830Y-140138821D01*
X171405278Y-140457279D01*
X171524469Y-140758320D01*
X171699862Y-141030477D01*
X171924777Y-141263383D01*
X172190647Y-141448167D01*
X172487345Y-141577791D01*
X172803569Y-141647318D01*
X173127276Y-141654099D01*
X173446135Y-141597875D01*
X173748000Y-141480789D01*
X174021375Y-141307300D01*
X174255846Y-141084017D01*
X174442482Y-140819444D01*
X174574174Y-140523658D01*
X174645906Y-140207926D01*
X174651070Y-139838111D01*
X174603202Y-139596356D01*
X174997110Y-139596356D01*
X175010247Y-139859107D01*
X175192180Y-140128676D01*
X175423206Y-140357573D01*
X175694450Y-140537000D01*
X175995486Y-140660062D01*
X176314747Y-140722031D01*
X176516303Y-140728629D01*
X176750421Y-140608630D01*
X176379902Y-139225838D01*
X174997110Y-139596356D01*
X174603202Y-139596356D01*
X174588182Y-139520500D01*
X174464799Y-139221152D01*
X174395530Y-139116893D01*
X174811371Y-139116893D01*
X174931370Y-139351011D01*
X176314162Y-138980492D01*
X175943644Y-137597700D01*
X175680893Y-137610837D01*
X175411324Y-137792770D01*
X175182427Y-138023796D01*
X175003000Y-138295040D01*
X174879938Y-138596076D01*
X174817969Y-138915337D01*
X174811371Y-139116893D01*
X174395530Y-139116893D01*
X174285624Y-138951471D01*
X174057479Y-138721728D01*
X173789055Y-138540674D01*
X173490576Y-138415205D01*
X173173411Y-138350100D01*
X172849642Y-138347840D01*
X172531599Y-138408510D01*
X172231397Y-138529799D01*
X171960472Y-138707088D01*
X171729141Y-138933623D01*
X171546218Y-139200776D01*
X171418668Y-139498372D01*
X171351351Y-139815074D01*
X171346830Y-140138821D01*
X170988355Y-140138821D01*
X170807820Y-139871324D01*
X170576794Y-139642427D01*
X170305550Y-139463000D01*
X170004514Y-139339938D01*
X169685253Y-139277969D01*
X169483697Y-139271371D01*
X169249579Y-139391370D01*
X150750421Y-139391370D01*
X150516303Y-139271371D01*
X150191883Y-139294145D01*
X149878139Y-139379772D01*
X149587129Y-139524962D01*
X149330036Y-139724136D01*
X149116739Y-139969639D01*
X149010247Y-140140893D01*
X148997110Y-140403644D01*
X148601440Y-140403644D01*
X148645906Y-140207926D01*
X148651070Y-139838111D01*
X148588182Y-139520500D01*
X148464799Y-139221152D01*
X148285624Y-138951471D01*
X148057479Y-138721728D01*
X147789055Y-138540674D01*
X147490576Y-138415205D01*
X147173411Y-138350100D01*
X146849642Y-138347840D01*
X146531599Y-138408510D01*
X146231397Y-138529799D01*
X145960472Y-138707088D01*
X145729141Y-138933623D01*
X145546218Y-139200776D01*
X145418668Y-139498372D01*
X145351351Y-139815074D01*
X145346830Y-140138821D01*
X144789029Y-140138821D01*
X144883261Y-140030361D01*
X144989753Y-139859107D01*
X145002890Y-139596356D01*
X143620098Y-139225838D01*
X143249579Y-140608630D01*
X142538866Y-140608630D01*
X142307408Y-140187610D01*
X142324726Y-140209964D01*
X142570229Y-140423261D01*
X142741483Y-140529753D01*
X143004234Y-140542890D01*
X143374752Y-139160098D01*
X142704456Y-138980492D01*
X143685838Y-138980492D01*
X145068630Y-139351011D01*
X145188629Y-139116893D01*
X145165855Y-138792473D01*
X145080228Y-138478729D01*
X144935038Y-138187719D01*
X144842778Y-138068630D01*
X147648989Y-138068630D01*
X147883107Y-138188629D01*
X148207527Y-138165855D01*
X148521271Y-138080228D01*
X148812281Y-137935038D01*
X149069374Y-137735864D01*
X149282671Y-137490361D01*
X149389163Y-137319107D01*
X149402300Y-137056356D01*
X170597700Y-137056356D01*
X170610837Y-137319107D01*
X170792770Y-137588676D01*
X171023796Y-137817573D01*
X171295040Y-137997000D01*
X171596076Y-138120062D01*
X171915337Y-138182031D01*
X172116893Y-138188629D01*
X172351011Y-138068630D01*
X171980492Y-136685838D01*
X170597700Y-137056356D01*
X149402300Y-137056356D01*
X148019508Y-136685838D01*
X147648989Y-138068630D01*
X144842778Y-138068630D01*
X144735864Y-137930626D01*
X144490361Y-137717329D01*
X144319107Y-137610837D01*
X144056356Y-137597700D01*
X143685838Y-138980492D01*
X142704456Y-138980492D01*
X141991960Y-138789579D01*
X141871961Y-139023697D01*
X141885472Y-139216158D01*
X141672326Y-138544234D01*
X142057700Y-138544234D01*
X143440492Y-138914752D01*
X143811011Y-137531960D01*
X143576893Y-137411961D01*
X143252473Y-137434735D01*
X142938729Y-137520362D01*
X142647719Y-137665552D01*
X142390626Y-137864726D01*
X142177329Y-138110229D01*
X142070837Y-138281483D01*
X142057700Y-138544234D01*
X141672326Y-138544234D01*
X141018685Y-136483697D01*
X146271371Y-136483697D01*
X146294145Y-136808117D01*
X146379772Y-137121861D01*
X146524962Y-137412871D01*
X146724136Y-137669964D01*
X146969639Y-137883261D01*
X147140893Y-137989753D01*
X147403644Y-138002890D01*
X147774162Y-136620098D01*
X147103866Y-136440492D01*
X148085248Y-136440492D01*
X149468040Y-136811011D01*
X149588039Y-136576893D01*
X170411961Y-136576893D01*
X170531960Y-136811011D01*
X171244455Y-136620098D01*
X172225838Y-136620098D01*
X172596356Y-138002890D01*
X172859107Y-137989753D01*
X173128676Y-137807820D01*
X173357573Y-137576794D01*
X173387230Y-137531960D01*
X176188989Y-137531960D01*
X176559508Y-138914752D01*
X177942300Y-138544234D01*
X177929163Y-138281483D01*
X177747230Y-138011914D01*
X177516204Y-137783017D01*
X177244960Y-137603590D01*
X176943924Y-137480528D01*
X176624663Y-137418559D01*
X176423107Y-137411961D01*
X176188989Y-137531960D01*
X173387230Y-137531960D01*
X173537000Y-137305550D01*
X173660062Y-137004514D01*
X173722031Y-136685253D01*
X173728629Y-136483697D01*
X173608630Y-136249579D01*
X172225838Y-136620098D01*
X171244455Y-136620098D01*
X171914752Y-136440492D01*
X171544234Y-135057700D01*
X171281483Y-135070837D01*
X171011914Y-135252770D01*
X170783017Y-135483796D01*
X170603590Y-135755040D01*
X170480528Y-136056076D01*
X170418559Y-136375337D01*
X170411961Y-136576893D01*
X149588039Y-136576893D01*
X149565265Y-136252473D01*
X149479638Y-135938729D01*
X149334448Y-135647719D01*
X149135274Y-135390626D01*
X148889771Y-135177329D01*
X148718517Y-135070837D01*
X148455766Y-135057700D01*
X148085248Y-136440492D01*
X147103866Y-136440492D01*
X146391370Y-136249579D01*
X146271371Y-136483697D01*
X141018685Y-136483697D01*
X140885222Y-136062970D01*
X140878634Y-136004234D01*
X146457110Y-136004234D01*
X147839902Y-136374752D01*
X148210421Y-134991960D01*
X171789579Y-134991960D01*
X172160098Y-136374752D01*
X173542890Y-136004234D01*
X173529753Y-135741483D01*
X173347820Y-135471914D01*
X173116794Y-135243017D01*
X172845550Y-135063590D01*
X172544514Y-134940528D01*
X172225253Y-134878559D01*
X172023697Y-134871961D01*
X171789579Y-134991960D01*
X148210421Y-134991960D01*
X147976303Y-134871961D01*
X147651883Y-134894735D01*
X147338139Y-134980362D01*
X147047129Y-135125552D01*
X146790036Y-135324726D01*
X146576739Y-135570229D01*
X146470247Y-135741483D01*
X146457110Y-136004234D01*
X140878634Y-136004234D01*
X140585023Y-133386632D01*
X140709862Y-133515907D01*
X141028874Y-133737626D01*
X141384875Y-133893159D01*
X141764307Y-133976582D01*
X142152716Y-133984718D01*
X142535308Y-133917257D01*
X142897510Y-133776768D01*
X143225526Y-133568602D01*
X143506863Y-133300689D01*
X143730804Y-132983233D01*
X143888818Y-132628326D01*
X143974889Y-132249486D01*
X143981085Y-131805753D01*
X143905626Y-131424658D01*
X143757582Y-131065477D01*
X143542593Y-130741892D01*
X143268847Y-130466228D01*
X142946770Y-130248985D01*
X142588632Y-130098437D01*
X142208073Y-130020320D01*
X141819588Y-130017607D01*
X141437975Y-130090404D01*
X141077770Y-130235936D01*
X140752692Y-130448662D01*
X140475123Y-130720477D01*
X140456000Y-130748405D01*
X140456000Y-127074750D01*
X155109832Y-127074750D01*
X155141304Y-127246227D01*
X155205483Y-127408326D01*
X155299926Y-127554872D01*
X155421034Y-127680283D01*
X155564194Y-127779782D01*
X155723955Y-127849580D01*
X155894230Y-127887017D01*
X156068533Y-127890668D01*
X156240226Y-127860394D01*
X156402769Y-127797348D01*
X156549971Y-127703931D01*
X156676224Y-127583701D01*
X156776721Y-127441239D01*
X156847632Y-127281970D01*
X156886257Y-127111960D01*
X156886776Y-127074750D01*
X163109832Y-127074750D01*
X163141304Y-127246227D01*
X163205483Y-127408326D01*
X163299926Y-127554872D01*
X163421034Y-127680283D01*
X163564194Y-127779782D01*
X163723955Y-127849580D01*
X163894230Y-127887017D01*
X164068533Y-127890668D01*
X164240226Y-127860394D01*
X164402769Y-127797348D01*
X164549971Y-127703931D01*
X164676224Y-127583701D01*
X164776721Y-127441239D01*
X164847632Y-127281970D01*
X164886257Y-127111960D01*
X164889038Y-126912829D01*
X164855174Y-126741808D01*
X164788738Y-126580621D01*
X164692259Y-126435408D01*
X164569411Y-126311700D01*
X164424876Y-126214209D01*
X164264156Y-126146649D01*
X164093375Y-126111593D01*
X163919038Y-126110375D01*
X163747784Y-126143044D01*
X163586137Y-126208353D01*
X163440254Y-126303817D01*
X163315692Y-126425797D01*
X163217194Y-126569649D01*
X163148514Y-126729893D01*
X163112266Y-126900425D01*
X163109832Y-127074750D01*
X156886776Y-127074750D01*
X156889038Y-126912829D01*
X156855174Y-126741808D01*
X156788738Y-126580621D01*
X156692259Y-126435408D01*
X156569411Y-126311700D01*
X156424876Y-126214209D01*
X156264156Y-126146649D01*
X156093375Y-126111593D01*
X155919038Y-126110375D01*
X155747784Y-126143044D01*
X155586137Y-126208353D01*
X155440254Y-126303817D01*
X155315692Y-126425797D01*
X155217194Y-126569649D01*
X155148514Y-126729893D01*
X155112266Y-126900425D01*
X155109832Y-127074750D01*
X140456000Y-127074750D01*
X140456000Y-112374750D01*
X147609832Y-112374750D01*
X147641304Y-112546227D01*
X147705483Y-112708326D01*
X147799926Y-112854872D01*
X147921034Y-112980283D01*
X148064194Y-113079782D01*
X148223955Y-113149580D01*
X148394230Y-113187017D01*
X148568533Y-113190668D01*
X148740226Y-113160394D01*
X148902769Y-113097348D01*
X149049971Y-113003931D01*
X149176224Y-112883701D01*
X149276721Y-112741239D01*
X149347632Y-112581970D01*
X149386257Y-112411960D01*
X149389038Y-112212829D01*
X149355174Y-112041808D01*
X149288738Y-111880621D01*
X149192259Y-111735408D01*
X149069411Y-111611700D01*
X148924876Y-111514209D01*
X148764156Y-111446649D01*
X148593375Y-111411593D01*
X148419038Y-111410375D01*
X148247784Y-111443044D01*
X148086137Y-111508353D01*
X147940254Y-111603817D01*
X147815692Y-111725797D01*
X147717194Y-111869649D01*
X147648514Y-112029893D01*
X147612266Y-112200425D01*
X147609832Y-112374750D01*
X140456000Y-112374750D01*
X140456000Y-110574750D01*
X144609832Y-110574750D01*
X144641304Y-110746227D01*
X144705483Y-110908326D01*
X144799926Y-111054872D01*
X144921034Y-111180283D01*
X145064194Y-111279782D01*
X145223955Y-111349580D01*
X145394230Y-111387017D01*
X145568533Y-111390668D01*
X145740226Y-111360394D01*
X145902769Y-111297348D01*
X146049971Y-111203931D01*
X146176224Y-111083701D01*
X146276721Y-110941239D01*
X146347632Y-110781970D01*
X146386257Y-110611960D01*
X146388173Y-110474750D01*
X161809832Y-110474750D01*
X161841304Y-110646227D01*
X161905483Y-110808326D01*
X161999926Y-110954872D01*
X162121034Y-111080283D01*
X162264194Y-111179782D01*
X162423955Y-111249580D01*
X162594230Y-111287017D01*
X162768533Y-111290668D01*
X162940226Y-111260394D01*
X163102769Y-111197348D01*
X163249971Y-111103931D01*
X163376224Y-110983701D01*
X163476721Y-110841239D01*
X163547632Y-110681970D01*
X163586257Y-110511960D01*
X163589038Y-110312829D01*
X163555174Y-110141808D01*
X163488738Y-109980621D01*
X163392259Y-109835408D01*
X163269411Y-109711700D01*
X163124876Y-109614209D01*
X162964156Y-109546649D01*
X162793375Y-109511593D01*
X162619038Y-109510375D01*
X162447784Y-109543044D01*
X162286137Y-109608353D01*
X162140254Y-109703817D01*
X162015692Y-109825797D01*
X161917194Y-109969649D01*
X161848514Y-110129893D01*
X161812266Y-110300425D01*
X161809832Y-110474750D01*
X146388173Y-110474750D01*
X146389038Y-110412829D01*
X146355174Y-110241808D01*
X146288738Y-110080621D01*
X146192259Y-109935408D01*
X146069411Y-109811700D01*
X145924876Y-109714209D01*
X145764156Y-109646649D01*
X145593375Y-109611593D01*
X145419038Y-109610375D01*
X145247784Y-109643044D01*
X145086137Y-109708353D01*
X144940254Y-109803817D01*
X144815692Y-109925797D01*
X144717194Y-110069649D01*
X144648514Y-110229893D01*
X144612266Y-110400425D01*
X144609832Y-110574750D01*
X140456000Y-110574750D01*
X140456000Y-109427688D01*
X146551917Y-109427688D01*
X146581755Y-109554091D01*
X146715477Y-109603609D01*
X146856290Y-109626088D01*
X146998783Y-109620663D01*
X147137480Y-109587545D01*
X147218245Y-109554091D01*
X147248083Y-109427688D01*
X146900000Y-109079605D01*
X146551917Y-109427688D01*
X140456000Y-109427688D01*
X140456000Y-108856290D01*
X146173912Y-108856290D01*
X146179337Y-108998783D01*
X146212455Y-109137480D01*
X146245909Y-109218245D01*
X146372312Y-109248083D01*
X146720395Y-108900000D01*
X147079605Y-108900000D01*
X147427688Y-109248083D01*
X147554091Y-109218245D01*
X147603609Y-109084523D01*
X147626088Y-108943710D01*
X147625479Y-108927688D01*
X152251917Y-108927688D01*
X152281755Y-109054091D01*
X152415477Y-109103609D01*
X152556290Y-109126088D01*
X152698783Y-109120663D01*
X152837480Y-109087545D01*
X152918245Y-109054091D01*
X152948082Y-108927690D01*
X152998378Y-108977986D01*
X152942777Y-109032434D01*
X152862572Y-109149571D01*
X152806646Y-109280055D01*
X152777130Y-109418917D01*
X152775148Y-109560868D01*
X152800775Y-109700499D01*
X152853036Y-109832494D01*
X152929939Y-109951825D01*
X153028556Y-110053945D01*
X153145129Y-110134966D01*
X153275220Y-110191801D01*
X153413873Y-110222286D01*
X153555806Y-110225259D01*
X153695613Y-110200607D01*
X153827970Y-110149270D01*
X153947834Y-110073201D01*
X154050640Y-109975300D01*
X154132473Y-109859295D01*
X154190215Y-109729604D01*
X154221667Y-109591168D01*
X154223931Y-109429018D01*
X154196357Y-109289757D01*
X154142259Y-109158505D01*
X154077389Y-109060868D01*
X165275148Y-109060868D01*
X165300775Y-109200499D01*
X165353036Y-109332494D01*
X165429939Y-109451825D01*
X165528556Y-109553945D01*
X165645129Y-109634966D01*
X165775220Y-109691801D01*
X165913873Y-109722286D01*
X166055806Y-109725259D01*
X166195613Y-109700607D01*
X166327970Y-109649270D01*
X166447834Y-109573201D01*
X166550640Y-109475300D01*
X166632473Y-109359295D01*
X166690215Y-109229604D01*
X166721667Y-109091168D01*
X166723931Y-108929018D01*
X166696357Y-108789757D01*
X166690172Y-108774750D01*
X170159844Y-108774750D01*
X170191316Y-108946227D01*
X170255495Y-109108326D01*
X170349938Y-109254872D01*
X170471046Y-109380283D01*
X170614206Y-109479782D01*
X170773967Y-109549580D01*
X170944242Y-109587017D01*
X171118545Y-109590668D01*
X171290238Y-109560394D01*
X171452781Y-109497348D01*
X171599983Y-109403931D01*
X171726236Y-109283701D01*
X171826733Y-109141239D01*
X171897644Y-108981970D01*
X171936269Y-108811960D01*
X171939050Y-108612829D01*
X171905186Y-108441808D01*
X171838750Y-108280621D01*
X171742271Y-108135408D01*
X171619423Y-108011700D01*
X171474888Y-107914209D01*
X171314168Y-107846649D01*
X171143387Y-107811593D01*
X170969050Y-107810375D01*
X170797796Y-107843044D01*
X170636149Y-107908353D01*
X170490266Y-108003817D01*
X170365704Y-108125797D01*
X170267206Y-108269649D01*
X170198526Y-108429893D01*
X170162278Y-108600425D01*
X170159844Y-108774750D01*
X166690172Y-108774750D01*
X166642259Y-108658505D01*
X166563697Y-108540260D01*
X166463664Y-108439526D01*
X166345970Y-108360141D01*
X166215099Y-108305128D01*
X166076034Y-108276582D01*
X165934074Y-108275591D01*
X165794624Y-108302192D01*
X165662997Y-108355373D01*
X165544207Y-108433107D01*
X165442777Y-108532434D01*
X165362572Y-108649571D01*
X165306646Y-108780055D01*
X165277130Y-108918917D01*
X165275148Y-109060868D01*
X154077389Y-109060868D01*
X154063697Y-109040260D01*
X153963664Y-108939526D01*
X153845970Y-108860141D01*
X153715099Y-108805128D01*
X153576034Y-108776582D01*
X153434074Y-108775591D01*
X153294624Y-108802192D01*
X153178877Y-108848957D01*
X153203721Y-108824113D01*
X153127690Y-108748082D01*
X153254091Y-108718245D01*
X153303609Y-108584523D01*
X153326088Y-108443710D01*
X153320663Y-108301217D01*
X153287545Y-108162520D01*
X153254091Y-108081755D01*
X153127688Y-108051917D01*
X152779605Y-108400000D01*
X152793748Y-108414143D01*
X152614143Y-108593748D01*
X152600000Y-108579605D01*
X152251917Y-108927688D01*
X147625479Y-108927688D01*
X147620663Y-108801217D01*
X147587545Y-108662520D01*
X147554091Y-108581755D01*
X147427688Y-108551917D01*
X147079605Y-108900000D01*
X146720395Y-108900000D01*
X146372312Y-108551917D01*
X146245909Y-108581755D01*
X146196391Y-108715477D01*
X146173912Y-108856290D01*
X140456000Y-108856290D01*
X140456000Y-108372312D01*
X146551917Y-108372312D01*
X146900000Y-108720395D01*
X147248083Y-108372312D01*
X147244301Y-108356290D01*
X151873912Y-108356290D01*
X151879337Y-108498783D01*
X151912455Y-108637480D01*
X151945909Y-108718245D01*
X152072312Y-108748083D01*
X152420395Y-108400000D01*
X152072312Y-108051917D01*
X151945909Y-108081755D01*
X151896391Y-108215477D01*
X151873912Y-108356290D01*
X147244301Y-108356290D01*
X147218245Y-108245909D01*
X147084523Y-108196391D01*
X146943710Y-108173912D01*
X146801217Y-108179337D01*
X146662520Y-108212455D01*
X146581755Y-108245909D01*
X146551917Y-108372312D01*
X140456000Y-108372312D01*
X140456000Y-107872312D01*
X152251917Y-107872312D01*
X152600000Y-108220395D01*
X152948083Y-107872312D01*
X152918245Y-107745909D01*
X152784523Y-107696391D01*
X152643710Y-107673912D01*
X152501217Y-107679337D01*
X152362520Y-107712455D01*
X152281755Y-107745909D01*
X152251917Y-107872312D01*
X140456000Y-107872312D01*
X140456000Y-106627688D01*
X146751917Y-106627688D01*
X146781755Y-106754091D01*
X146915477Y-106803609D01*
X147056290Y-106826088D01*
X147198783Y-106820663D01*
X147337480Y-106787545D01*
X147418245Y-106754091D01*
X147424477Y-106727688D01*
X150251917Y-106727688D01*
X150281755Y-106854091D01*
X150415477Y-106903609D01*
X150556290Y-106926088D01*
X150698783Y-106920663D01*
X150837480Y-106887545D01*
X150918245Y-106854091D01*
X150948083Y-106727688D01*
X150895145Y-106674750D01*
X156209832Y-106674750D01*
X156241304Y-106846227D01*
X156305483Y-107008326D01*
X156399926Y-107154872D01*
X156521034Y-107280283D01*
X156664194Y-107379782D01*
X156823955Y-107449580D01*
X156994230Y-107487017D01*
X157168533Y-107490668D01*
X157340226Y-107460394D01*
X157502769Y-107397348D01*
X157649971Y-107303931D01*
X157776224Y-107183701D01*
X157876721Y-107041239D01*
X157947632Y-106881970D01*
X157971991Y-106774750D01*
X161309832Y-106774750D01*
X161341304Y-106946227D01*
X161405483Y-107108326D01*
X161499926Y-107254872D01*
X161621034Y-107380283D01*
X161764194Y-107479782D01*
X161923955Y-107549580D01*
X162094230Y-107587017D01*
X162268533Y-107590668D01*
X162440226Y-107560394D01*
X162602769Y-107497348D01*
X162749971Y-107403931D01*
X162876224Y-107283701D01*
X162976721Y-107141239D01*
X163047632Y-106981970D01*
X163086257Y-106811960D01*
X163089038Y-106612829D01*
X163055174Y-106441808D01*
X162988738Y-106280621D01*
X162892259Y-106135408D01*
X162769411Y-106011700D01*
X162624876Y-105914209D01*
X162464156Y-105846649D01*
X162293375Y-105811593D01*
X162119038Y-105810375D01*
X161947784Y-105843044D01*
X161786137Y-105908353D01*
X161640254Y-106003817D01*
X161515692Y-106125797D01*
X161417194Y-106269649D01*
X161348514Y-106429893D01*
X161312266Y-106600425D01*
X161309832Y-106774750D01*
X157971991Y-106774750D01*
X157986257Y-106711960D01*
X157989038Y-106512829D01*
X157955174Y-106341808D01*
X157888738Y-106180621D01*
X157792259Y-106035408D01*
X157669411Y-105911700D01*
X157524876Y-105814209D01*
X157364156Y-105746649D01*
X157193375Y-105711593D01*
X157019038Y-105710375D01*
X156847784Y-105743044D01*
X156686137Y-105808353D01*
X156540254Y-105903817D01*
X156415692Y-106025797D01*
X156317194Y-106169649D01*
X156248514Y-106329893D01*
X156212266Y-106500425D01*
X156209832Y-106674750D01*
X150895145Y-106674750D01*
X150600000Y-106379605D01*
X150251917Y-106727688D01*
X147424477Y-106727688D01*
X147448083Y-106627688D01*
X147100000Y-106279605D01*
X146751917Y-106627688D01*
X140456000Y-106627688D01*
X140456000Y-106056290D01*
X146373912Y-106056290D01*
X146379337Y-106198783D01*
X146412455Y-106337480D01*
X146445909Y-106418245D01*
X146572312Y-106448083D01*
X146920395Y-106100000D01*
X147279605Y-106100000D01*
X147627688Y-106448083D01*
X147754091Y-106418245D01*
X147803609Y-106284523D01*
X147824079Y-106156290D01*
X149873912Y-106156290D01*
X149879337Y-106298783D01*
X149912455Y-106437480D01*
X149945909Y-106518245D01*
X150072312Y-106548083D01*
X150420395Y-106200000D01*
X150779605Y-106200000D01*
X151127688Y-106548083D01*
X151254091Y-106518245D01*
X151303609Y-106384523D01*
X151326088Y-106243710D01*
X151320663Y-106101217D01*
X151287545Y-105962520D01*
X151254091Y-105881755D01*
X151127688Y-105851917D01*
X150779605Y-106200000D01*
X150420395Y-106200000D01*
X150072312Y-105851917D01*
X149945909Y-105881755D01*
X149896391Y-106015477D01*
X149873912Y-106156290D01*
X147824079Y-106156290D01*
X147826088Y-106143710D01*
X147820663Y-106001217D01*
X147787545Y-105862520D01*
X147754091Y-105781755D01*
X147627688Y-105751917D01*
X147279605Y-106100000D01*
X146920395Y-106100000D01*
X146572312Y-105751917D01*
X146445909Y-105781755D01*
X146396391Y-105915477D01*
X146373912Y-106056290D01*
X140456000Y-106056290D01*
X140456000Y-105572312D01*
X146751917Y-105572312D01*
X147100000Y-105920395D01*
X147348083Y-105672312D01*
X150251917Y-105672312D01*
X150600000Y-106020395D01*
X150948083Y-105672312D01*
X150918245Y-105545909D01*
X150784523Y-105496391D01*
X150643710Y-105473912D01*
X150501217Y-105479337D01*
X150362520Y-105512455D01*
X150281755Y-105545909D01*
X150251917Y-105672312D01*
X147348083Y-105672312D01*
X147448083Y-105572312D01*
X147418245Y-105445909D01*
X147284523Y-105396391D01*
X147143710Y-105373912D01*
X147001217Y-105379337D01*
X146862520Y-105412455D01*
X146781755Y-105445909D01*
X146751917Y-105572312D01*
X140456000Y-105572312D01*
X140456000Y-105127688D01*
X152551917Y-105127688D01*
X152581755Y-105254091D01*
X152715477Y-105303609D01*
X152856290Y-105326088D01*
X152998783Y-105320663D01*
X153137480Y-105287545D01*
X153218245Y-105254091D01*
X153248083Y-105127688D01*
X152900000Y-104779605D01*
X152551917Y-105127688D01*
X140456000Y-105127688D01*
X140456000Y-104556290D01*
X152173912Y-104556290D01*
X152179337Y-104698783D01*
X152212455Y-104837480D01*
X152245909Y-104918245D01*
X152372312Y-104948083D01*
X152720395Y-104600000D01*
X153079605Y-104600000D01*
X153427688Y-104948083D01*
X153554091Y-104918245D01*
X153603609Y-104784523D01*
X153626088Y-104643710D01*
X153620663Y-104501217D01*
X153587545Y-104362520D01*
X153554091Y-104281755D01*
X153427688Y-104251917D01*
X153079605Y-104600000D01*
X152720395Y-104600000D01*
X152372312Y-104251917D01*
X152245909Y-104281755D01*
X152196391Y-104415477D01*
X152173912Y-104556290D01*
X140456000Y-104556290D01*
X140456000Y-104072312D01*
X152551917Y-104072312D01*
X152900000Y-104420395D01*
X153248083Y-104072312D01*
X153218245Y-103945909D01*
X153084523Y-103896391D01*
X152943710Y-103873912D01*
X152801217Y-103879337D01*
X152662520Y-103912455D01*
X152581755Y-103945909D01*
X152551917Y-104072312D01*
X140456000Y-104072312D01*
X140456000Y-103727688D01*
X146551917Y-103727688D01*
X146581755Y-103854091D01*
X146715477Y-103903609D01*
X146856290Y-103926088D01*
X146998783Y-103920663D01*
X147137480Y-103887545D01*
X147218245Y-103854091D01*
X147248083Y-103727688D01*
X146900000Y-103379605D01*
X146551917Y-103727688D01*
X140456000Y-103727688D01*
X140456000Y-103156290D01*
X146173912Y-103156290D01*
X146179337Y-103298783D01*
X146212455Y-103437480D01*
X146245909Y-103518245D01*
X146372312Y-103548083D01*
X146720395Y-103200000D01*
X147079605Y-103200000D01*
X147427688Y-103548083D01*
X147554091Y-103518245D01*
X147603609Y-103384523D01*
X147626088Y-103243710D01*
X147620663Y-103101217D01*
X147611029Y-103060868D01*
X161775148Y-103060868D01*
X161800775Y-103200499D01*
X161853036Y-103332494D01*
X161929939Y-103451825D01*
X162028556Y-103553945D01*
X162145129Y-103634966D01*
X162275220Y-103691801D01*
X162413873Y-103722286D01*
X162555806Y-103725259D01*
X162695613Y-103700607D01*
X162827970Y-103649270D01*
X162947834Y-103573201D01*
X162999569Y-103523934D01*
X163028556Y-103553951D01*
X163145129Y-103634972D01*
X163275220Y-103691807D01*
X163413873Y-103722292D01*
X163555806Y-103725265D01*
X163695613Y-103700613D01*
X163797534Y-103661081D01*
X163777118Y-103757129D01*
X163775136Y-103899080D01*
X163800763Y-104038711D01*
X163853024Y-104170706D01*
X163909204Y-104257882D01*
X163862567Y-104325994D01*
X163806641Y-104456478D01*
X163777125Y-104595340D01*
X163775143Y-104737291D01*
X163800770Y-104876922D01*
X163853031Y-105008917D01*
X163929934Y-105128248D01*
X164028551Y-105230368D01*
X164145124Y-105311389D01*
X164275215Y-105368224D01*
X164413868Y-105398709D01*
X164555801Y-105401682D01*
X164695608Y-105377030D01*
X164827965Y-105325693D01*
X164947829Y-105249624D01*
X165050635Y-105151723D01*
X165132468Y-105035718D01*
X165190210Y-104906027D01*
X165221662Y-104767591D01*
X165223926Y-104605441D01*
X165196352Y-104466180D01*
X165142254Y-104334928D01*
X165090486Y-104257011D01*
X165132461Y-104197507D01*
X165190203Y-104067816D01*
X165221655Y-103929380D01*
X165223919Y-103767230D01*
X165196345Y-103627969D01*
X165142247Y-103496717D01*
X165090490Y-103418817D01*
X165132473Y-103359303D01*
X165190215Y-103229612D01*
X165221667Y-103091176D01*
X165223931Y-102929026D01*
X165196357Y-102789765D01*
X165142259Y-102658513D01*
X165063697Y-102540268D01*
X164963664Y-102439534D01*
X164845970Y-102360149D01*
X164715099Y-102305136D01*
X164576034Y-102276590D01*
X164434074Y-102275599D01*
X164294624Y-102302200D01*
X164162997Y-102355381D01*
X164044207Y-102433115D01*
X164000142Y-102476266D01*
X163963664Y-102439532D01*
X163845970Y-102360147D01*
X163715099Y-102305134D01*
X163576034Y-102276588D01*
X163434074Y-102275597D01*
X163294624Y-102302198D01*
X163162997Y-102355379D01*
X163044207Y-102433113D01*
X163000144Y-102476262D01*
X162963664Y-102439526D01*
X162845970Y-102360141D01*
X162715099Y-102305128D01*
X162576034Y-102276582D01*
X162434074Y-102275591D01*
X162294624Y-102302192D01*
X162162997Y-102355373D01*
X162044207Y-102433107D01*
X161942777Y-102532434D01*
X161862572Y-102649571D01*
X161806646Y-102780055D01*
X161777130Y-102918917D01*
X161775148Y-103060868D01*
X147611029Y-103060868D01*
X147587545Y-102962520D01*
X147554091Y-102881755D01*
X147427688Y-102851917D01*
X147079605Y-103200000D01*
X146720395Y-103200000D01*
X146372312Y-102851917D01*
X146245909Y-102881755D01*
X146196391Y-103015477D01*
X146173912Y-103156290D01*
X140456000Y-103156290D01*
X140456000Y-102672312D01*
X146551917Y-102672312D01*
X146900000Y-103020395D01*
X147248083Y-102672312D01*
X147218245Y-102545909D01*
X147084523Y-102496391D01*
X146943710Y-102473912D01*
X146801217Y-102479337D01*
X146662520Y-102512455D01*
X146581755Y-102545909D01*
X146551917Y-102672312D01*
X140456000Y-102672312D01*
X140456000Y-99527688D01*
X140651917Y-99527688D01*
X140681755Y-99654091D01*
X140815477Y-99703609D01*
X140956290Y-99726088D01*
X141098783Y-99720663D01*
X141237480Y-99687545D01*
X141318245Y-99654091D01*
X141336973Y-99574750D01*
X150109832Y-99574750D01*
X150141304Y-99746227D01*
X150205483Y-99908326D01*
X150299926Y-100054872D01*
X150421034Y-100180283D01*
X150564194Y-100279782D01*
X150723955Y-100349580D01*
X150894230Y-100387017D01*
X151068533Y-100390668D01*
X151240226Y-100360394D01*
X151402769Y-100297348D01*
X151549971Y-100203931D01*
X151676224Y-100083701D01*
X151776721Y-99941239D01*
X151847632Y-99781970D01*
X151886257Y-99611960D01*
X151889038Y-99412829D01*
X151855174Y-99241808D01*
X151788738Y-99080621D01*
X151692259Y-98935408D01*
X151569411Y-98811700D01*
X151424876Y-98714209D01*
X151264156Y-98646649D01*
X151093375Y-98611593D01*
X150919038Y-98610375D01*
X150747784Y-98643044D01*
X150586137Y-98708353D01*
X150440254Y-98803817D01*
X150315692Y-98925797D01*
X150217194Y-99069649D01*
X150148514Y-99229893D01*
X150112266Y-99400425D01*
X150109832Y-99574750D01*
X141336973Y-99574750D01*
X141348083Y-99527688D01*
X141000000Y-99179605D01*
X140651917Y-99527688D01*
X140456000Y-99527688D01*
X140456000Y-99344232D01*
X140472312Y-99348083D01*
X140820395Y-99000000D01*
X141179605Y-99000000D01*
X141527688Y-99348083D01*
X141654091Y-99318245D01*
X141703609Y-99184523D01*
X141726088Y-99043710D01*
X141720663Y-98901217D01*
X141687545Y-98762520D01*
X141654091Y-98681755D01*
X141527688Y-98651917D01*
X141179605Y-99000000D01*
X140820395Y-99000000D01*
X140472312Y-98651917D01*
X140456000Y-98655768D01*
X140456000Y-98472312D01*
X140651917Y-98472312D01*
X141000000Y-98820395D01*
X141348083Y-98472312D01*
X141318245Y-98345909D01*
X141184523Y-98296391D01*
X141043710Y-98273912D01*
X140901217Y-98279337D01*
X140762520Y-98312455D01*
X140681755Y-98345909D01*
X140651917Y-98472312D01*
X140456000Y-98472312D01*
X140456000Y-97253024D01*
X140709862Y-97515907D01*
X141028874Y-97737626D01*
X141384875Y-97893159D01*
X141764307Y-97976582D01*
X142152716Y-97984718D01*
X142535308Y-97917257D01*
X142897510Y-97776768D01*
X143225526Y-97568602D01*
X143506863Y-97300689D01*
X143730804Y-96983233D01*
X143888818Y-96628326D01*
X143974889Y-96249486D01*
X143981085Y-95805753D01*
X143905626Y-95424658D01*
X143757582Y-95065477D01*
X143542593Y-94741892D01*
X143268847Y-94466228D01*
X142946770Y-94248985D01*
X142588632Y-94098437D01*
X142208073Y-94020320D01*
X141819588Y-94017607D01*
X141437975Y-94090404D01*
X141077770Y-94235936D01*
X140752692Y-94448662D01*
X140475123Y-94720477D01*
X140456000Y-94748405D01*
X140456000Y-90095098D01*
X148367514Y-90095098D01*
X148407553Y-90313254D01*
X148489203Y-90519479D01*
X148609354Y-90705917D01*
X148763430Y-90865467D01*
X148945561Y-90992051D01*
X149148811Y-91080849D01*
X149365437Y-91128477D01*
X149587189Y-91133123D01*
X149805620Y-91094607D01*
X150012410Y-91014399D01*
X150199682Y-90895552D01*
X150278430Y-90820561D01*
X151399044Y-90820561D01*
X151478927Y-90988315D01*
X151682519Y-91078785D01*
X151899848Y-91127798D01*
X152122563Y-91133470D01*
X152342106Y-91095583D01*
X152550039Y-91015593D01*
X152601073Y-90988315D01*
X152680956Y-90820561D01*
X152040000Y-90179605D01*
X151399044Y-90820561D01*
X150278430Y-90820561D01*
X150360304Y-90742594D01*
X150488157Y-90561351D01*
X150578371Y-90358726D01*
X150627511Y-90142438D01*
X150628346Y-90082563D01*
X150906530Y-90082563D01*
X150944417Y-90302106D01*
X151024407Y-90510039D01*
X151051685Y-90561073D01*
X151219439Y-90640956D01*
X151860395Y-90000000D01*
X152219605Y-90000000D01*
X152860561Y-90640956D01*
X153028315Y-90561073D01*
X153118785Y-90357481D01*
X153167798Y-90140152D01*
X153168945Y-90095098D01*
X153447514Y-90095098D01*
X153487553Y-90313254D01*
X153569203Y-90519479D01*
X153689354Y-90705917D01*
X153843430Y-90865467D01*
X154025561Y-90992051D01*
X154228811Y-91080849D01*
X154445437Y-91128477D01*
X154667189Y-91133123D01*
X154885620Y-91094607D01*
X155092410Y-91014399D01*
X155279682Y-90895552D01*
X155358430Y-90820561D01*
X164819044Y-90820561D01*
X164898927Y-90988315D01*
X165102519Y-91078785D01*
X165319848Y-91127798D01*
X165542563Y-91133470D01*
X165762106Y-91095583D01*
X165970039Y-91015593D01*
X166021073Y-90988315D01*
X166100956Y-90820561D01*
X165460000Y-90179605D01*
X164819044Y-90820561D01*
X155358430Y-90820561D01*
X155440304Y-90742594D01*
X155568157Y-90561351D01*
X155658371Y-90358726D01*
X155707511Y-90142438D01*
X155708346Y-90082563D01*
X164326530Y-90082563D01*
X164364417Y-90302106D01*
X164444407Y-90510039D01*
X164471685Y-90561073D01*
X164639439Y-90640956D01*
X165280395Y-90000000D01*
X165639605Y-90000000D01*
X166280561Y-90640956D01*
X166448315Y-90561073D01*
X166538785Y-90357481D01*
X166587798Y-90140152D01*
X166588945Y-90095098D01*
X166867514Y-90095098D01*
X166907553Y-90313254D01*
X166989203Y-90519479D01*
X167109354Y-90705917D01*
X167263430Y-90865467D01*
X167445561Y-90992051D01*
X167648811Y-91080849D01*
X167865437Y-91128477D01*
X168087189Y-91133123D01*
X168305620Y-91094607D01*
X168512410Y-91014399D01*
X168699682Y-90895552D01*
X168860304Y-90742594D01*
X168988157Y-90561351D01*
X169078371Y-90358726D01*
X169127511Y-90142438D01*
X169128171Y-90095098D01*
X169407514Y-90095098D01*
X169447553Y-90313254D01*
X169529203Y-90519479D01*
X169649354Y-90705917D01*
X169803430Y-90865467D01*
X169985561Y-90992051D01*
X170188811Y-91080849D01*
X170405437Y-91128477D01*
X170627189Y-91133123D01*
X170845620Y-91094607D01*
X171052410Y-91014399D01*
X171239682Y-90895552D01*
X171400304Y-90742594D01*
X171528157Y-90561351D01*
X171618371Y-90358726D01*
X171667511Y-90142438D01*
X171671048Y-89889100D01*
X171627967Y-89671523D01*
X171543445Y-89466459D01*
X171420703Y-89281716D01*
X171264415Y-89124333D01*
X171080534Y-89000304D01*
X170876064Y-88914353D01*
X170658794Y-88869754D01*
X170436999Y-88868205D01*
X170219127Y-88909767D01*
X170013477Y-88992854D01*
X169827882Y-89114304D01*
X169669412Y-89269490D01*
X169544102Y-89452500D01*
X169456725Y-89656365D01*
X169410611Y-89873319D01*
X169407514Y-90095098D01*
X169128171Y-90095098D01*
X169131048Y-89889100D01*
X169087967Y-89671523D01*
X169003445Y-89466459D01*
X168880703Y-89281716D01*
X168724415Y-89124333D01*
X168540534Y-89000304D01*
X168336064Y-88914353D01*
X168118794Y-88869754D01*
X167896999Y-88868205D01*
X167679127Y-88909767D01*
X167473477Y-88992854D01*
X167287882Y-89114304D01*
X167129412Y-89269490D01*
X167004102Y-89452500D01*
X166916725Y-89656365D01*
X166870611Y-89873319D01*
X166867514Y-90095098D01*
X166588945Y-90095098D01*
X166593470Y-89917437D01*
X166555583Y-89697894D01*
X166475593Y-89489961D01*
X166448315Y-89438927D01*
X166280561Y-89359044D01*
X165639605Y-90000000D01*
X165280395Y-90000000D01*
X164639439Y-89359044D01*
X164471685Y-89438927D01*
X164381215Y-89642519D01*
X164332202Y-89859848D01*
X164326530Y-90082563D01*
X155708346Y-90082563D01*
X155711048Y-89889100D01*
X155667967Y-89671523D01*
X155583445Y-89466459D01*
X155460703Y-89281716D01*
X155359138Y-89179439D01*
X164819044Y-89179439D01*
X165460000Y-89820395D01*
X166100956Y-89179439D01*
X166021073Y-89011685D01*
X165817481Y-88921215D01*
X165600152Y-88872202D01*
X165377437Y-88866530D01*
X165157894Y-88904417D01*
X164949961Y-88984407D01*
X164898927Y-89011685D01*
X164819044Y-89179439D01*
X155359138Y-89179439D01*
X155304415Y-89124333D01*
X155120534Y-89000304D01*
X154916064Y-88914353D01*
X154698794Y-88869754D01*
X154476999Y-88868205D01*
X154259127Y-88909767D01*
X154053477Y-88992854D01*
X153867882Y-89114304D01*
X153709412Y-89269490D01*
X153584102Y-89452500D01*
X153496725Y-89656365D01*
X153450611Y-89873319D01*
X153447514Y-90095098D01*
X153168945Y-90095098D01*
X153173470Y-89917437D01*
X153135583Y-89697894D01*
X153055593Y-89489961D01*
X153028315Y-89438927D01*
X152860561Y-89359044D01*
X152219605Y-90000000D01*
X151860395Y-90000000D01*
X151219439Y-89359044D01*
X151051685Y-89438927D01*
X150961215Y-89642519D01*
X150912202Y-89859848D01*
X150906530Y-90082563D01*
X150628346Y-90082563D01*
X150631048Y-89889100D01*
X150587967Y-89671523D01*
X150503445Y-89466459D01*
X150380703Y-89281716D01*
X150279138Y-89179439D01*
X151399044Y-89179439D01*
X152040000Y-89820395D01*
X152680956Y-89179439D01*
X152601073Y-89011685D01*
X152397481Y-88921215D01*
X152180152Y-88872202D01*
X151957437Y-88866530D01*
X151737894Y-88904417D01*
X151529961Y-88984407D01*
X151478927Y-89011685D01*
X151399044Y-89179439D01*
X150279138Y-89179439D01*
X150224415Y-89124333D01*
X150040534Y-89000304D01*
X149836064Y-88914353D01*
X149618794Y-88869754D01*
X149396999Y-88868205D01*
X149179127Y-88909767D01*
X148973477Y-88992854D01*
X148787882Y-89114304D01*
X148629412Y-89269490D01*
X148504102Y-89452500D01*
X148416725Y-89656365D01*
X148370611Y-89873319D01*
X148367514Y-90095098D01*
X140456000Y-90095098D01*
X140456000Y-87022305D01*
X140525640Y-86312060D01*
X140725432Y-85650317D01*
X141049948Y-85039991D01*
X141351705Y-84670000D01*
X145207157Y-84670000D01*
X145207157Y-87670000D01*
X145214513Y-87744689D01*
X145236299Y-87816508D01*
X145271678Y-87882696D01*
X145319289Y-87940711D01*
X145377304Y-87988322D01*
X145443492Y-88023701D01*
X145515311Y-88045487D01*
X145590000Y-88052843D01*
X148390000Y-88052843D01*
X148464689Y-88045487D01*
X148536508Y-88023701D01*
X148602696Y-87988322D01*
X148660711Y-87940711D01*
X148708322Y-87882696D01*
X148743701Y-87816508D01*
X148765487Y-87744689D01*
X148772843Y-87670000D01*
X148772843Y-84670000D01*
X155307157Y-84670000D01*
X155307157Y-87670000D01*
X155314513Y-87744689D01*
X155336299Y-87816508D01*
X155371678Y-87882696D01*
X155419289Y-87940711D01*
X155477304Y-87988322D01*
X155543492Y-88023701D01*
X155615311Y-88045487D01*
X155690000Y-88052843D01*
X158490000Y-88052843D01*
X158564689Y-88045487D01*
X158636508Y-88023701D01*
X158702696Y-87988322D01*
X158760711Y-87940711D01*
X158808322Y-87882696D01*
X158843701Y-87816508D01*
X158865487Y-87744689D01*
X158872843Y-87670000D01*
X158872843Y-84670000D01*
X161167157Y-84670000D01*
X161167157Y-87670000D01*
X161174513Y-87744689D01*
X161196299Y-87816508D01*
X161231678Y-87882696D01*
X161279289Y-87940711D01*
X161337304Y-87988322D01*
X161403492Y-88023701D01*
X161475311Y-88045487D01*
X161550000Y-88052843D01*
X164350000Y-88052843D01*
X164424689Y-88045487D01*
X164496508Y-88023701D01*
X164562696Y-87988322D01*
X164620711Y-87940711D01*
X164668322Y-87882696D01*
X164703701Y-87816508D01*
X164725487Y-87744689D01*
X164732843Y-87670000D01*
X164732843Y-84670000D01*
X171267157Y-84670000D01*
X171267157Y-87670000D01*
X171274513Y-87744689D01*
X171296299Y-87816508D01*
X171331678Y-87882696D01*
X171379289Y-87940711D01*
X171437304Y-87988322D01*
X171503492Y-88023701D01*
X171575311Y-88045487D01*
X171650000Y-88052843D01*
X174450000Y-88052843D01*
X174524689Y-88045487D01*
X174596508Y-88023701D01*
X174662696Y-87988322D01*
X174720711Y-87940711D01*
X174768322Y-87882696D01*
X174803701Y-87816508D01*
X174825487Y-87744689D01*
X174832843Y-87670000D01*
X174832843Y-84670000D01*
X174825487Y-84595311D01*
X174803701Y-84523492D01*
X174768322Y-84457304D01*
X174720711Y-84399289D01*
X174662696Y-84351678D01*
X174596508Y-84316299D01*
X174524689Y-84294513D01*
X174450000Y-84287157D01*
X171650000Y-84287157D01*
X171575311Y-84294513D01*
X171503492Y-84316299D01*
X171437304Y-84351678D01*
X171379289Y-84399289D01*
X171331678Y-84457304D01*
X171296299Y-84523492D01*
X171274513Y-84595311D01*
X171267157Y-84670000D01*
X164732843Y-84670000D01*
X164725487Y-84595311D01*
X164703701Y-84523492D01*
X164668322Y-84457304D01*
X164620711Y-84399289D01*
X164562696Y-84351678D01*
X164496508Y-84316299D01*
X164424689Y-84294513D01*
X164350000Y-84287157D01*
X161550000Y-84287157D01*
X161475311Y-84294513D01*
X161403492Y-84316299D01*
X161337304Y-84351678D01*
X161279289Y-84399289D01*
X161231678Y-84457304D01*
X161196299Y-84523492D01*
X161174513Y-84595311D01*
X161167157Y-84670000D01*
X158872843Y-84670000D01*
X158865487Y-84595311D01*
X158843701Y-84523492D01*
X158808322Y-84457304D01*
X158760711Y-84399289D01*
X158702696Y-84351678D01*
X158636508Y-84316299D01*
X158564689Y-84294513D01*
X158490000Y-84287157D01*
X155690000Y-84287157D01*
X155615311Y-84294513D01*
X155543492Y-84316299D01*
X155477304Y-84351678D01*
X155419289Y-84399289D01*
X155371678Y-84457304D01*
X155336299Y-84523492D01*
X155314513Y-84595311D01*
X155307157Y-84670000D01*
X148772843Y-84670000D01*
X148765487Y-84595311D01*
X148743701Y-84523492D01*
X148708322Y-84457304D01*
X148660711Y-84399289D01*
X148602696Y-84351678D01*
X148536508Y-84316299D01*
X148464689Y-84294513D01*
X148390000Y-84287157D01*
X145590000Y-84287157D01*
X145515311Y-84294513D01*
X145443492Y-84316299D01*
X145377304Y-84351678D01*
X145319289Y-84399289D01*
X145271678Y-84457304D01*
X145236299Y-84523492D01*
X145214513Y-84595311D01*
X145207157Y-84670000D01*
X141351705Y-84670000D01*
X141486833Y-84504317D01*
X142019443Y-84063704D01*
X142627494Y-83734932D01*
X143287818Y-83530527D01*
X143996766Y-83456014D01*
X144000720Y-83456000D01*
X175977695Y-83456000D01*
X176687940Y-83525640D01*
X176687940Y-83525640D01*
G37*
X176687940Y-83525640D02*
X177349683Y-83725432D01*
X177960009Y-84049948D01*
X178495683Y-84486833D01*
X178936296Y-85019443D01*
X179265068Y-85627494D01*
X179469473Y-86287818D01*
X179543986Y-86996766D01*
X179544000Y-87000720D01*
X179544000Y-94744010D01*
X179542593Y-94741892D01*
X179268847Y-94466228D01*
X178946770Y-94248985D01*
X178588632Y-94098437D01*
X178208073Y-94020320D01*
X177819588Y-94017607D01*
X177437975Y-94090404D01*
X177077770Y-94235936D01*
X176752692Y-94448662D01*
X176475123Y-94720477D01*
X176255637Y-95041028D01*
X176102593Y-95398107D01*
X176021820Y-95778112D01*
X176016396Y-96166568D01*
X176086527Y-96548680D01*
X176229541Y-96909892D01*
X176439992Y-97236447D01*
X176709862Y-97515907D01*
X177028874Y-97737626D01*
X177384875Y-97893159D01*
X177764307Y-97976582D01*
X178152716Y-97984718D01*
X178535308Y-97917257D01*
X178897510Y-97776768D01*
X179225526Y-97568602D01*
X179506863Y-97300689D01*
X179544000Y-97248044D01*
X179544000Y-130744010D01*
X179542593Y-130741892D01*
X179268847Y-130466228D01*
X178946770Y-130248985D01*
X178588632Y-130098437D01*
X178208073Y-130020320D01*
X177819588Y-130017607D01*
X177437975Y-130090404D01*
X177077770Y-130235936D01*
X176752692Y-130448662D01*
X176475123Y-130720477D01*
X176255637Y-131041028D01*
X176102593Y-131398107D01*
X176021820Y-131778112D01*
X176016396Y-132166568D01*
X176086527Y-132548680D01*
X176229541Y-132909892D01*
X176439992Y-133236447D01*
X176709862Y-133515907D01*
X177028874Y-133737626D01*
X177384875Y-133893159D01*
X177764307Y-133976582D01*
X178152716Y-133984718D01*
X178535308Y-133917257D01*
X178897510Y-133776768D01*
X179225526Y-133568602D01*
X179404744Y-133397935D01*
X179169642Y-135795692D01*
X178098476Y-139343566D01*
X178121441Y-139225253D01*
X178128039Y-139023697D01*
X178008040Y-138789579D01*
X176625248Y-139160098D01*
X176995766Y-140542890D01*
X177258517Y-140529753D01*
X177528086Y-140347820D01*
X177657888Y-140216811D01*
X176276793Y-142814271D01*
X175570693Y-143680036D01*
X175581441Y-143624663D01*
X175588039Y-143423107D01*
X175468040Y-143188989D01*
X174175053Y-143535445D01*
X174123454Y-143483846D01*
X173943846Y-143663454D01*
X174175052Y-143894659D01*
X174455766Y-144942300D01*
X174544848Y-144937846D01*
X173866298Y-145769831D01*
X170927646Y-148200895D01*
X167572756Y-150014878D01*
X163929426Y-151142677D01*
X160136425Y-151541338D01*
X156338229Y-151195674D01*
X152679509Y-150118854D01*
X152508270Y-150029332D01*
X155159215Y-150029332D01*
X155217778Y-150285810D01*
X155443757Y-150519692D01*
X155711021Y-150704994D01*
X156009301Y-150834594D01*
X156327134Y-150903512D01*
X156652305Y-150909100D01*
X156851945Y-150880598D01*
X157061668Y-150721768D01*
X162938332Y-150721768D01*
X163148055Y-150880598D01*
X163471502Y-150914506D01*
X163795348Y-150884661D01*
X164107148Y-150792209D01*
X164394922Y-150640705D01*
X164556525Y-150509770D01*
X164564756Y-150518001D01*
X164643273Y-150439484D01*
X164647610Y-150435970D01*
X164654735Y-150428022D01*
X164744363Y-150338394D01*
X164739470Y-150333501D01*
X164782222Y-150285810D01*
X164840785Y-150029332D01*
X164081015Y-149675046D01*
X163675661Y-149269691D01*
X163496053Y-149449299D01*
X163520360Y-149473606D01*
X162938332Y-150721768D01*
X157061668Y-150721768D01*
X156456659Y-149424324D01*
X155159215Y-150029332D01*
X152508270Y-150029332D01*
X151284895Y-149389767D01*
X154864538Y-149389767D01*
X154893040Y-149589407D01*
X155051870Y-149799130D01*
X156085844Y-149316979D01*
X156686862Y-149316979D01*
X157291870Y-150614423D01*
X157548348Y-150555860D01*
X157782230Y-150329881D01*
X157967532Y-150062617D01*
X158097132Y-149764337D01*
X158166050Y-149446504D01*
X158169510Y-149245140D01*
X161822956Y-149245140D01*
X161852801Y-149568986D01*
X161945253Y-149880786D01*
X162096757Y-150168560D01*
X162227692Y-150330163D01*
X162219461Y-150338394D01*
X162297978Y-150416911D01*
X162301492Y-150421248D01*
X162309440Y-150428373D01*
X162399068Y-150518001D01*
X162403961Y-150513108D01*
X162451652Y-150555860D01*
X162708130Y-150614423D01*
X163062416Y-149854653D01*
X163467771Y-149449299D01*
X163288163Y-149269691D01*
X163263856Y-149293998D01*
X162015694Y-148711970D01*
X161856864Y-148921693D01*
X161822956Y-149245140D01*
X158169510Y-149245140D01*
X158171638Y-149121333D01*
X158143136Y-148921693D01*
X157984306Y-148711970D01*
X156686862Y-149316979D01*
X156085844Y-149316979D01*
X156349314Y-149194121D01*
X155744306Y-147896677D01*
X155487828Y-147955240D01*
X155253946Y-148181219D01*
X155068644Y-148448483D01*
X154939044Y-148746763D01*
X154870126Y-149064596D01*
X154864538Y-149389767D01*
X151284895Y-149389767D01*
X149299620Y-148351890D01*
X149224971Y-148291870D01*
X150385577Y-148291870D01*
X150444140Y-148548348D01*
X150670119Y-148782230D01*
X150937383Y-148967532D01*
X151235663Y-149097132D01*
X151553496Y-149166050D01*
X151878667Y-149171638D01*
X152078307Y-149143136D01*
X152288030Y-148984306D01*
X151683021Y-147686862D01*
X150385577Y-148291870D01*
X149224971Y-148291870D01*
X148429512Y-147652305D01*
X150090900Y-147652305D01*
X150119402Y-147851945D01*
X150278232Y-148061668D01*
X151312206Y-147579517D01*
X151913224Y-147579517D01*
X152518232Y-148876961D01*
X152774710Y-148818398D01*
X153008592Y-148592419D01*
X153193894Y-148325155D01*
X153323494Y-148026875D01*
X153375002Y-147789332D01*
X155974508Y-147789332D01*
X156579517Y-149086776D01*
X157876961Y-148481768D01*
X162123039Y-148481768D01*
X162882809Y-148836054D01*
X163288163Y-149241409D01*
X163467771Y-149061801D01*
X163496053Y-149061801D01*
X163675661Y-149241409D01*
X163699968Y-149217102D01*
X164948130Y-149799130D01*
X165106960Y-149589407D01*
X165140868Y-149265960D01*
X165114912Y-148984306D01*
X167711970Y-148984306D01*
X167921693Y-149143136D01*
X168245140Y-149177044D01*
X168568986Y-149147199D01*
X168880786Y-149054747D01*
X169168560Y-148903243D01*
X169330163Y-148772308D01*
X169338394Y-148780539D01*
X169416911Y-148702022D01*
X169421248Y-148698508D01*
X169428373Y-148690560D01*
X169518001Y-148600932D01*
X169513108Y-148596039D01*
X169555860Y-148548348D01*
X169614423Y-148291870D01*
X168854653Y-147937584D01*
X168449299Y-147532229D01*
X168269691Y-147711837D01*
X168293998Y-147736144D01*
X167711970Y-148984306D01*
X165114912Y-148984306D01*
X165111023Y-148942114D01*
X165018571Y-148630314D01*
X164867067Y-148342540D01*
X164736132Y-148180937D01*
X164744363Y-148172706D01*
X164665846Y-148094189D01*
X164662332Y-148089852D01*
X164654384Y-148082727D01*
X164564756Y-147993099D01*
X164559863Y-147997992D01*
X164512172Y-147955240D01*
X164255694Y-147896677D01*
X163901408Y-148656447D01*
X163496053Y-149061801D01*
X163467771Y-149061801D01*
X163443464Y-149037494D01*
X164025492Y-147789332D01*
X163815769Y-147630502D01*
X163492322Y-147596594D01*
X163168476Y-147626439D01*
X162856676Y-147718891D01*
X162568902Y-147870395D01*
X162407299Y-148001330D01*
X162399068Y-147993099D01*
X162320551Y-148071616D01*
X162316214Y-148075130D01*
X162309089Y-148083078D01*
X162219461Y-148172706D01*
X162224354Y-148177599D01*
X162181602Y-148225290D01*
X162123039Y-148481768D01*
X157876961Y-148481768D01*
X157818398Y-148225290D01*
X157592419Y-147991408D01*
X157325155Y-147806106D01*
X157026875Y-147676506D01*
X156709042Y-147607588D01*
X156383871Y-147602000D01*
X156184231Y-147630502D01*
X155974508Y-147789332D01*
X153375002Y-147789332D01*
X153392412Y-147709042D01*
X153398000Y-147383871D01*
X153369498Y-147184231D01*
X153210668Y-146974508D01*
X151913224Y-147579517D01*
X151312206Y-147579517D01*
X151575676Y-147456659D01*
X150970668Y-146159215D01*
X150714190Y-146217778D01*
X150480308Y-146443757D01*
X150295006Y-146711021D01*
X150165406Y-147009301D01*
X150096488Y-147327134D01*
X150090900Y-147652305D01*
X148429512Y-147652305D01*
X146438971Y-146051870D01*
X151200870Y-146051870D01*
X151805879Y-147349314D01*
X153103323Y-146744306D01*
X153044760Y-146487828D01*
X152818781Y-146253946D01*
X152652735Y-146138821D01*
X153346830Y-146138821D01*
X153405278Y-146457279D01*
X153524469Y-146758320D01*
X153699862Y-147030477D01*
X153924777Y-147263383D01*
X154190647Y-147448167D01*
X154487345Y-147577791D01*
X154803569Y-147647318D01*
X155127276Y-147654099D01*
X155446135Y-147597875D01*
X155748000Y-147480789D01*
X156021375Y-147307300D01*
X156255846Y-147084017D01*
X156442482Y-146819444D01*
X156574174Y-146523658D01*
X156645906Y-146207926D01*
X156651070Y-145838111D01*
X156588182Y-145520500D01*
X156479037Y-145255694D01*
X156896677Y-145255694D01*
X156955240Y-145512172D01*
X157181219Y-145746054D01*
X157448483Y-145931356D01*
X157746763Y-146060956D01*
X158064596Y-146129874D01*
X158389767Y-146135462D01*
X158589407Y-146106960D01*
X158799130Y-145948130D01*
X161200870Y-145948130D01*
X161410593Y-146106960D01*
X161734040Y-146140868D01*
X161756251Y-146138821D01*
X163346830Y-146138821D01*
X163405278Y-146457279D01*
X163524469Y-146758320D01*
X163699862Y-147030477D01*
X163924777Y-147263383D01*
X164190647Y-147448167D01*
X164487345Y-147577791D01*
X164803569Y-147647318D01*
X165127276Y-147654099D01*
X165446135Y-147597875D01*
X165678676Y-147507678D01*
X166596594Y-147507678D01*
X166626439Y-147831524D01*
X166718891Y-148143324D01*
X166870395Y-148431098D01*
X167001330Y-148592701D01*
X166993099Y-148600932D01*
X167071616Y-148679449D01*
X167075130Y-148683786D01*
X167083078Y-148690911D01*
X167172706Y-148780539D01*
X167177599Y-148775646D01*
X167225290Y-148818398D01*
X167481768Y-148876961D01*
X167836054Y-148117191D01*
X168241409Y-147711837D01*
X168061801Y-147532229D01*
X168037494Y-147556536D01*
X166789332Y-146974508D01*
X166630502Y-147184231D01*
X166596594Y-147507678D01*
X165678676Y-147507678D01*
X165748000Y-147480789D01*
X166021375Y-147307300D01*
X166255846Y-147084017D01*
X166442482Y-146819444D01*
X166475935Y-146744306D01*
X166896677Y-146744306D01*
X167656447Y-147098592D01*
X168061801Y-147503947D01*
X168241409Y-147324339D01*
X168269691Y-147324339D01*
X168449299Y-147503947D01*
X168473606Y-147479640D01*
X169721768Y-148061668D01*
X169880598Y-147851945D01*
X169914506Y-147528498D01*
X169884661Y-147204652D01*
X169792209Y-146892852D01*
X169640705Y-146605078D01*
X169509770Y-146443475D01*
X169518001Y-146435244D01*
X169439484Y-146356727D01*
X169435970Y-146352390D01*
X169428022Y-146345265D01*
X169338394Y-146255637D01*
X169333501Y-146260530D01*
X169285810Y-146217778D01*
X169029332Y-146159215D01*
X168675046Y-146918985D01*
X168269691Y-147324339D01*
X168241409Y-147324339D01*
X168217102Y-147300032D01*
X168799130Y-146051870D01*
X168589407Y-145893040D01*
X168265960Y-145859132D01*
X167942114Y-145888977D01*
X167630314Y-145981429D01*
X167342540Y-146132933D01*
X167180937Y-146263868D01*
X167172706Y-146255637D01*
X167094189Y-146334154D01*
X167089852Y-146337668D01*
X167082727Y-146345616D01*
X166993099Y-146435244D01*
X166997992Y-146440137D01*
X166955240Y-146487828D01*
X166896677Y-146744306D01*
X166475935Y-146744306D01*
X166574174Y-146523658D01*
X166645906Y-146207926D01*
X166651070Y-145838111D01*
X166588182Y-145520500D01*
X166464799Y-145221152D01*
X166285624Y-144951471D01*
X166057479Y-144721728D01*
X165789055Y-144540674D01*
X165490576Y-144415205D01*
X165173411Y-144350100D01*
X164849642Y-144347840D01*
X164531599Y-144408510D01*
X164231397Y-144529799D01*
X163960472Y-144707088D01*
X163729141Y-144933623D01*
X163546218Y-145200776D01*
X163418668Y-145498372D01*
X163351351Y-145815074D01*
X163346830Y-146138821D01*
X161756251Y-146138821D01*
X162057886Y-146111023D01*
X162369686Y-146018571D01*
X162657460Y-145867067D01*
X162819063Y-145736132D01*
X162827294Y-145744363D01*
X162905811Y-145665846D01*
X162910148Y-145662332D01*
X162917273Y-145654384D01*
X163006901Y-145564756D01*
X163002008Y-145559863D01*
X163044760Y-145512172D01*
X163103323Y-145255694D01*
X162343553Y-144901408D01*
X161938199Y-144496053D01*
X161758591Y-144675661D01*
X161782898Y-144699968D01*
X161200870Y-145948130D01*
X158799130Y-145948130D01*
X158194121Y-144650686D01*
X156896677Y-145255694D01*
X156479037Y-145255694D01*
X156464799Y-145221152D01*
X156285624Y-144951471D01*
X156057479Y-144721728D01*
X155900922Y-144616129D01*
X156602000Y-144616129D01*
X156630502Y-144815769D01*
X156789332Y-145025492D01*
X157823306Y-144543341D01*
X158424324Y-144543341D01*
X159029332Y-145840785D01*
X159285810Y-145782222D01*
X159519692Y-145556243D01*
X159704994Y-145288979D01*
X159834594Y-144990699D01*
X159903512Y-144672866D01*
X159906972Y-144471502D01*
X160085494Y-144471502D01*
X160115339Y-144795348D01*
X160207791Y-145107148D01*
X160359295Y-145394922D01*
X160490230Y-145556525D01*
X160481999Y-145564756D01*
X160560516Y-145643273D01*
X160564030Y-145647610D01*
X160571978Y-145654735D01*
X160661606Y-145744363D01*
X160666499Y-145739470D01*
X160714190Y-145782222D01*
X160970668Y-145840785D01*
X161324954Y-145081015D01*
X161730309Y-144675661D01*
X161550701Y-144496053D01*
X161526394Y-144520360D01*
X160278232Y-143938332D01*
X160119402Y-144148055D01*
X160085494Y-144471502D01*
X159906972Y-144471502D01*
X159909100Y-144347695D01*
X159880598Y-144148055D01*
X159721768Y-143938332D01*
X158424324Y-144543341D01*
X157823306Y-144543341D01*
X158086776Y-144420483D01*
X157481768Y-143123039D01*
X157225290Y-143181602D01*
X156991408Y-143407581D01*
X156806106Y-143674845D01*
X156676506Y-143973125D01*
X156607588Y-144290958D01*
X156602000Y-144616129D01*
X155900922Y-144616129D01*
X155789055Y-144540674D01*
X155490576Y-144415205D01*
X155173411Y-144350100D01*
X154849642Y-144347840D01*
X154531599Y-144408510D01*
X154231397Y-144529799D01*
X153960472Y-144707088D01*
X153729141Y-144933623D01*
X153546218Y-145200776D01*
X153418668Y-145498372D01*
X153351351Y-145815074D01*
X153346830Y-146138821D01*
X152652735Y-146138821D01*
X152551517Y-146068644D01*
X152253237Y-145939044D01*
X151935404Y-145870126D01*
X151610233Y-145864538D01*
X151410593Y-145893040D01*
X151200870Y-146051870D01*
X146438971Y-146051870D01*
X146327309Y-145962092D01*
X145526765Y-145008040D01*
X145789579Y-145008040D01*
X146023697Y-145128039D01*
X146348117Y-145105265D01*
X146661861Y-145019638D01*
X146952871Y-144874448D01*
X147209964Y-144675274D01*
X147423261Y-144429771D01*
X147529753Y-144258517D01*
X147542890Y-143995766D01*
X146160098Y-143625248D01*
X145789579Y-145008040D01*
X145526765Y-145008040D01*
X145468422Y-144938510D01*
X145544234Y-144942300D01*
X145824948Y-143894659D01*
X146056154Y-143663454D01*
X145876546Y-143483846D01*
X145824947Y-143535445D01*
X145244455Y-143379902D01*
X146225838Y-143379902D01*
X147608630Y-143750421D01*
X147727640Y-143518232D01*
X152123039Y-143518232D01*
X152181602Y-143774710D01*
X152407581Y-144008592D01*
X152674845Y-144193894D01*
X152973125Y-144323494D01*
X153290958Y-144392412D01*
X153616129Y-144398000D01*
X153815769Y-144369498D01*
X154025492Y-144210668D01*
X153420483Y-142913224D01*
X152123039Y-143518232D01*
X147727640Y-143518232D01*
X147728629Y-143516303D01*
X147705855Y-143191883D01*
X147620373Y-142878667D01*
X151828362Y-142878667D01*
X151856864Y-143078307D01*
X152015694Y-143288030D01*
X153049668Y-142805879D01*
X153650686Y-142805879D01*
X154255694Y-144103323D01*
X154512172Y-144044760D01*
X154746054Y-143818781D01*
X154931356Y-143551517D01*
X155060956Y-143253237D01*
X155112464Y-143015694D01*
X157711970Y-143015694D01*
X158316979Y-144313138D01*
X159614423Y-143708130D01*
X160385577Y-143708130D01*
X161145347Y-144062416D01*
X161550701Y-144467771D01*
X161730309Y-144288163D01*
X161758591Y-144288163D01*
X161938199Y-144467771D01*
X161962506Y-144443464D01*
X163210668Y-145025492D01*
X163369498Y-144815769D01*
X163403406Y-144492322D01*
X163377450Y-144210668D01*
X165974508Y-144210668D01*
X166184231Y-144369498D01*
X166507678Y-144403406D01*
X166831524Y-144373561D01*
X167143324Y-144281109D01*
X167431098Y-144129605D01*
X167592701Y-143998670D01*
X167600932Y-144006901D01*
X167612067Y-143995766D01*
X172457110Y-143995766D01*
X172470247Y-144258517D01*
X172652180Y-144528086D01*
X172883206Y-144756983D01*
X173154450Y-144936410D01*
X173455486Y-145059472D01*
X173774747Y-145121441D01*
X173976303Y-145128039D01*
X174210421Y-145008040D01*
X173839902Y-143625248D01*
X172457110Y-143995766D01*
X167612067Y-143995766D01*
X167679449Y-143928384D01*
X167683786Y-143924870D01*
X167690911Y-143916922D01*
X167780539Y-143827294D01*
X167775646Y-143822401D01*
X167818398Y-143774710D01*
X167876961Y-143518232D01*
X167872825Y-143516303D01*
X172271371Y-143516303D01*
X172391370Y-143750421D01*
X173774162Y-143379902D01*
X173403644Y-141997110D01*
X173140893Y-142010247D01*
X172871324Y-142192180D01*
X172642427Y-142423206D01*
X172463000Y-142694450D01*
X172339938Y-142995486D01*
X172277969Y-143314747D01*
X172271371Y-143516303D01*
X167872825Y-143516303D01*
X167117191Y-143163946D01*
X166711837Y-142758591D01*
X166532229Y-142938199D01*
X166556536Y-142962506D01*
X165974508Y-144210668D01*
X163377450Y-144210668D01*
X163373561Y-144168476D01*
X163281109Y-143856676D01*
X163129605Y-143568902D01*
X162998670Y-143407299D01*
X163006901Y-143399068D01*
X162928384Y-143320551D01*
X162924870Y-143316214D01*
X162916922Y-143309089D01*
X162827294Y-143219461D01*
X162822401Y-143224354D01*
X162774710Y-143181602D01*
X162518232Y-143123039D01*
X162163946Y-143882809D01*
X161758591Y-144288163D01*
X161730309Y-144288163D01*
X161706002Y-144263856D01*
X162288030Y-143015694D01*
X162078307Y-142856864D01*
X161754860Y-142822956D01*
X161431014Y-142852801D01*
X161119214Y-142945253D01*
X160831440Y-143096757D01*
X160669837Y-143227692D01*
X160661606Y-143219461D01*
X160583089Y-143297978D01*
X160578752Y-143301492D01*
X160571627Y-143309440D01*
X160481999Y-143399068D01*
X160486892Y-143403961D01*
X160444140Y-143451652D01*
X160385577Y-143708130D01*
X159614423Y-143708130D01*
X159555860Y-143451652D01*
X159329881Y-143217770D01*
X159062617Y-143032468D01*
X158764337Y-142902868D01*
X158446504Y-142833950D01*
X158121333Y-142828362D01*
X157921693Y-142856864D01*
X157711970Y-143015694D01*
X155112464Y-143015694D01*
X155129874Y-142935404D01*
X155133334Y-142734040D01*
X164859132Y-142734040D01*
X164888977Y-143057886D01*
X164981429Y-143369686D01*
X165132933Y-143657460D01*
X165263868Y-143819063D01*
X165255637Y-143827294D01*
X165334154Y-143905811D01*
X165337668Y-143910148D01*
X165345616Y-143917273D01*
X165435244Y-144006901D01*
X165440137Y-144002008D01*
X165487828Y-144044760D01*
X165744306Y-144103323D01*
X166098592Y-143343553D01*
X166503947Y-142938199D01*
X166324339Y-142758591D01*
X166300032Y-142782898D01*
X165051870Y-142200870D01*
X164893040Y-142410593D01*
X164859132Y-142734040D01*
X155133334Y-142734040D01*
X155135462Y-142610233D01*
X155106960Y-142410593D01*
X154948130Y-142200870D01*
X153650686Y-142805879D01*
X153049668Y-142805879D01*
X153313138Y-142683021D01*
X152708130Y-141385577D01*
X152451652Y-141444140D01*
X152217770Y-141670119D01*
X152032468Y-141937383D01*
X151902868Y-142235663D01*
X151833950Y-142553496D01*
X151828362Y-142878667D01*
X147620373Y-142878667D01*
X147620228Y-142878139D01*
X147475038Y-142587129D01*
X147382778Y-142468040D01*
X150188989Y-142468040D01*
X150423107Y-142588039D01*
X150747527Y-142565265D01*
X151061271Y-142479638D01*
X151352281Y-142334448D01*
X151609374Y-142135274D01*
X151822671Y-141889771D01*
X151929163Y-141718517D01*
X151942300Y-141455766D01*
X151279735Y-141278232D01*
X152938332Y-141278232D01*
X153543341Y-142575676D01*
X154840785Y-141970668D01*
X165159215Y-141970668D01*
X165918985Y-142324954D01*
X166324339Y-142730309D01*
X166503947Y-142550701D01*
X166532229Y-142550701D01*
X166711837Y-142730309D01*
X166736144Y-142706002D01*
X167984306Y-143288030D01*
X168143136Y-143078307D01*
X168177044Y-142754860D01*
X168147199Y-142431014D01*
X168054747Y-142119214D01*
X167903243Y-141831440D01*
X167772308Y-141669837D01*
X167780539Y-141661606D01*
X167702022Y-141583089D01*
X167698508Y-141578752D01*
X167690560Y-141571627D01*
X167600932Y-141481999D01*
X167596039Y-141486892D01*
X167561318Y-141455766D01*
X168057700Y-141455766D01*
X168070837Y-141718517D01*
X168252770Y-141988086D01*
X168483796Y-142216983D01*
X168755040Y-142396410D01*
X169056076Y-142519472D01*
X169375337Y-142581441D01*
X169576893Y-142588039D01*
X169811011Y-142468040D01*
X169440492Y-141085248D01*
X168057700Y-141455766D01*
X167561318Y-141455766D01*
X167548348Y-141444140D01*
X167291870Y-141385577D01*
X166937584Y-142145347D01*
X166532229Y-142550701D01*
X166503947Y-142550701D01*
X166479640Y-142526394D01*
X167061668Y-141278232D01*
X166851945Y-141119402D01*
X166528498Y-141085494D01*
X166204652Y-141115339D01*
X165892852Y-141207791D01*
X165605078Y-141359295D01*
X165443475Y-141490230D01*
X165435244Y-141481999D01*
X165356727Y-141560516D01*
X165352390Y-141564030D01*
X165345265Y-141571978D01*
X165255637Y-141661606D01*
X165260530Y-141666499D01*
X165217778Y-141714190D01*
X165159215Y-141970668D01*
X154840785Y-141970668D01*
X154782222Y-141714190D01*
X154556243Y-141480308D01*
X154288979Y-141295006D01*
X153990699Y-141165406D01*
X153672866Y-141096488D01*
X153347695Y-141090900D01*
X153148055Y-141119402D01*
X152938332Y-141278232D01*
X151279735Y-141278232D01*
X150559508Y-141085248D01*
X150188989Y-142468040D01*
X147382778Y-142468040D01*
X147275864Y-142330036D01*
X147030361Y-142116739D01*
X146859107Y-142010247D01*
X146596356Y-141997110D01*
X146225838Y-143379902D01*
X145244455Y-143379902D01*
X144531960Y-143188989D01*
X144411961Y-143423107D01*
X144431600Y-143702874D01*
X143875788Y-143040482D01*
X143822551Y-142943644D01*
X144597700Y-142943644D01*
X145980492Y-143314162D01*
X146351011Y-141931370D01*
X146116893Y-141811371D01*
X145792473Y-141834145D01*
X145478729Y-141919772D01*
X145187719Y-142064962D01*
X144930626Y-142264136D01*
X144717329Y-142509639D01*
X144610837Y-142680893D01*
X144597700Y-142943644D01*
X143822551Y-142943644D01*
X142538866Y-140608630D01*
X143249579Y-140608630D01*
X143483697Y-140728629D01*
X143808117Y-140705855D01*
X144121861Y-140620228D01*
X144412871Y-140475038D01*
X144669964Y-140275864D01*
X144789029Y-140138821D01*
X145346830Y-140138821D01*
X145405278Y-140457279D01*
X145524469Y-140758320D01*
X145699862Y-141030477D01*
X145924777Y-141263383D01*
X146190647Y-141448167D01*
X146487345Y-141577791D01*
X146803569Y-141647318D01*
X147127276Y-141654099D01*
X147446135Y-141597875D01*
X147748000Y-141480789D01*
X148021375Y-141307300D01*
X148255846Y-141084017D01*
X148397572Y-140883107D01*
X148811371Y-140883107D01*
X148834145Y-141207527D01*
X148919772Y-141521271D01*
X149064962Y-141812281D01*
X149264136Y-142069374D01*
X149509639Y-142282671D01*
X149680893Y-142389163D01*
X149943644Y-142402300D01*
X150314162Y-141019508D01*
X149643866Y-140839902D01*
X150625248Y-140839902D01*
X152008040Y-141210421D01*
X152128039Y-140976303D01*
X167871961Y-140976303D01*
X167991960Y-141210421D01*
X168704455Y-141019508D01*
X169685838Y-141019508D01*
X170056356Y-142402300D01*
X170319107Y-142389163D01*
X170588676Y-142207230D01*
X170817573Y-141976204D01*
X170847230Y-141931370D01*
X173648989Y-141931370D01*
X174019508Y-143314162D01*
X175402300Y-142943644D01*
X175389163Y-142680893D01*
X175207230Y-142411324D01*
X174976204Y-142182427D01*
X174704960Y-142003000D01*
X174403924Y-141879938D01*
X174084663Y-141817969D01*
X173883107Y-141811371D01*
X173648989Y-141931370D01*
X170847230Y-141931370D01*
X170997000Y-141704960D01*
X171120062Y-141403924D01*
X171182031Y-141084663D01*
X171188629Y-140883107D01*
X171068630Y-140648989D01*
X169685838Y-141019508D01*
X168704455Y-141019508D01*
X169374752Y-140839902D01*
X169004234Y-139457110D01*
X168741483Y-139470247D01*
X168471914Y-139652180D01*
X168243017Y-139883206D01*
X168063590Y-140154450D01*
X167940528Y-140455486D01*
X167878559Y-140774747D01*
X167871961Y-140976303D01*
X152128039Y-140976303D01*
X152105265Y-140651883D01*
X152019638Y-140338139D01*
X151874448Y-140047129D01*
X151675274Y-139790036D01*
X151429771Y-139576739D01*
X151258517Y-139470247D01*
X150995766Y-139457110D01*
X150625248Y-140839902D01*
X149643866Y-140839902D01*
X148931370Y-140648989D01*
X148811371Y-140883107D01*
X148397572Y-140883107D01*
X148442482Y-140819444D01*
X148574174Y-140523658D01*
X148601440Y-140403644D01*
X148997110Y-140403644D01*
X150379902Y-140774162D01*
X150750421Y-139391370D01*
X169249579Y-139391370D01*
X169620098Y-140774162D01*
X171002890Y-140403644D01*
X170989753Y-140140893D01*
X170988355Y-140138821D01*
X171346830Y-140138821D01*
X171405278Y-140457279D01*
X171524469Y-140758320D01*
X171699862Y-141030477D01*
X171924777Y-141263383D01*
X172190647Y-141448167D01*
X172487345Y-141577791D01*
X172803569Y-141647318D01*
X173127276Y-141654099D01*
X173446135Y-141597875D01*
X173748000Y-141480789D01*
X174021375Y-141307300D01*
X174255846Y-141084017D01*
X174442482Y-140819444D01*
X174574174Y-140523658D01*
X174645906Y-140207926D01*
X174651070Y-139838111D01*
X174603202Y-139596356D01*
X174997110Y-139596356D01*
X175010247Y-139859107D01*
X175192180Y-140128676D01*
X175423206Y-140357573D01*
X175694450Y-140537000D01*
X175995486Y-140660062D01*
X176314747Y-140722031D01*
X176516303Y-140728629D01*
X176750421Y-140608630D01*
X176379902Y-139225838D01*
X174997110Y-139596356D01*
X174603202Y-139596356D01*
X174588182Y-139520500D01*
X174464799Y-139221152D01*
X174395530Y-139116893D01*
X174811371Y-139116893D01*
X174931370Y-139351011D01*
X176314162Y-138980492D01*
X175943644Y-137597700D01*
X175680893Y-137610837D01*
X175411324Y-137792770D01*
X175182427Y-138023796D01*
X175003000Y-138295040D01*
X174879938Y-138596076D01*
X174817969Y-138915337D01*
X174811371Y-139116893D01*
X174395530Y-139116893D01*
X174285624Y-138951471D01*
X174057479Y-138721728D01*
X173789055Y-138540674D01*
X173490576Y-138415205D01*
X173173411Y-138350100D01*
X172849642Y-138347840D01*
X172531599Y-138408510D01*
X172231397Y-138529799D01*
X171960472Y-138707088D01*
X171729141Y-138933623D01*
X171546218Y-139200776D01*
X171418668Y-139498372D01*
X171351351Y-139815074D01*
X171346830Y-140138821D01*
X170988355Y-140138821D01*
X170807820Y-139871324D01*
X170576794Y-139642427D01*
X170305550Y-139463000D01*
X170004514Y-139339938D01*
X169685253Y-139277969D01*
X169483697Y-139271371D01*
X169249579Y-139391370D01*
X150750421Y-139391370D01*
X150516303Y-139271371D01*
X150191883Y-139294145D01*
X149878139Y-139379772D01*
X149587129Y-139524962D01*
X149330036Y-139724136D01*
X149116739Y-139969639D01*
X149010247Y-140140893D01*
X148997110Y-140403644D01*
X148601440Y-140403644D01*
X148645906Y-140207926D01*
X148651070Y-139838111D01*
X148588182Y-139520500D01*
X148464799Y-139221152D01*
X148285624Y-138951471D01*
X148057479Y-138721728D01*
X147789055Y-138540674D01*
X147490576Y-138415205D01*
X147173411Y-138350100D01*
X146849642Y-138347840D01*
X146531599Y-138408510D01*
X146231397Y-138529799D01*
X145960472Y-138707088D01*
X145729141Y-138933623D01*
X145546218Y-139200776D01*
X145418668Y-139498372D01*
X145351351Y-139815074D01*
X145346830Y-140138821D01*
X144789029Y-140138821D01*
X144883261Y-140030361D01*
X144989753Y-139859107D01*
X145002890Y-139596356D01*
X143620098Y-139225838D01*
X143249579Y-140608630D01*
X142538866Y-140608630D01*
X142307408Y-140187610D01*
X142324726Y-140209964D01*
X142570229Y-140423261D01*
X142741483Y-140529753D01*
X143004234Y-140542890D01*
X143374752Y-139160098D01*
X142704456Y-138980492D01*
X143685838Y-138980492D01*
X145068630Y-139351011D01*
X145188629Y-139116893D01*
X145165855Y-138792473D01*
X145080228Y-138478729D01*
X144935038Y-138187719D01*
X144842778Y-138068630D01*
X147648989Y-138068630D01*
X147883107Y-138188629D01*
X148207527Y-138165855D01*
X148521271Y-138080228D01*
X148812281Y-137935038D01*
X149069374Y-137735864D01*
X149282671Y-137490361D01*
X149389163Y-137319107D01*
X149402300Y-137056356D01*
X170597700Y-137056356D01*
X170610837Y-137319107D01*
X170792770Y-137588676D01*
X171023796Y-137817573D01*
X171295040Y-137997000D01*
X171596076Y-138120062D01*
X171915337Y-138182031D01*
X172116893Y-138188629D01*
X172351011Y-138068630D01*
X171980492Y-136685838D01*
X170597700Y-137056356D01*
X149402300Y-137056356D01*
X148019508Y-136685838D01*
X147648989Y-138068630D01*
X144842778Y-138068630D01*
X144735864Y-137930626D01*
X144490361Y-137717329D01*
X144319107Y-137610837D01*
X144056356Y-137597700D01*
X143685838Y-138980492D01*
X142704456Y-138980492D01*
X141991960Y-138789579D01*
X141871961Y-139023697D01*
X141885472Y-139216158D01*
X141672326Y-138544234D01*
X142057700Y-138544234D01*
X143440492Y-138914752D01*
X143811011Y-137531960D01*
X143576893Y-137411961D01*
X143252473Y-137434735D01*
X142938729Y-137520362D01*
X142647719Y-137665552D01*
X142390626Y-137864726D01*
X142177329Y-138110229D01*
X142070837Y-138281483D01*
X142057700Y-138544234D01*
X141672326Y-138544234D01*
X141018685Y-136483697D01*
X146271371Y-136483697D01*
X146294145Y-136808117D01*
X146379772Y-137121861D01*
X146524962Y-137412871D01*
X146724136Y-137669964D01*
X146969639Y-137883261D01*
X147140893Y-137989753D01*
X147403644Y-138002890D01*
X147774162Y-136620098D01*
X147103866Y-136440492D01*
X148085248Y-136440492D01*
X149468040Y-136811011D01*
X149588039Y-136576893D01*
X170411961Y-136576893D01*
X170531960Y-136811011D01*
X171244455Y-136620098D01*
X172225838Y-136620098D01*
X172596356Y-138002890D01*
X172859107Y-137989753D01*
X173128676Y-137807820D01*
X173357573Y-137576794D01*
X173387230Y-137531960D01*
X176188989Y-137531960D01*
X176559508Y-138914752D01*
X177942300Y-138544234D01*
X177929163Y-138281483D01*
X177747230Y-138011914D01*
X177516204Y-137783017D01*
X177244960Y-137603590D01*
X176943924Y-137480528D01*
X176624663Y-137418559D01*
X176423107Y-137411961D01*
X176188989Y-137531960D01*
X173387230Y-137531960D01*
X173537000Y-137305550D01*
X173660062Y-137004514D01*
X173722031Y-136685253D01*
X173728629Y-136483697D01*
X173608630Y-136249579D01*
X172225838Y-136620098D01*
X171244455Y-136620098D01*
X171914752Y-136440492D01*
X171544234Y-135057700D01*
X171281483Y-135070837D01*
X171011914Y-135252770D01*
X170783017Y-135483796D01*
X170603590Y-135755040D01*
X170480528Y-136056076D01*
X170418559Y-136375337D01*
X170411961Y-136576893D01*
X149588039Y-136576893D01*
X149565265Y-136252473D01*
X149479638Y-135938729D01*
X149334448Y-135647719D01*
X149135274Y-135390626D01*
X148889771Y-135177329D01*
X148718517Y-135070837D01*
X148455766Y-135057700D01*
X148085248Y-136440492D01*
X147103866Y-136440492D01*
X146391370Y-136249579D01*
X146271371Y-136483697D01*
X141018685Y-136483697D01*
X140885222Y-136062970D01*
X140878634Y-136004234D01*
X146457110Y-136004234D01*
X147839902Y-136374752D01*
X148210421Y-134991960D01*
X171789579Y-134991960D01*
X172160098Y-136374752D01*
X173542890Y-136004234D01*
X173529753Y-135741483D01*
X173347820Y-135471914D01*
X173116794Y-135243017D01*
X172845550Y-135063590D01*
X172544514Y-134940528D01*
X172225253Y-134878559D01*
X172023697Y-134871961D01*
X171789579Y-134991960D01*
X148210421Y-134991960D01*
X147976303Y-134871961D01*
X147651883Y-134894735D01*
X147338139Y-134980362D01*
X147047129Y-135125552D01*
X146790036Y-135324726D01*
X146576739Y-135570229D01*
X146470247Y-135741483D01*
X146457110Y-136004234D01*
X140878634Y-136004234D01*
X140585023Y-133386632D01*
X140709862Y-133515907D01*
X141028874Y-133737626D01*
X141384875Y-133893159D01*
X141764307Y-133976582D01*
X142152716Y-133984718D01*
X142535308Y-133917257D01*
X142897510Y-133776768D01*
X143225526Y-133568602D01*
X143506863Y-133300689D01*
X143730804Y-132983233D01*
X143888818Y-132628326D01*
X143974889Y-132249486D01*
X143981085Y-131805753D01*
X143905626Y-131424658D01*
X143757582Y-131065477D01*
X143542593Y-130741892D01*
X143268847Y-130466228D01*
X142946770Y-130248985D01*
X142588632Y-130098437D01*
X142208073Y-130020320D01*
X141819588Y-130017607D01*
X141437975Y-130090404D01*
X141077770Y-130235936D01*
X140752692Y-130448662D01*
X140475123Y-130720477D01*
X140456000Y-130748405D01*
X140456000Y-127074750D01*
X155109832Y-127074750D01*
X155141304Y-127246227D01*
X155205483Y-127408326D01*
X155299926Y-127554872D01*
X155421034Y-127680283D01*
X155564194Y-127779782D01*
X155723955Y-127849580D01*
X155894230Y-127887017D01*
X156068533Y-127890668D01*
X156240226Y-127860394D01*
X156402769Y-127797348D01*
X156549971Y-127703931D01*
X156676224Y-127583701D01*
X156776721Y-127441239D01*
X156847632Y-127281970D01*
X156886257Y-127111960D01*
X156886776Y-127074750D01*
X163109832Y-127074750D01*
X163141304Y-127246227D01*
X163205483Y-127408326D01*
X163299926Y-127554872D01*
X163421034Y-127680283D01*
X163564194Y-127779782D01*
X163723955Y-127849580D01*
X163894230Y-127887017D01*
X164068533Y-127890668D01*
X164240226Y-127860394D01*
X164402769Y-127797348D01*
X164549971Y-127703931D01*
X164676224Y-127583701D01*
X164776721Y-127441239D01*
X164847632Y-127281970D01*
X164886257Y-127111960D01*
X164889038Y-126912829D01*
X164855174Y-126741808D01*
X164788738Y-126580621D01*
X164692259Y-126435408D01*
X164569411Y-126311700D01*
X164424876Y-126214209D01*
X164264156Y-126146649D01*
X164093375Y-126111593D01*
X163919038Y-126110375D01*
X163747784Y-126143044D01*
X163586137Y-126208353D01*
X163440254Y-126303817D01*
X163315692Y-126425797D01*
X163217194Y-126569649D01*
X163148514Y-126729893D01*
X163112266Y-126900425D01*
X163109832Y-127074750D01*
X156886776Y-127074750D01*
X156889038Y-126912829D01*
X156855174Y-126741808D01*
X156788738Y-126580621D01*
X156692259Y-126435408D01*
X156569411Y-126311700D01*
X156424876Y-126214209D01*
X156264156Y-126146649D01*
X156093375Y-126111593D01*
X155919038Y-126110375D01*
X155747784Y-126143044D01*
X155586137Y-126208353D01*
X155440254Y-126303817D01*
X155315692Y-126425797D01*
X155217194Y-126569649D01*
X155148514Y-126729893D01*
X155112266Y-126900425D01*
X155109832Y-127074750D01*
X140456000Y-127074750D01*
X140456000Y-112374750D01*
X147609832Y-112374750D01*
X147641304Y-112546227D01*
X147705483Y-112708326D01*
X147799926Y-112854872D01*
X147921034Y-112980283D01*
X148064194Y-113079782D01*
X148223955Y-113149580D01*
X148394230Y-113187017D01*
X148568533Y-113190668D01*
X148740226Y-113160394D01*
X148902769Y-113097348D01*
X149049971Y-113003931D01*
X149176224Y-112883701D01*
X149276721Y-112741239D01*
X149347632Y-112581970D01*
X149386257Y-112411960D01*
X149389038Y-112212829D01*
X149355174Y-112041808D01*
X149288738Y-111880621D01*
X149192259Y-111735408D01*
X149069411Y-111611700D01*
X148924876Y-111514209D01*
X148764156Y-111446649D01*
X148593375Y-111411593D01*
X148419038Y-111410375D01*
X148247784Y-111443044D01*
X148086137Y-111508353D01*
X147940254Y-111603817D01*
X147815692Y-111725797D01*
X147717194Y-111869649D01*
X147648514Y-112029893D01*
X147612266Y-112200425D01*
X147609832Y-112374750D01*
X140456000Y-112374750D01*
X140456000Y-110574750D01*
X144609832Y-110574750D01*
X144641304Y-110746227D01*
X144705483Y-110908326D01*
X144799926Y-111054872D01*
X144921034Y-111180283D01*
X145064194Y-111279782D01*
X145223955Y-111349580D01*
X145394230Y-111387017D01*
X145568533Y-111390668D01*
X145740226Y-111360394D01*
X145902769Y-111297348D01*
X146049971Y-111203931D01*
X146176224Y-111083701D01*
X146276721Y-110941239D01*
X146347632Y-110781970D01*
X146386257Y-110611960D01*
X146388173Y-110474750D01*
X161809832Y-110474750D01*
X161841304Y-110646227D01*
X161905483Y-110808326D01*
X161999926Y-110954872D01*
X162121034Y-111080283D01*
X162264194Y-111179782D01*
X162423955Y-111249580D01*
X162594230Y-111287017D01*
X162768533Y-111290668D01*
X162940226Y-111260394D01*
X163102769Y-111197348D01*
X163249971Y-111103931D01*
X163376224Y-110983701D01*
X163476721Y-110841239D01*
X163547632Y-110681970D01*
X163586257Y-110511960D01*
X163589038Y-110312829D01*
X163555174Y-110141808D01*
X163488738Y-109980621D01*
X163392259Y-109835408D01*
X163269411Y-109711700D01*
X163124876Y-109614209D01*
X162964156Y-109546649D01*
X162793375Y-109511593D01*
X162619038Y-109510375D01*
X162447784Y-109543044D01*
X162286137Y-109608353D01*
X162140254Y-109703817D01*
X162015692Y-109825797D01*
X161917194Y-109969649D01*
X161848514Y-110129893D01*
X161812266Y-110300425D01*
X161809832Y-110474750D01*
X146388173Y-110474750D01*
X146389038Y-110412829D01*
X146355174Y-110241808D01*
X146288738Y-110080621D01*
X146192259Y-109935408D01*
X146069411Y-109811700D01*
X145924876Y-109714209D01*
X145764156Y-109646649D01*
X145593375Y-109611593D01*
X145419038Y-109610375D01*
X145247784Y-109643044D01*
X145086137Y-109708353D01*
X144940254Y-109803817D01*
X144815692Y-109925797D01*
X144717194Y-110069649D01*
X144648514Y-110229893D01*
X144612266Y-110400425D01*
X144609832Y-110574750D01*
X140456000Y-110574750D01*
X140456000Y-109427688D01*
X146551917Y-109427688D01*
X146581755Y-109554091D01*
X146715477Y-109603609D01*
X146856290Y-109626088D01*
X146998783Y-109620663D01*
X147137480Y-109587545D01*
X147218245Y-109554091D01*
X147248083Y-109427688D01*
X146900000Y-109079605D01*
X146551917Y-109427688D01*
X140456000Y-109427688D01*
X140456000Y-108856290D01*
X146173912Y-108856290D01*
X146179337Y-108998783D01*
X146212455Y-109137480D01*
X146245909Y-109218245D01*
X146372312Y-109248083D01*
X146720395Y-108900000D01*
X147079605Y-108900000D01*
X147427688Y-109248083D01*
X147554091Y-109218245D01*
X147603609Y-109084523D01*
X147626088Y-108943710D01*
X147625479Y-108927688D01*
X152251917Y-108927688D01*
X152281755Y-109054091D01*
X152415477Y-109103609D01*
X152556290Y-109126088D01*
X152698783Y-109120663D01*
X152837480Y-109087545D01*
X152918245Y-109054091D01*
X152948082Y-108927690D01*
X152998378Y-108977986D01*
X152942777Y-109032434D01*
X152862572Y-109149571D01*
X152806646Y-109280055D01*
X152777130Y-109418917D01*
X152775148Y-109560868D01*
X152800775Y-109700499D01*
X152853036Y-109832494D01*
X152929939Y-109951825D01*
X153028556Y-110053945D01*
X153145129Y-110134966D01*
X153275220Y-110191801D01*
X153413873Y-110222286D01*
X153555806Y-110225259D01*
X153695613Y-110200607D01*
X153827970Y-110149270D01*
X153947834Y-110073201D01*
X154050640Y-109975300D01*
X154132473Y-109859295D01*
X154190215Y-109729604D01*
X154221667Y-109591168D01*
X154223931Y-109429018D01*
X154196357Y-109289757D01*
X154142259Y-109158505D01*
X154077389Y-109060868D01*
X165275148Y-109060868D01*
X165300775Y-109200499D01*
X165353036Y-109332494D01*
X165429939Y-109451825D01*
X165528556Y-109553945D01*
X165645129Y-109634966D01*
X165775220Y-109691801D01*
X165913873Y-109722286D01*
X166055806Y-109725259D01*
X166195613Y-109700607D01*
X166327970Y-109649270D01*
X166447834Y-109573201D01*
X166550640Y-109475300D01*
X166632473Y-109359295D01*
X166690215Y-109229604D01*
X166721667Y-109091168D01*
X166723931Y-108929018D01*
X166696357Y-108789757D01*
X166690172Y-108774750D01*
X170159844Y-108774750D01*
X170191316Y-108946227D01*
X170255495Y-109108326D01*
X170349938Y-109254872D01*
X170471046Y-109380283D01*
X170614206Y-109479782D01*
X170773967Y-109549580D01*
X170944242Y-109587017D01*
X171118545Y-109590668D01*
X171290238Y-109560394D01*
X171452781Y-109497348D01*
X171599983Y-109403931D01*
X171726236Y-109283701D01*
X171826733Y-109141239D01*
X171897644Y-108981970D01*
X171936269Y-108811960D01*
X171939050Y-108612829D01*
X171905186Y-108441808D01*
X171838750Y-108280621D01*
X171742271Y-108135408D01*
X171619423Y-108011700D01*
X171474888Y-107914209D01*
X171314168Y-107846649D01*
X171143387Y-107811593D01*
X170969050Y-107810375D01*
X170797796Y-107843044D01*
X170636149Y-107908353D01*
X170490266Y-108003817D01*
X170365704Y-108125797D01*
X170267206Y-108269649D01*
X170198526Y-108429893D01*
X170162278Y-108600425D01*
X170159844Y-108774750D01*
X166690172Y-108774750D01*
X166642259Y-108658505D01*
X166563697Y-108540260D01*
X166463664Y-108439526D01*
X166345970Y-108360141D01*
X166215099Y-108305128D01*
X166076034Y-108276582D01*
X165934074Y-108275591D01*
X165794624Y-108302192D01*
X165662997Y-108355373D01*
X165544207Y-108433107D01*
X165442777Y-108532434D01*
X165362572Y-108649571D01*
X165306646Y-108780055D01*
X165277130Y-108918917D01*
X165275148Y-109060868D01*
X154077389Y-109060868D01*
X154063697Y-109040260D01*
X153963664Y-108939526D01*
X153845970Y-108860141D01*
X153715099Y-108805128D01*
X153576034Y-108776582D01*
X153434074Y-108775591D01*
X153294624Y-108802192D01*
X153178877Y-108848957D01*
X153203721Y-108824113D01*
X153127690Y-108748082D01*
X153254091Y-108718245D01*
X153303609Y-108584523D01*
X153326088Y-108443710D01*
X153320663Y-108301217D01*
X153287545Y-108162520D01*
X153254091Y-108081755D01*
X153127688Y-108051917D01*
X152779605Y-108400000D01*
X152793748Y-108414143D01*
X152614143Y-108593748D01*
X152600000Y-108579605D01*
X152251917Y-108927688D01*
X147625479Y-108927688D01*
X147620663Y-108801217D01*
X147587545Y-108662520D01*
X147554091Y-108581755D01*
X147427688Y-108551917D01*
X147079605Y-108900000D01*
X146720395Y-108900000D01*
X146372312Y-108551917D01*
X146245909Y-108581755D01*
X146196391Y-108715477D01*
X146173912Y-108856290D01*
X140456000Y-108856290D01*
X140456000Y-108372312D01*
X146551917Y-108372312D01*
X146900000Y-108720395D01*
X147248083Y-108372312D01*
X147244301Y-108356290D01*
X151873912Y-108356290D01*
X151879337Y-108498783D01*
X151912455Y-108637480D01*
X151945909Y-108718245D01*
X152072312Y-108748083D01*
X152420395Y-108400000D01*
X152072312Y-108051917D01*
X151945909Y-108081755D01*
X151896391Y-108215477D01*
X151873912Y-108356290D01*
X147244301Y-108356290D01*
X147218245Y-108245909D01*
X147084523Y-108196391D01*
X146943710Y-108173912D01*
X146801217Y-108179337D01*
X146662520Y-108212455D01*
X146581755Y-108245909D01*
X146551917Y-108372312D01*
X140456000Y-108372312D01*
X140456000Y-107872312D01*
X152251917Y-107872312D01*
X152600000Y-108220395D01*
X152948083Y-107872312D01*
X152918245Y-107745909D01*
X152784523Y-107696391D01*
X152643710Y-107673912D01*
X152501217Y-107679337D01*
X152362520Y-107712455D01*
X152281755Y-107745909D01*
X152251917Y-107872312D01*
X140456000Y-107872312D01*
X140456000Y-106627688D01*
X146751917Y-106627688D01*
X146781755Y-106754091D01*
X146915477Y-106803609D01*
X147056290Y-106826088D01*
X147198783Y-106820663D01*
X147337480Y-106787545D01*
X147418245Y-106754091D01*
X147424477Y-106727688D01*
X150251917Y-106727688D01*
X150281755Y-106854091D01*
X150415477Y-106903609D01*
X150556290Y-106926088D01*
X150698783Y-106920663D01*
X150837480Y-106887545D01*
X150918245Y-106854091D01*
X150948083Y-106727688D01*
X150895145Y-106674750D01*
X156209832Y-106674750D01*
X156241304Y-106846227D01*
X156305483Y-107008326D01*
X156399926Y-107154872D01*
X156521034Y-107280283D01*
X156664194Y-107379782D01*
X156823955Y-107449580D01*
X156994230Y-107487017D01*
X157168533Y-107490668D01*
X157340226Y-107460394D01*
X157502769Y-107397348D01*
X157649971Y-107303931D01*
X157776224Y-107183701D01*
X157876721Y-107041239D01*
X157947632Y-106881970D01*
X157971991Y-106774750D01*
X161309832Y-106774750D01*
X161341304Y-106946227D01*
X161405483Y-107108326D01*
X161499926Y-107254872D01*
X161621034Y-107380283D01*
X161764194Y-107479782D01*
X161923955Y-107549580D01*
X162094230Y-107587017D01*
X162268533Y-107590668D01*
X162440226Y-107560394D01*
X162602769Y-107497348D01*
X162749971Y-107403931D01*
X162876224Y-107283701D01*
X162976721Y-107141239D01*
X163047632Y-106981970D01*
X163086257Y-106811960D01*
X163089038Y-106612829D01*
X163055174Y-106441808D01*
X162988738Y-106280621D01*
X162892259Y-106135408D01*
X162769411Y-106011700D01*
X162624876Y-105914209D01*
X162464156Y-105846649D01*
X162293375Y-105811593D01*
X162119038Y-105810375D01*
X161947784Y-105843044D01*
X161786137Y-105908353D01*
X161640254Y-106003817D01*
X161515692Y-106125797D01*
X161417194Y-106269649D01*
X161348514Y-106429893D01*
X161312266Y-106600425D01*
X161309832Y-106774750D01*
X157971991Y-106774750D01*
X157986257Y-106711960D01*
X157989038Y-106512829D01*
X157955174Y-106341808D01*
X157888738Y-106180621D01*
X157792259Y-106035408D01*
X157669411Y-105911700D01*
X157524876Y-105814209D01*
X157364156Y-105746649D01*
X157193375Y-105711593D01*
X157019038Y-105710375D01*
X156847784Y-105743044D01*
X156686137Y-105808353D01*
X156540254Y-105903817D01*
X156415692Y-106025797D01*
X156317194Y-106169649D01*
X156248514Y-106329893D01*
X156212266Y-106500425D01*
X156209832Y-106674750D01*
X150895145Y-106674750D01*
X150600000Y-106379605D01*
X150251917Y-106727688D01*
X147424477Y-106727688D01*
X147448083Y-106627688D01*
X147100000Y-106279605D01*
X146751917Y-106627688D01*
X140456000Y-106627688D01*
X140456000Y-106056290D01*
X146373912Y-106056290D01*
X146379337Y-106198783D01*
X146412455Y-106337480D01*
X146445909Y-106418245D01*
X146572312Y-106448083D01*
X146920395Y-106100000D01*
X147279605Y-106100000D01*
X147627688Y-106448083D01*
X147754091Y-106418245D01*
X147803609Y-106284523D01*
X147824079Y-106156290D01*
X149873912Y-106156290D01*
X149879337Y-106298783D01*
X149912455Y-106437480D01*
X149945909Y-106518245D01*
X150072312Y-106548083D01*
X150420395Y-106200000D01*
X150779605Y-106200000D01*
X151127688Y-106548083D01*
X151254091Y-106518245D01*
X151303609Y-106384523D01*
X151326088Y-106243710D01*
X151320663Y-106101217D01*
X151287545Y-105962520D01*
X151254091Y-105881755D01*
X151127688Y-105851917D01*
X150779605Y-106200000D01*
X150420395Y-106200000D01*
X150072312Y-105851917D01*
X149945909Y-105881755D01*
X149896391Y-106015477D01*
X149873912Y-106156290D01*
X147824079Y-106156290D01*
X147826088Y-106143710D01*
X147820663Y-106001217D01*
X147787545Y-105862520D01*
X147754091Y-105781755D01*
X147627688Y-105751917D01*
X147279605Y-106100000D01*
X146920395Y-106100000D01*
X146572312Y-105751917D01*
X146445909Y-105781755D01*
X146396391Y-105915477D01*
X146373912Y-106056290D01*
X140456000Y-106056290D01*
X140456000Y-105572312D01*
X146751917Y-105572312D01*
X147100000Y-105920395D01*
X147348083Y-105672312D01*
X150251917Y-105672312D01*
X150600000Y-106020395D01*
X150948083Y-105672312D01*
X150918245Y-105545909D01*
X150784523Y-105496391D01*
X150643710Y-105473912D01*
X150501217Y-105479337D01*
X150362520Y-105512455D01*
X150281755Y-105545909D01*
X150251917Y-105672312D01*
X147348083Y-105672312D01*
X147448083Y-105572312D01*
X147418245Y-105445909D01*
X147284523Y-105396391D01*
X147143710Y-105373912D01*
X147001217Y-105379337D01*
X146862520Y-105412455D01*
X146781755Y-105445909D01*
X146751917Y-105572312D01*
X140456000Y-105572312D01*
X140456000Y-105127688D01*
X152551917Y-105127688D01*
X152581755Y-105254091D01*
X152715477Y-105303609D01*
X152856290Y-105326088D01*
X152998783Y-105320663D01*
X153137480Y-105287545D01*
X153218245Y-105254091D01*
X153248083Y-105127688D01*
X152900000Y-104779605D01*
X152551917Y-105127688D01*
X140456000Y-105127688D01*
X140456000Y-104556290D01*
X152173912Y-104556290D01*
X152179337Y-104698783D01*
X152212455Y-104837480D01*
X152245909Y-104918245D01*
X152372312Y-104948083D01*
X152720395Y-104600000D01*
X153079605Y-104600000D01*
X153427688Y-104948083D01*
X153554091Y-104918245D01*
X153603609Y-104784523D01*
X153626088Y-104643710D01*
X153620663Y-104501217D01*
X153587545Y-104362520D01*
X153554091Y-104281755D01*
X153427688Y-104251917D01*
X153079605Y-104600000D01*
X152720395Y-104600000D01*
X152372312Y-104251917D01*
X152245909Y-104281755D01*
X152196391Y-104415477D01*
X152173912Y-104556290D01*
X140456000Y-104556290D01*
X140456000Y-104072312D01*
X152551917Y-104072312D01*
X152900000Y-104420395D01*
X153248083Y-104072312D01*
X153218245Y-103945909D01*
X153084523Y-103896391D01*
X152943710Y-103873912D01*
X152801217Y-103879337D01*
X152662520Y-103912455D01*
X152581755Y-103945909D01*
X152551917Y-104072312D01*
X140456000Y-104072312D01*
X140456000Y-103727688D01*
X146551917Y-103727688D01*
X146581755Y-103854091D01*
X146715477Y-103903609D01*
X146856290Y-103926088D01*
X146998783Y-103920663D01*
X147137480Y-103887545D01*
X147218245Y-103854091D01*
X147248083Y-103727688D01*
X146900000Y-103379605D01*
X146551917Y-103727688D01*
X140456000Y-103727688D01*
X140456000Y-103156290D01*
X146173912Y-103156290D01*
X146179337Y-103298783D01*
X146212455Y-103437480D01*
X146245909Y-103518245D01*
X146372312Y-103548083D01*
X146720395Y-103200000D01*
X147079605Y-103200000D01*
X147427688Y-103548083D01*
X147554091Y-103518245D01*
X147603609Y-103384523D01*
X147626088Y-103243710D01*
X147620663Y-103101217D01*
X147611029Y-103060868D01*
X161775148Y-103060868D01*
X161800775Y-103200499D01*
X161853036Y-103332494D01*
X161929939Y-103451825D01*
X162028556Y-103553945D01*
X162145129Y-103634966D01*
X162275220Y-103691801D01*
X162413873Y-103722286D01*
X162555806Y-103725259D01*
X162695613Y-103700607D01*
X162827970Y-103649270D01*
X162947834Y-103573201D01*
X162999569Y-103523934D01*
X163028556Y-103553951D01*
X163145129Y-103634972D01*
X163275220Y-103691807D01*
X163413873Y-103722292D01*
X163555806Y-103725265D01*
X163695613Y-103700613D01*
X163797534Y-103661081D01*
X163777118Y-103757129D01*
X163775136Y-103899080D01*
X163800763Y-104038711D01*
X163853024Y-104170706D01*
X163909204Y-104257882D01*
X163862567Y-104325994D01*
X163806641Y-104456478D01*
X163777125Y-104595340D01*
X163775143Y-104737291D01*
X163800770Y-104876922D01*
X163853031Y-105008917D01*
X163929934Y-105128248D01*
X164028551Y-105230368D01*
X164145124Y-105311389D01*
X164275215Y-105368224D01*
X164413868Y-105398709D01*
X164555801Y-105401682D01*
X164695608Y-105377030D01*
X164827965Y-105325693D01*
X164947829Y-105249624D01*
X165050635Y-105151723D01*
X165132468Y-105035718D01*
X165190210Y-104906027D01*
X165221662Y-104767591D01*
X165223926Y-104605441D01*
X165196352Y-104466180D01*
X165142254Y-104334928D01*
X165090486Y-104257011D01*
X165132461Y-104197507D01*
X165190203Y-104067816D01*
X165221655Y-103929380D01*
X165223919Y-103767230D01*
X165196345Y-103627969D01*
X165142247Y-103496717D01*
X165090490Y-103418817D01*
X165132473Y-103359303D01*
X165190215Y-103229612D01*
X165221667Y-103091176D01*
X165223931Y-102929026D01*
X165196357Y-102789765D01*
X165142259Y-102658513D01*
X165063697Y-102540268D01*
X164963664Y-102439534D01*
X164845970Y-102360149D01*
X164715099Y-102305136D01*
X164576034Y-102276590D01*
X164434074Y-102275599D01*
X164294624Y-102302200D01*
X164162997Y-102355381D01*
X164044207Y-102433115D01*
X164000142Y-102476266D01*
X163963664Y-102439532D01*
X163845970Y-102360147D01*
X163715099Y-102305134D01*
X163576034Y-102276588D01*
X163434074Y-102275597D01*
X163294624Y-102302198D01*
X163162997Y-102355379D01*
X163044207Y-102433113D01*
X163000144Y-102476262D01*
X162963664Y-102439526D01*
X162845970Y-102360141D01*
X162715099Y-102305128D01*
X162576034Y-102276582D01*
X162434074Y-102275591D01*
X162294624Y-102302192D01*
X162162997Y-102355373D01*
X162044207Y-102433107D01*
X161942777Y-102532434D01*
X161862572Y-102649571D01*
X161806646Y-102780055D01*
X161777130Y-102918917D01*
X161775148Y-103060868D01*
X147611029Y-103060868D01*
X147587545Y-102962520D01*
X147554091Y-102881755D01*
X147427688Y-102851917D01*
X147079605Y-103200000D01*
X146720395Y-103200000D01*
X146372312Y-102851917D01*
X146245909Y-102881755D01*
X146196391Y-103015477D01*
X146173912Y-103156290D01*
X140456000Y-103156290D01*
X140456000Y-102672312D01*
X146551917Y-102672312D01*
X146900000Y-103020395D01*
X147248083Y-102672312D01*
X147218245Y-102545909D01*
X147084523Y-102496391D01*
X146943710Y-102473912D01*
X146801217Y-102479337D01*
X146662520Y-102512455D01*
X146581755Y-102545909D01*
X146551917Y-102672312D01*
X140456000Y-102672312D01*
X140456000Y-99527688D01*
X140651917Y-99527688D01*
X140681755Y-99654091D01*
X140815477Y-99703609D01*
X140956290Y-99726088D01*
X141098783Y-99720663D01*
X141237480Y-99687545D01*
X141318245Y-99654091D01*
X141336973Y-99574750D01*
X150109832Y-99574750D01*
X150141304Y-99746227D01*
X150205483Y-99908326D01*
X150299926Y-100054872D01*
X150421034Y-100180283D01*
X150564194Y-100279782D01*
X150723955Y-100349580D01*
X150894230Y-100387017D01*
X151068533Y-100390668D01*
X151240226Y-100360394D01*
X151402769Y-100297348D01*
X151549971Y-100203931D01*
X151676224Y-100083701D01*
X151776721Y-99941239D01*
X151847632Y-99781970D01*
X151886257Y-99611960D01*
X151889038Y-99412829D01*
X151855174Y-99241808D01*
X151788738Y-99080621D01*
X151692259Y-98935408D01*
X151569411Y-98811700D01*
X151424876Y-98714209D01*
X151264156Y-98646649D01*
X151093375Y-98611593D01*
X150919038Y-98610375D01*
X150747784Y-98643044D01*
X150586137Y-98708353D01*
X150440254Y-98803817D01*
X150315692Y-98925797D01*
X150217194Y-99069649D01*
X150148514Y-99229893D01*
X150112266Y-99400425D01*
X150109832Y-99574750D01*
X141336973Y-99574750D01*
X141348083Y-99527688D01*
X141000000Y-99179605D01*
X140651917Y-99527688D01*
X140456000Y-99527688D01*
X140456000Y-99344232D01*
X140472312Y-99348083D01*
X140820395Y-99000000D01*
X141179605Y-99000000D01*
X141527688Y-99348083D01*
X141654091Y-99318245D01*
X141703609Y-99184523D01*
X141726088Y-99043710D01*
X141720663Y-98901217D01*
X141687545Y-98762520D01*
X141654091Y-98681755D01*
X141527688Y-98651917D01*
X141179605Y-99000000D01*
X140820395Y-99000000D01*
X140472312Y-98651917D01*
X140456000Y-98655768D01*
X140456000Y-98472312D01*
X140651917Y-98472312D01*
X141000000Y-98820395D01*
X141348083Y-98472312D01*
X141318245Y-98345909D01*
X141184523Y-98296391D01*
X141043710Y-98273912D01*
X140901217Y-98279337D01*
X140762520Y-98312455D01*
X140681755Y-98345909D01*
X140651917Y-98472312D01*
X140456000Y-98472312D01*
X140456000Y-97253024D01*
X140709862Y-97515907D01*
X141028874Y-97737626D01*
X141384875Y-97893159D01*
X141764307Y-97976582D01*
X142152716Y-97984718D01*
X142535308Y-97917257D01*
X142897510Y-97776768D01*
X143225526Y-97568602D01*
X143506863Y-97300689D01*
X143730804Y-96983233D01*
X143888818Y-96628326D01*
X143974889Y-96249486D01*
X143981085Y-95805753D01*
X143905626Y-95424658D01*
X143757582Y-95065477D01*
X143542593Y-94741892D01*
X143268847Y-94466228D01*
X142946770Y-94248985D01*
X142588632Y-94098437D01*
X142208073Y-94020320D01*
X141819588Y-94017607D01*
X141437975Y-94090404D01*
X141077770Y-94235936D01*
X140752692Y-94448662D01*
X140475123Y-94720477D01*
X140456000Y-94748405D01*
X140456000Y-90095098D01*
X148367514Y-90095098D01*
X148407553Y-90313254D01*
X148489203Y-90519479D01*
X148609354Y-90705917D01*
X148763430Y-90865467D01*
X148945561Y-90992051D01*
X149148811Y-91080849D01*
X149365437Y-91128477D01*
X149587189Y-91133123D01*
X149805620Y-91094607D01*
X150012410Y-91014399D01*
X150199682Y-90895552D01*
X150278430Y-90820561D01*
X151399044Y-90820561D01*
X151478927Y-90988315D01*
X151682519Y-91078785D01*
X151899848Y-91127798D01*
X152122563Y-91133470D01*
X152342106Y-91095583D01*
X152550039Y-91015593D01*
X152601073Y-90988315D01*
X152680956Y-90820561D01*
X152040000Y-90179605D01*
X151399044Y-90820561D01*
X150278430Y-90820561D01*
X150360304Y-90742594D01*
X150488157Y-90561351D01*
X150578371Y-90358726D01*
X150627511Y-90142438D01*
X150628346Y-90082563D01*
X150906530Y-90082563D01*
X150944417Y-90302106D01*
X151024407Y-90510039D01*
X151051685Y-90561073D01*
X151219439Y-90640956D01*
X151860395Y-90000000D01*
X152219605Y-90000000D01*
X152860561Y-90640956D01*
X153028315Y-90561073D01*
X153118785Y-90357481D01*
X153167798Y-90140152D01*
X153168945Y-90095098D01*
X153447514Y-90095098D01*
X153487553Y-90313254D01*
X153569203Y-90519479D01*
X153689354Y-90705917D01*
X153843430Y-90865467D01*
X154025561Y-90992051D01*
X154228811Y-91080849D01*
X154445437Y-91128477D01*
X154667189Y-91133123D01*
X154885620Y-91094607D01*
X155092410Y-91014399D01*
X155279682Y-90895552D01*
X155358430Y-90820561D01*
X164819044Y-90820561D01*
X164898927Y-90988315D01*
X165102519Y-91078785D01*
X165319848Y-91127798D01*
X165542563Y-91133470D01*
X165762106Y-91095583D01*
X165970039Y-91015593D01*
X166021073Y-90988315D01*
X166100956Y-90820561D01*
X165460000Y-90179605D01*
X164819044Y-90820561D01*
X155358430Y-90820561D01*
X155440304Y-90742594D01*
X155568157Y-90561351D01*
X155658371Y-90358726D01*
X155707511Y-90142438D01*
X155708346Y-90082563D01*
X164326530Y-90082563D01*
X164364417Y-90302106D01*
X164444407Y-90510039D01*
X164471685Y-90561073D01*
X164639439Y-90640956D01*
X165280395Y-90000000D01*
X165639605Y-90000000D01*
X166280561Y-90640956D01*
X166448315Y-90561073D01*
X166538785Y-90357481D01*
X166587798Y-90140152D01*
X166588945Y-90095098D01*
X166867514Y-90095098D01*
X166907553Y-90313254D01*
X166989203Y-90519479D01*
X167109354Y-90705917D01*
X167263430Y-90865467D01*
X167445561Y-90992051D01*
X167648811Y-91080849D01*
X167865437Y-91128477D01*
X168087189Y-91133123D01*
X168305620Y-91094607D01*
X168512410Y-91014399D01*
X168699682Y-90895552D01*
X168860304Y-90742594D01*
X168988157Y-90561351D01*
X169078371Y-90358726D01*
X169127511Y-90142438D01*
X169128171Y-90095098D01*
X169407514Y-90095098D01*
X169447553Y-90313254D01*
X169529203Y-90519479D01*
X169649354Y-90705917D01*
X169803430Y-90865467D01*
X169985561Y-90992051D01*
X170188811Y-91080849D01*
X170405437Y-91128477D01*
X170627189Y-91133123D01*
X170845620Y-91094607D01*
X171052410Y-91014399D01*
X171239682Y-90895552D01*
X171400304Y-90742594D01*
X171528157Y-90561351D01*
X171618371Y-90358726D01*
X171667511Y-90142438D01*
X171671048Y-89889100D01*
X171627967Y-89671523D01*
X171543445Y-89466459D01*
X171420703Y-89281716D01*
X171264415Y-89124333D01*
X171080534Y-89000304D01*
X170876064Y-88914353D01*
X170658794Y-88869754D01*
X170436999Y-88868205D01*
X170219127Y-88909767D01*
X170013477Y-88992854D01*
X169827882Y-89114304D01*
X169669412Y-89269490D01*
X169544102Y-89452500D01*
X169456725Y-89656365D01*
X169410611Y-89873319D01*
X169407514Y-90095098D01*
X169128171Y-90095098D01*
X169131048Y-89889100D01*
X169087967Y-89671523D01*
X169003445Y-89466459D01*
X168880703Y-89281716D01*
X168724415Y-89124333D01*
X168540534Y-89000304D01*
X168336064Y-88914353D01*
X168118794Y-88869754D01*
X167896999Y-88868205D01*
X167679127Y-88909767D01*
X167473477Y-88992854D01*
X167287882Y-89114304D01*
X167129412Y-89269490D01*
X167004102Y-89452500D01*
X166916725Y-89656365D01*
X166870611Y-89873319D01*
X166867514Y-90095098D01*
X166588945Y-90095098D01*
X166593470Y-89917437D01*
X166555583Y-89697894D01*
X166475593Y-89489961D01*
X166448315Y-89438927D01*
X166280561Y-89359044D01*
X165639605Y-90000000D01*
X165280395Y-90000000D01*
X164639439Y-89359044D01*
X164471685Y-89438927D01*
X164381215Y-89642519D01*
X164332202Y-89859848D01*
X164326530Y-90082563D01*
X155708346Y-90082563D01*
X155711048Y-89889100D01*
X155667967Y-89671523D01*
X155583445Y-89466459D01*
X155460703Y-89281716D01*
X155359138Y-89179439D01*
X164819044Y-89179439D01*
X165460000Y-89820395D01*
X166100956Y-89179439D01*
X166021073Y-89011685D01*
X165817481Y-88921215D01*
X165600152Y-88872202D01*
X165377437Y-88866530D01*
X165157894Y-88904417D01*
X164949961Y-88984407D01*
X164898927Y-89011685D01*
X164819044Y-89179439D01*
X155359138Y-89179439D01*
X155304415Y-89124333D01*
X155120534Y-89000304D01*
X154916064Y-88914353D01*
X154698794Y-88869754D01*
X154476999Y-88868205D01*
X154259127Y-88909767D01*
X154053477Y-88992854D01*
X153867882Y-89114304D01*
X153709412Y-89269490D01*
X153584102Y-89452500D01*
X153496725Y-89656365D01*
X153450611Y-89873319D01*
X153447514Y-90095098D01*
X153168945Y-90095098D01*
X153173470Y-89917437D01*
X153135583Y-89697894D01*
X153055593Y-89489961D01*
X153028315Y-89438927D01*
X152860561Y-89359044D01*
X152219605Y-90000000D01*
X151860395Y-90000000D01*
X151219439Y-89359044D01*
X151051685Y-89438927D01*
X150961215Y-89642519D01*
X150912202Y-89859848D01*
X150906530Y-90082563D01*
X150628346Y-90082563D01*
X150631048Y-89889100D01*
X150587967Y-89671523D01*
X150503445Y-89466459D01*
X150380703Y-89281716D01*
X150279138Y-89179439D01*
X151399044Y-89179439D01*
X152040000Y-89820395D01*
X152680956Y-89179439D01*
X152601073Y-89011685D01*
X152397481Y-88921215D01*
X152180152Y-88872202D01*
X151957437Y-88866530D01*
X151737894Y-88904417D01*
X151529961Y-88984407D01*
X151478927Y-89011685D01*
X151399044Y-89179439D01*
X150279138Y-89179439D01*
X150224415Y-89124333D01*
X150040534Y-89000304D01*
X149836064Y-88914353D01*
X149618794Y-88869754D01*
X149396999Y-88868205D01*
X149179127Y-88909767D01*
X148973477Y-88992854D01*
X148787882Y-89114304D01*
X148629412Y-89269490D01*
X148504102Y-89452500D01*
X148416725Y-89656365D01*
X148370611Y-89873319D01*
X148367514Y-90095098D01*
X140456000Y-90095098D01*
X140456000Y-87022305D01*
X140525640Y-86312060D01*
X140725432Y-85650317D01*
X141049948Y-85039991D01*
X141351705Y-84670000D01*
X145207157Y-84670000D01*
X145207157Y-87670000D01*
X145214513Y-87744689D01*
X145236299Y-87816508D01*
X145271678Y-87882696D01*
X145319289Y-87940711D01*
X145377304Y-87988322D01*
X145443492Y-88023701D01*
X145515311Y-88045487D01*
X145590000Y-88052843D01*
X148390000Y-88052843D01*
X148464689Y-88045487D01*
X148536508Y-88023701D01*
X148602696Y-87988322D01*
X148660711Y-87940711D01*
X148708322Y-87882696D01*
X148743701Y-87816508D01*
X148765487Y-87744689D01*
X148772843Y-87670000D01*
X148772843Y-84670000D01*
X155307157Y-84670000D01*
X155307157Y-87670000D01*
X155314513Y-87744689D01*
X155336299Y-87816508D01*
X155371678Y-87882696D01*
X155419289Y-87940711D01*
X155477304Y-87988322D01*
X155543492Y-88023701D01*
X155615311Y-88045487D01*
X155690000Y-88052843D01*
X158490000Y-88052843D01*
X158564689Y-88045487D01*
X158636508Y-88023701D01*
X158702696Y-87988322D01*
X158760711Y-87940711D01*
X158808322Y-87882696D01*
X158843701Y-87816508D01*
X158865487Y-87744689D01*
X158872843Y-87670000D01*
X158872843Y-84670000D01*
X161167157Y-84670000D01*
X161167157Y-87670000D01*
X161174513Y-87744689D01*
X161196299Y-87816508D01*
X161231678Y-87882696D01*
X161279289Y-87940711D01*
X161337304Y-87988322D01*
X161403492Y-88023701D01*
X161475311Y-88045487D01*
X161550000Y-88052843D01*
X164350000Y-88052843D01*
X164424689Y-88045487D01*
X164496508Y-88023701D01*
X164562696Y-87988322D01*
X164620711Y-87940711D01*
X164668322Y-87882696D01*
X164703701Y-87816508D01*
X164725487Y-87744689D01*
X164732843Y-87670000D01*
X164732843Y-84670000D01*
X171267157Y-84670000D01*
X171267157Y-87670000D01*
X171274513Y-87744689D01*
X171296299Y-87816508D01*
X171331678Y-87882696D01*
X171379289Y-87940711D01*
X171437304Y-87988322D01*
X171503492Y-88023701D01*
X171575311Y-88045487D01*
X171650000Y-88052843D01*
X174450000Y-88052843D01*
X174524689Y-88045487D01*
X174596508Y-88023701D01*
X174662696Y-87988322D01*
X174720711Y-87940711D01*
X174768322Y-87882696D01*
X174803701Y-87816508D01*
X174825487Y-87744689D01*
X174832843Y-87670000D01*
X174832843Y-84670000D01*
X174825487Y-84595311D01*
X174803701Y-84523492D01*
X174768322Y-84457304D01*
X174720711Y-84399289D01*
X174662696Y-84351678D01*
X174596508Y-84316299D01*
X174524689Y-84294513D01*
X174450000Y-84287157D01*
X171650000Y-84287157D01*
X171575311Y-84294513D01*
X171503492Y-84316299D01*
X171437304Y-84351678D01*
X171379289Y-84399289D01*
X171331678Y-84457304D01*
X171296299Y-84523492D01*
X171274513Y-84595311D01*
X171267157Y-84670000D01*
X164732843Y-84670000D01*
X164725487Y-84595311D01*
X164703701Y-84523492D01*
X164668322Y-84457304D01*
X164620711Y-84399289D01*
X164562696Y-84351678D01*
X164496508Y-84316299D01*
X164424689Y-84294513D01*
X164350000Y-84287157D01*
X161550000Y-84287157D01*
X161475311Y-84294513D01*
X161403492Y-84316299D01*
X161337304Y-84351678D01*
X161279289Y-84399289D01*
X161231678Y-84457304D01*
X161196299Y-84523492D01*
X161174513Y-84595311D01*
X161167157Y-84670000D01*
X158872843Y-84670000D01*
X158865487Y-84595311D01*
X158843701Y-84523492D01*
X158808322Y-84457304D01*
X158760711Y-84399289D01*
X158702696Y-84351678D01*
X158636508Y-84316299D01*
X158564689Y-84294513D01*
X158490000Y-84287157D01*
X155690000Y-84287157D01*
X155615311Y-84294513D01*
X155543492Y-84316299D01*
X155477304Y-84351678D01*
X155419289Y-84399289D01*
X155371678Y-84457304D01*
X155336299Y-84523492D01*
X155314513Y-84595311D01*
X155307157Y-84670000D01*
X148772843Y-84670000D01*
X148765487Y-84595311D01*
X148743701Y-84523492D01*
X148708322Y-84457304D01*
X148660711Y-84399289D01*
X148602696Y-84351678D01*
X148536508Y-84316299D01*
X148464689Y-84294513D01*
X148390000Y-84287157D01*
X145590000Y-84287157D01*
X145515311Y-84294513D01*
X145443492Y-84316299D01*
X145377304Y-84351678D01*
X145319289Y-84399289D01*
X145271678Y-84457304D01*
X145236299Y-84523492D01*
X145214513Y-84595311D01*
X145207157Y-84670000D01*
X141351705Y-84670000D01*
X141486833Y-84504317D01*
X142019443Y-84063704D01*
X142627494Y-83734932D01*
X143287818Y-83530527D01*
X143996766Y-83456014D01*
X144000720Y-83456000D01*
X175977695Y-83456000D01*
X176687940Y-83525640D01*
M02*
