G04 #@! TF.FileFunction,Soldermask,Top*
%FSLAX46Y46*%
G04 Gerber Fmt 4.6, Leading zero omitted, Abs format (unit mm)*
G04 Created by KiCad (PCBNEW (2016-04-26 BZR 6712)-product) date Friday, 13 May 2016 'amt' 09:44:12*
%MOMM*%
%LPD*%
G01*
G04 APERTURE LIST*
%ADD10C,0.100000*%
%ADD11C,0.300000*%
%ADD12R,2.235200X1.930400*%
%ADD13O,2.235200X1.930400*%
%ADD14C,3.403200*%
%ADD15R,1.003200X0.953200*%
%ADD16R,0.953200X1.003200*%
%ADD17R,1.000760X1.000760*%
%ADD18R,1.103200X0.703200*%
%ADD19R,0.703200X1.103200*%
%ADD20R,0.853200X1.263200*%
%ADD21R,1.503200X0.453200*%
%ADD22R,0.453200X1.503200*%
%ADD23C,2.743200*%
%ADD24R,2.603200X2.103200*%
%ADD25C,1.703200*%
%ADD26R,3.003200X3.203200*%
%ADD27R,1.343660X2.232660*%
%ADD28C,0.254000*%
G04 APERTURE END LIST*
D10*
D11*
X163400000Y-139678571D02*
X164328571Y-139678571D01*
X163828571Y-140250000D01*
X164042857Y-140250000D01*
X164185714Y-140321428D01*
X164257142Y-140392857D01*
X164328571Y-140535714D01*
X164328571Y-140892857D01*
X164257142Y-141035714D01*
X164185714Y-141107142D01*
X164042857Y-141178571D01*
X163614285Y-141178571D01*
X163471428Y-141107142D01*
X163400000Y-141035714D01*
X155671428Y-139821428D02*
X155742857Y-139750000D01*
X155885714Y-139678571D01*
X156242857Y-139678571D01*
X156385714Y-139750000D01*
X156457142Y-139821428D01*
X156528571Y-139964285D01*
X156528571Y-140107142D01*
X156457142Y-140321428D01*
X155600000Y-141178571D01*
X156528571Y-141178571D01*
X167485714Y-135778571D02*
X167485714Y-136778571D01*
X167128571Y-135207142D02*
X166771428Y-136278571D01*
X167700000Y-136278571D01*
X153228571Y-136778571D02*
X152371428Y-136778571D01*
X152800000Y-136778571D02*
X152800000Y-135278571D01*
X152657142Y-135492857D01*
X152514285Y-135635714D01*
X152371428Y-135707142D01*
D12*
X190000000Y-96380000D03*
D13*
X190000000Y-98920000D03*
X190000000Y-101460000D03*
X190000000Y-104000000D03*
X190000000Y-106540000D03*
X190000000Y-109080000D03*
X190000000Y-111620000D03*
X190000000Y-114160000D03*
D14*
X178000000Y-96000000D03*
X178000000Y-132000000D03*
X142000000Y-132000000D03*
X142000000Y-96000000D03*
D15*
X174000000Y-102500000D03*
X172500000Y-102500000D03*
D16*
X170750000Y-106250000D03*
X170750000Y-104750000D03*
D15*
X172500000Y-108500000D03*
X174000000Y-108500000D03*
X172500000Y-110500000D03*
X174000000Y-110500000D03*
D16*
X166500000Y-106250000D03*
X166500000Y-107750000D03*
D15*
X156750000Y-103000000D03*
X158250000Y-103000000D03*
D16*
X152000000Y-112250000D03*
X152000000Y-110750000D03*
X151500000Y-107300000D03*
X151500000Y-108800000D03*
X151500000Y-105050000D03*
X151500000Y-103550000D03*
D17*
X146776239Y-99500000D03*
X145277639Y-99500000D03*
X146749300Y-101500000D03*
X145250700Y-101500000D03*
D18*
X147000000Y-110750000D03*
X147000000Y-112250000D03*
D19*
X148250000Y-99500000D03*
X149750000Y-99500000D03*
X148250000Y-101500000D03*
X149750000Y-101500000D03*
D20*
X174200000Y-104400000D03*
X173250000Y-104400000D03*
X172300000Y-104400000D03*
X172300000Y-106600000D03*
X174200000Y-106600000D03*
D21*
X155650000Y-106750000D03*
X155650000Y-107250000D03*
X155650000Y-107750000D03*
X155650000Y-108250000D03*
X155650000Y-108750000D03*
X155650000Y-109250000D03*
X155650000Y-109750000D03*
X155650000Y-110250000D03*
X155650000Y-110750000D03*
X155650000Y-111250000D03*
X155650000Y-111750000D03*
X155650000Y-112250000D03*
D22*
X157250000Y-113850000D03*
X157750000Y-113850000D03*
X158250000Y-113850000D03*
X158750000Y-113850000D03*
X159250000Y-113850000D03*
X159750000Y-113850000D03*
X160250000Y-113850000D03*
X160750000Y-113850000D03*
X161250000Y-113850000D03*
X161750000Y-113850000D03*
X162250000Y-113850000D03*
X162750000Y-113850000D03*
D21*
X164350000Y-112250000D03*
X164350000Y-111750000D03*
X164350000Y-111250000D03*
X164350000Y-110750000D03*
X164350000Y-110250000D03*
X164350000Y-109750000D03*
X164350000Y-109250000D03*
X164350000Y-108750000D03*
X164350000Y-108250000D03*
X164350000Y-107750000D03*
X164350000Y-107250000D03*
X164350000Y-106750000D03*
D22*
X162750000Y-105150000D03*
X162250000Y-105150000D03*
X161750000Y-105150000D03*
X161250000Y-105150000D03*
X160750000Y-105150000D03*
X160250000Y-105150000D03*
X159750000Y-105150000D03*
X159250000Y-105150000D03*
X158750000Y-105150000D03*
X158250000Y-105150000D03*
X157750000Y-105150000D03*
X157250000Y-105150000D03*
D23*
X147000000Y-140000000D03*
X150469705Y-140929705D03*
X146070295Y-143469705D03*
X143530295Y-139070295D03*
X147929705Y-136530295D03*
X155000000Y-146000000D03*
X158255550Y-144481912D03*
X156518088Y-149255550D03*
X151744450Y-147518088D03*
X153481912Y-142744450D03*
X165000000Y-146000000D03*
X166518088Y-142744450D03*
X168255550Y-147518088D03*
X163481912Y-149255550D03*
X161744450Y-144481912D03*
X173000000Y-140000000D03*
X172070295Y-136530295D03*
X176469705Y-139070295D03*
X173929705Y-143469705D03*
X169530295Y-140929705D03*
D15*
X151250000Y-129000000D03*
X152750000Y-129000000D03*
X153750000Y-117000000D03*
X155250000Y-117000000D03*
X153750000Y-123000000D03*
X155250000Y-123000000D03*
X159250000Y-129000000D03*
X157750000Y-129000000D03*
X158250000Y-117000000D03*
X156750000Y-117000000D03*
X158250000Y-123000000D03*
X156750000Y-123000000D03*
X160750000Y-129000000D03*
X162250000Y-129000000D03*
X161750000Y-117000000D03*
X163250000Y-117000000D03*
X161750000Y-123000000D03*
X163250000Y-123000000D03*
X168750000Y-129000000D03*
X167250000Y-129000000D03*
X166250000Y-117000000D03*
X164750000Y-117000000D03*
X166250000Y-123000000D03*
X164750000Y-123000000D03*
D19*
X152750000Y-127000000D03*
X151250000Y-127000000D03*
X151250000Y-125000000D03*
X152750000Y-125000000D03*
X155250000Y-119000000D03*
X153750000Y-119000000D03*
X155250000Y-121000000D03*
X153750000Y-121000000D03*
X157750000Y-127000000D03*
X159250000Y-127000000D03*
X159250000Y-125000000D03*
X157750000Y-125000000D03*
X158250000Y-119000000D03*
X156750000Y-119000000D03*
X156750000Y-121000000D03*
X158250000Y-121000000D03*
X162250000Y-127000000D03*
X160750000Y-127000000D03*
X160750000Y-125000000D03*
X162250000Y-125000000D03*
X161750000Y-119000000D03*
X163250000Y-119000000D03*
X163250000Y-121000000D03*
X161750000Y-121000000D03*
X167250000Y-127000000D03*
X168750000Y-127000000D03*
X168750000Y-125000000D03*
X167250000Y-125000000D03*
X166250000Y-119000000D03*
X164750000Y-119000000D03*
X164750000Y-121000000D03*
X166250000Y-121000000D03*
D15*
X164750000Y-99500000D03*
X163250000Y-99500000D03*
X156750000Y-99500000D03*
X155250000Y-99500000D03*
D24*
X148930000Y-108075000D03*
X148930000Y-104075000D03*
D25*
X152040000Y-90000000D03*
X149500000Y-90000000D03*
X154580000Y-90000000D03*
D26*
X157090000Y-86170000D03*
X146990000Y-86170000D03*
D25*
X168000000Y-90000000D03*
X165460000Y-90000000D03*
X170540000Y-90000000D03*
D26*
X173050000Y-86170000D03*
X162950000Y-86170000D03*
D16*
X150000000Y-112250000D03*
X150000000Y-110750000D03*
X164900000Y-114000000D03*
X164900000Y-115500000D03*
D27*
X171346040Y-100300000D03*
X173753960Y-100300000D03*
D28*
G36*
X179873000Y-133873000D02*
X140127000Y-133873000D01*
X140127000Y-98127000D01*
X143873000Y-98127000D01*
X143873000Y-130000000D01*
X143882667Y-130048601D01*
X143910197Y-130089803D01*
X143951399Y-130117333D01*
X144000000Y-130127000D01*
X176000000Y-130127000D01*
X176048601Y-130117333D01*
X176089803Y-130089803D01*
X176117333Y-130048601D01*
X176127000Y-130000000D01*
X176127000Y-98000000D01*
X176117333Y-97951399D01*
X176089803Y-97910197D01*
X176048601Y-97882667D01*
X176000000Y-97873000D01*
X140127000Y-97873000D01*
X140127000Y-94127000D01*
X179873000Y-94127000D01*
X179873000Y-133873000D01*
X179873000Y-133873000D01*
G37*
X179873000Y-133873000D02*
X140127000Y-133873000D01*
X140127000Y-98127000D01*
X143873000Y-98127000D01*
X143873000Y-130000000D01*
X143882667Y-130048601D01*
X143910197Y-130089803D01*
X143951399Y-130117333D01*
X144000000Y-130127000D01*
X176000000Y-130127000D01*
X176048601Y-130117333D01*
X176089803Y-130089803D01*
X176117333Y-130048601D01*
X176127000Y-130000000D01*
X176127000Y-98000000D01*
X176117333Y-97951399D01*
X176089803Y-97910197D01*
X176048601Y-97882667D01*
X176000000Y-97873000D01*
X140127000Y-97873000D01*
X140127000Y-94127000D01*
X179873000Y-94127000D01*
X179873000Y-133873000D01*
M02*
