M48
INCH,TZ
T1C0.013
T2C0.026
T3C0.035
T4C0.040
T5C0.063
T6C0.094
T7C0.126
%
G90
G05
T1
X55512Y-38976
X57835Y-40630
X57835Y-42874
X57913Y-41772
X59291Y-41811
X60079Y-42677
X60197Y-41181
X60433Y-43110
X63976Y-40551
X64370Y-40551
X64764Y-40881
X64764Y-41211
X64764Y-40551
X65354Y-42913
T2
X57205Y-39567
X57283Y-43504
X58465Y-43583
X58465Y-44213
X59449Y-39173
X61417Y-49213
X61417Y-50000
X61850Y-41969
X62441Y-41969
X63661Y-44291
X63858Y-42008
X64055Y-43465
X64094Y-42520
X64567Y-49213
X64567Y-50000
X67343Y-40354
X67343Y-42795
T3
X58858Y-35433
X59858Y-35433
X60858Y-35433
X65142Y-35433
X66142Y-35433
X67142Y-35433
T4
X74803Y-37945
X74803Y-38945
X74803Y-39945
X74803Y-40945
X74803Y-41945
X74803Y-42945
X74803Y-43945
X74803Y-44945
T5
X56508Y-54752
X57508Y-56484
X57874Y-55118
X58240Y-53752
X59240Y-55484
X59742Y-58078
X60426Y-56199
X61024Y-57480
X61621Y-58762
X62305Y-56883
X63679Y-56883
X64363Y-58762
X64961Y-57480
X65558Y-56199
X66242Y-58078
X66744Y-55484
X67744Y-53752
X68110Y-55118
X68476Y-56484
X69476Y-54752
T6
X57870Y-33925
X61846Y-33925
X64154Y-33925
X68130Y-33925
T7
X55906Y-37795
X55906Y-51969
X70079Y-37795
X70079Y-51969
T0
M30
